<?xml version="1.0" encoding="UTF-8"?>
<svg width="24px" height="24px" viewBox="0 0 24 24" version="1.1" xmlns="http://www.w3.org/2000/svg" xmlns:xlink="http://www.w3.org/1999/xlink">
    <title>1. atom / Icons / alimony </title>
    <defs>
        <filter id="filter-1">
            <feColorMatrix in="SourceGraphic" type="matrix" values="0 0 0 0 0.854968 0 0 0 0 0.900611 0 0 0 0 0.983639 0 0 0 1.000000 0"></feColorMatrix>
        </filter>
        <polygon id="path-2" points="10.0069726 19.9793217 1.36 14.9898734 1.36 5.01097696 10.0069726 0.0216049598 18.6538689 5.01097696 18.6538689 14.9898734"></polygon>
        <path d="M11.4044314,9.00051211 L11.6014526,9.0114503 C12.3170925,9.07659869 13.0137015,9.41500836 13.5630262,9.96431356 C14.0745811,10.4758685 14.4075617,11.1253286 14.5005947,11.7930412 C14.5830226,12.3847668 14.4726712,12.9490943 14.1890967,13.4065535 C14.4477249,13.5330558 14.6877504,13.6828309 14.9008448,13.8523957 C15.310941,14.1787214 15.6242487,14.5791077 15.8069483,15.0102584 C15.8488627,15.1092069 15.8026284,15.2234112 15.7036799,15.2653451 C15.6789087,15.2758335 15.6531841,15.2808149 15.6278681,15.2808149 C15.5520562,15.2808149 15.4800194,15.2362541 15.4485932,15.1620768 C15.1535964,14.4657985 14.4677286,13.885398 13.5886924,13.5766437 C13.5624229,13.8050522 13.4959319,14.0264945 13.389842,14.2372538 C13.1636907,14.6865986 12.7727614,15.038396 12.2890911,15.2278673 L12.2890911,15.2278673 L11.9311836,15.3680686 C11.8482887,15.4005261 11.7903207,15.4691187 11.7721071,15.5562556 C11.7538936,15.6433926 11.7795599,15.7294398 11.8424705,15.7923699 C11.8829255,15.8328249 11.9375272,15.8591334 11.9963125,15.8664304 C12.6280456,15.9451611 13.1159775,16.4499638 13.1870803,17.0703718 C13.7577319,16.813709 14.1379393,16.3588962 14.1379393,15.8415814 C14.1379393,15.7341294 14.2250762,15.6469925 14.3325282,15.6469925 C14.4399802,15.6469925 14.5271172,15.7341294 14.5271172,15.8415814 C14.5271172,16.3440101 14.2684112,16.8124831 13.7986539,17.1607195 C13.3463708,17.4959963 12.7481265,17.6806418 12.1141167,17.6806418 C12.0667148,17.6806418 12.0194881,17.6792602 11.9723976,17.6771975 L11.9723976,17.6771975 L11.8330329,18.5652627 C11.9263578,18.5708474 12.0200719,18.5739997 12.1141167,18.5739997 C13.6533349,18.5739997 14.9956096,17.8330633 15.4541779,16.7302498 C15.4954308,16.6310289 15.6092459,16.5839773 15.7085641,16.6252885 C15.807785,16.6665414 15.8547783,16.7804343 15.8134865,16.8796941 C15.5615132,17.4856636 15.0765391,18.005508 14.410967,18.3830106 C13.7417756,18.762537 12.9475412,18.9631776 12.1140778,18.9631776 C11.7705115,18.9631776 11.4297084,18.9285408 11.101106,18.8602206 C10.8339937,18.8046849 10.616813,18.6297495 10.5052551,18.3803253 C10.465559,18.2915538 10.4420915,18.1990657 10.434055,18.10613 C10.1485541,17.9793164 9.89049019,17.8109775 9.66416377,17.6040321 C9.54067761,17.6762051 9.39720716,17.7177888 9.24412402,17.7177888 C8.78357085,17.7177888 8.4088898,17.3431077 8.4088898,16.8825546 C8.4088898,16.5792098 8.57148834,16.3131483 8.8140824,16.1668369 C8.72091321,15.8046874 8.6877747,15.4182921 8.7153285,15.0147145 C8.2871744,14.7574874 8,14.2886058 8,13.7537975 C8,13.0024895 8.56666253,12.3814199 9.29495066,12.2945554 C8.91875181,11.3164928 9.08172007,10.2978974 9.73845783,9.64115966 C10.2109004,9.16871711 10.8726002,8.94509547 11.6014526,9.0114503 Z M11.3800687,17.5945167 C11.1866862,17.5478348 10.9819203,17.6356528 10.8820183,17.8082337 C10.8080745,17.9359619 10.8002325,18.0865738 10.8605551,18.2214434 C10.920508,18.3554568 11.0370473,18.4493849 11.1803621,18.4791765 C11.267752,18.4973317 11.3561927,18.5126069 11.4453144,18.525586 L11.4453144,18.525586 L11.5848931,17.636256 C11.5158918,17.6245612 11.4475133,17.6108232 11.3800687,17.5945167 Z M12.9675255,13.1037228 C12.8994389,13.1031114 12.8369953,13.128155 12.7892237,13.1752456 C12.7414132,13.2223556 12.7150853,13.2852856 12.7150853,13.3523994 C12.7150853,13.6750279 12.5662442,13.9817585 12.2845961,14.2393748 C12.028264,14.473874 11.6697144,14.6524677 11.2750102,14.7422121 C10.8944525,14.8287264 10.4026484,14.9761081 10.0051031,15.1225363 C9.83913817,15.1876457 9.65877365,15.2238004 9.47000289,15.2238004 C9.34106824,15.2238004 9.21600592,15.2069684 9.0967618,15.1756396 C9.0871491,15.4811832 9.11684338,15.7738256 9.18565004,16.0495776 C9.20501164,16.0482349 9.22447054,16.0473009 9.24414348,16.0473009 C9.70469665,16.0473009 10.0793777,16.4220014 10.0793777,16.8825546 C10.0793777,17.0489476 10.0302829,17.2039961 9.94608426,17.3343512 C10.1114849,17.4823361 10.2964028,17.6068342 10.4984834,17.7065416 C10.5120463,17.6748625 10.5275745,17.6436893 10.5452042,17.6132361 C10.7308616,17.2925146 11.1117889,17.1292739 11.4714866,17.2161774 C11.6780623,17.2660894 11.8942701,17.2914055 12.1140972,17.2914055 C12.3572362,17.2914055 12.5904705,17.2605047 12.8066199,17.2039377 C12.7954116,16.7195863 12.4302849,16.3126424 11.9481907,16.2525728 C11.803903,16.2346122 11.6686247,16.1688801 11.5672439,16.0674992 C11.4120786,15.9123534 11.3462103,15.6914366 11.3911214,15.4766104 C11.4360131,15.2617647 11.5848347,15.0857006 11.789192,15.0056467 L11.789192,15.0056467 L12.1470995,14.8654453 C12.5413368,14.711039 12.8592173,14.425791 13.0421893,14.0622405 C13.1536499,13.8408371 13.2109174,13.6052677 13.2124009,13.3620899 C13.213233,13.2263641 13.0988147,13.1056411 12.9675255,13.1037228 Z M9.24414348,16.4364788 C8.99818303,16.4364788 8.79808719,16.6365747 8.79808719,16.8825546 C8.79808719,17.128515 8.99818303,17.3286109 9.24414348,17.3286109 C9.49008448,17.3286109 9.69019977,17.128515 9.69019977,16.8825546 C9.69019977,16.6365747 9.49010393,16.4364788 9.24414348,16.4364788 Z M9.47000289,12.6729531 C8.87403526,12.6729531 8.38917793,13.1578104 8.38917793,13.7537975 C8.38917793,14.3497651 8.87403526,14.8346224 9.47002235,14.8346224 C9.91448301,14.8346224 10.2970255,14.5648832 10.4628542,14.18057 L10.4628542,14.18057 C10.4069099,14.1808424 10.3596442,14.1741097 10.3132347,14.1605663 C10.2100831,14.1303855 10.1509086,14.0223303 10.1810699,13.9191786 C10.2112506,13.816027 10.3193059,13.7569304 10.4224575,13.7870138 C10.4732842,13.8018999 10.5265237,13.7780238 10.5503219,13.7327624 C10.5390358,13.1464853 10.0589459,12.6729531 9.47000289,12.6729531 Z M10.9031896,13.4280361 C10.9270267,13.5329001 10.9400252,13.641831 10.9400447,13.7537975 C10.9400447,14.0156753 10.8708878,14.2615579 10.7503594,14.4747496 C10.9036955,14.4319011 11.052556,14.3936838 11.1887294,14.3627247 C11.7644792,14.2317858 12.1906291,13.9061801 12.2988011,13.5360913 C12.1088433,13.6223916 11.9039801,13.665746 11.699039,13.665746 C11.4213411,13.665746 11.1436431,13.5864899 10.9031896,13.4280361 Z M12.3939356,11.418905 C12.1915631,11.2165325 11.8754339,11.1721273 11.6251925,11.3110249 C11.4720899,11.395963 11.2986333,11.4408741 11.1235421,11.4408741 L11.1235421,11.4408741 L10.8929347,11.4408741 C10.9300623,11.8420776 10.8027427,12.2461027 10.5376542,12.553923 L10.5376542,12.553923 L10.9512141,12.9674829 C11.3635871,13.3798559 12.0345493,13.3798559 12.4468833,12.9675024 C12.6466483,12.7677568 12.7566495,12.5021818 12.7566495,12.2196775 C12.7566495,11.9371733 12.6466483,11.6715982 12.4468833,11.4718527 L12.4468833,11.4718527 Z M11.5661736,9.39901315 C10.9543275,9.34343854 10.4029792,9.52705269 10.013665,9.91636684 C9.43484067,10.4951717 9.32326335,11.4260464 9.72102266,12.305608 C9.85993973,12.3296203 9.99227968,12.3729553 10.1150069,12.4331416 C10.1160188,12.4319157 10.1210149,12.4267384 10.1279398,12.4196621 L10.1868492,12.3601124 C10.4644887,12.0829982 10.5742564,11.6753538 10.4733425,11.2962945 C10.4577754,11.2378984 10.4702486,11.175591 10.5070843,11.1276637 C10.5439199,11.0797364 10.6009345,11.0516573 10.6613738,11.0516573 L10.6613738,11.0516573 L11.1235616,11.0516573 C11.2327454,11.0516573 11.3409174,11.0236754 11.4363633,10.9706888 C11.8376836,10.7480401 12.3446073,10.8191624 12.6691623,11.1436784 L12.6691623,11.1436784 L12.7221099,11.196626 C13.1337434,11.608279 13.2446008,12.2081968 13.0554603,12.7216587 C13.2928005,12.7580468 13.4922347,12.9335466 13.5683773,13.1598341 C13.6560202,13.1872128 13.7423983,13.2172379 13.8273558,13.2496175 C14.3966842,12.3985048 14.17711,11.1287339 13.287819,10.2394818 C12.8027476,9.75441044 12.1913296,9.45593042 11.5661736,9.39901315 Z M11.8253272,12.2448768 C11.9327987,12.2448768 12.0199162,12.3320137 12.0199162,12.4394658 C12.0199162,12.6761054 11.8273704,12.8686512 11.5907308,12.8686512 C11.4832787,12.8686512 11.3961418,12.7815143 11.3961418,12.6740622 C11.3961418,12.5666102 11.4832787,12.4794733 11.5907308,12.4794733 C11.6127971,12.4794733 11.6307382,12.4615322 11.6307382,12.4394658 C11.6307382,12.3320137 11.7178752,12.2448768 11.8253272,12.2448768 Z M15.8048856,15.758239 C15.9123377,15.758239 16,15.8453759 16,15.9528279 C16,16.06028 15.913369,16.1474169 15.805917,16.1474169 L15.805917,16.1474169 C15.6974336,16.1474169 15.6102967,16.06028 15.6102967,15.9528279 C15.6102967,15.8453759 15.6974336,15.758239 15.8048856,15.758239 Z" id="path-4"></path>
    </defs>
    <g id="1.-atom-/-Icons-/-alimony-" stroke="none" stroke-width="1" fill="none" fill-rule="evenodd">
        <g id="1.-atom-/-Hexagon" transform="translate(2.000000, 4.000000)" filter="url(#filter-1)">
            <g>
                <mask id="mask-3" fill="white">
                    <use xlink:href="#path-2"></use>
                </mask>
                <use id="Mask" fill="#A2DAF2" xlink:href="#path-2"></use>
                <g id="Group" mask="url(#mask-3)" fill="#DAE6FB">
                    <g id="4.-color-/-lightblue">
                        <rect id="Rectangle" x="0" y="0" width="20" height="20"></rect>
                    </g>
                </g>
            </g>
        </g>
        <mask id="mask-5" fill="white">
            <use xlink:href="#path-4"></use>
        </mask>
        <use id="Mask" fill="#000000" fill-rule="nonzero" xlink:href="#path-4"></use>
        <g id="Group" mask="url(#mask-5)" fill="#4D7CFF">
            <g id="4.-color-/-black">
                <rect id="Rectangle" x="0" y="0" width="24" height="24"></rect>
            </g>
        </g>
    </g>
</svg>