<?xml version="1.0" encoding="UTF-8"?>
<svg width="24px" height="24px" viewBox="0 0 24 24" version="1.1" xmlns="http://www.w3.org/2000/svg" xmlns:xlink="http://www.w3.org/1999/xlink">
    <title>1. atom / Icons / bed</title>
    <defs>
        <filter id="filter-1">
            <feColorMatrix in="SourceGraphic" type="matrix" values="0 0 0 0 0.854968 0 0 0 0 0.900611 0 0 0 0 0.983639 0 0 0 1.000000 0"></feColorMatrix>
        </filter>
        <polygon id="path-2" points="10.0069726 19.9793217 1.36 14.9898734 1.36 5.01097696 10.0069726 0.0216049598 18.6538689 5.01097696 18.6538689 14.9898734"></polygon>
        <path d="M7.28689707,10.5081916 C7.51761652,10.0804273 7.9991883,9.89267682 8.43193962,10.0617151 L8.43193962,10.0617151 L9.66766213,10.5443584 C10.1004369,10.7134219 10.3568908,11.1894002 10.277414,11.6761933 C10.2629061,11.7650007 10.2285232,11.8470928 10.1783199,11.916358 L10.1783199,11.916358 L10.2140622,11.9303167 C10.5212819,12.050311 10.8428688,12.1111507 11.169823,12.1111507 L11.169823,12.1111507 L11.7572154,12.1111507 L11.7725904,12.0394459 C11.8763485,11.5558972 12.2717638,11.2181727 12.7341637,11.2181727 L12.7341637,11.2181727 L15.5951646,11.2181727 C16.057541,11.2181727 16.4529562,11.555872 16.5567378,12.0394459 L16.5567378,12.0394459 L16.5721128,12.1111507 L17.4286389,12.1111507 C17.7436867,12.1111507 18,12.3861744 18,12.724251 L18,12.724251 L18,13.3155456 C18,13.6536223 17.7436633,13.9286962 17.4286154,13.9286962 L17.4286154,13.9286962 L16.0864864,13.9286962 L16.0864864,16.6668605 C16.3078073,16.8417841 16.4517609,17.123196 16.4517609,17.4401209 C16.4517609,17.9693937 16.0504863,18.4 15.557266,18.4 C15.0640457,18.4 14.6627711,17.9694188 14.6627711,17.4401209 C14.6627711,17.123196 14.8067247,16.8417589 15.0280456,16.6668605 L15.0280456,16.6668605 L15.0280456,16.3591408 L14.4406063,16.3591408 C14.3435045,16.3591408 14.2648246,16.2746845 14.2648246,16.1705101 C14.2648246,16.0663356 14.3435045,15.9818793 14.4406063,15.9818793 L14.4406063,15.9818793 L15.0280456,15.9818793 L15.0280456,15.6005182 L9.28436409,15.6005182 L9.28436409,15.9818793 L13.6180179,15.9818793 C13.7151198,15.9818793 13.7937997,16.0663356 13.7937997,16.1705101 C13.7937997,16.2746845 13.7151198,16.3591408 13.6180179,16.3591408 L13.6180179,16.3591408 L9.28434065,16.3591408 L9.28434065,16.6668856 C9.50566164,16.8417841 9.64959176,17.123196 9.64959176,17.4400957 C9.64959176,17.9693685 9.2483171,18.4 8.75509685,18.4 C8.2618766,18.4 7.86060194,17.9693937 7.86060194,17.4400957 C7.86060194,17.1231709 8.0045555,16.8417338 8.22587649,16.6668353 L8.22587649,16.6668353 L8.22587649,13.0880821 L7.49996803,12.8045071 C7.408749,12.7688685 7.3617098,12.6606196 7.39492083,12.5627328 C7.42815531,12.464846 7.5289603,12.4143181 7.62022621,12.450007 L7.62022621,12.450007 L9.97668651,13.3706007 C10.2839296,13.4906453 10.6055634,13.5515101 10.9325879,13.5515101 L10.9325879,13.5515101 L17.4286623,13.5515101 C17.5498814,13.5515101 17.6484833,13.4456757 17.6484833,13.3156211 L17.6484833,13.3156211 L17.6484833,12.7243265 C17.6484833,12.5942467 17.5498814,12.4884374 17.4286623,12.4884374 L17.4286623,12.4884374 L16.6530896,12.4884374 L16.7580431,12.9776702 C16.77984,13.0791787 16.7207774,13.1804357 16.6261833,13.2038008 C16.6128942,13.2070704 16.599652,13.2086549 16.5865738,13.2086549 C16.5065345,13.2086549 16.4341593,13.1495757 16.4154327,13.0623025 L16.4154327,13.0623025 L16.2923151,12.4884374 L15.2679761,12.4884374 L15.2679761,13.0199738 C15.2679761,13.1241483 15.1892727,13.2086045 15.0921943,13.2086045 C14.9950924,13.2086045 14.9164125,13.1241483 14.9164125,13.0199738 L14.9164125,13.0199738 L14.9164125,12.4884374 L13.4129392,12.4884374 L13.4129392,13.0199738 C13.4129392,13.1241483 13.3342592,13.2086045 13.2371574,13.2086045 C13.1400555,13.2086045 13.0613756,13.1241483 13.0613756,13.0199738 L13.0613756,13.0199738 L13.0613756,12.4884374 L12.0370365,12.4884374 L11.9138955,13.0623025 C11.8920986,13.1638362 11.7977389,13.2271658 11.7031683,13.2038008 C11.6085509,13.1804357 11.5495116,13.0791787 11.5713086,12.977645 L11.5713086,12.977645 L11.6762854,12.4884374 L11.169823,12.4884374 C10.8017359,12.4884374 10.4397192,12.4199267 10.0938041,12.2848419 L10.0938041,12.2848419 L6.83530194,11.0121376 C6.72139535,10.9675704 6.5950434,11.0309 6.55358233,11.1531076 L6.55358233,11.1531076 L6.36512082,11.7087384 C6.34503482,11.7679685 6.34763639,11.8320023 6.37245678,11.8891197 C6.39727717,11.946212 6.44133981,11.9895468 6.49651185,12.0110758 L6.49651185,12.0110758 L6.84420822,12.1469151 C6.93542725,12.1825538 6.98246645,12.2908027 6.94925541,12.3886895 C6.91604438,12.4865763 6.81516907,12.537079 6.72395004,12.5014152 L6.72395004,12.5014152 L6.37625367,12.3656011 C6.23283917,12.3096154 6.11834663,12.1970155 6.053823,12.0485756 C5.9893228,11.9001609 5.98257278,11.7336377 6.03476825,11.5797401 L6.03476825,11.5797401 L6.22322977,11.0241093 C6.33099572,10.7063797 6.65956703,10.5420948 6.95556012,10.6576375 L6.95556012,10.6576375 L7.21895155,10.7605041 C7.22197499,10.6728285 7.24480319,10.5862344 7.28689707,10.5081916 Z M8.75509685,16.8574027 C8.45572875,16.8574027 8.21214207,17.1187695 8.21214207,17.4400454 C8.21214207,17.7613214 8.45572875,18.0226882 8.75509685,18.0226882 C9.05446495,18.0226882 9.29805163,17.7613214 9.29805163,17.4400454 C9.29805163,17.1187695 9.05446495,16.8574027 8.75509685,16.8574027 Z M15.557266,16.8574027 C15.2578979,16.8574027 15.0143112,17.1187695 15.0143112,17.4400454 C15.0143112,17.7613214 15.2578979,18.0226882 15.557266,18.0226882 C15.8566341,18.0226882 16.1002208,17.7613214 16.1002208,17.4400454 C16.1002208,17.1187695 15.8566341,16.8574027 15.557266,16.8574027 Z M8.57744006,13.2254053 L8.57744006,16.4992809 C8.63488555,16.4868061 8.69429979,16.4801915 8.75512029,16.4801915 C8.81594079,16.4801915 8.87537847,16.4868061 8.93282395,16.4992809 L8.93282395,16.4992809 L8.93282395,13.3642375 L8.57744006,13.2254053 Z M15.7349462,13.9286962 L15.3795858,13.9286962 L15.3795858,16.4992306 C15.4370313,16.4867558 15.4964455,16.4801412 15.557266,16.4801412 C15.6180865,16.4801412 15.6775007,16.4867558 15.7349462,16.4992306 L15.7349462,16.4992306 L15.7349462,13.9286962 Z M9.28436409,13.5015607 L9.28436409,15.2232315 L15.0280456,15.2232315 L15.0280456,13.9286962 L10.9325879,13.9286962 C10.564407,13.9286962 10.2023669,13.8601855 9.85642833,13.7250253 L9.85642833,13.7250253 L9.28436409,13.5015607 Z M13.0613756,11.5954091 L12.7341871,11.5954091 C12.4407487,11.5954091 12.1895682,11.8069019 12.1185055,12.1111507 L12.1185055,12.1111507 L13.0613756,12.1111507 L13.0613756,11.5954091 Z M14.916389,11.5954091 L13.4129157,11.5954091 L13.4129157,12.1111507 L14.916389,12.1111507 L14.916389,11.5954091 Z M15.5951411,11.5954091 L15.2679526,11.5954091 L15.2679526,12.1111507 L16.2108227,12.1111507 C16.13976,11.8069019 15.8886029,11.5954091 15.5951411,11.5954091 L15.5951411,11.5954091 Z M8.10728238,10.3773824 C7.89936768,10.3773824 7.70052333,10.4944341 7.59116362,10.6971745 C7.5595229,10.7558512 7.57030418,10.8104787 7.57958546,10.8378176 C7.5888433,10.8651565 7.61324181,10.9145023 7.67258574,10.9376661 L7.67258574,10.9376661 L9.7246623,11.7391457 C9.78395936,11.7623347 9.83228763,11.741359 9.85574864,11.7267967 C9.87923309,11.7122595 9.9202254,11.6778533 9.93112387,11.611078 C9.98109277,11.3047416 9.81977197,11.0051959 9.54745083,10.8988585 L9.54745083,10.8988585 L8.31172831,10.4162152 C8.24450936,10.389983 8.17539196,10.3773824 8.10728238,10.3773824 Z" id="path-4"></path>
    </defs>
    <g id="1.-atom-/-Icons-/-bed" stroke="none" stroke-width="1" fill="none" fill-rule="evenodd">
        <g id="1.-atom-/-Hexagon" transform="translate(2.000000, 4.000000)" filter="url(#filter-1)">
            <g>
                <mask id="mask-3" fill="white">
                    <use xlink:href="#path-2"></use>
                </mask>
                <use id="Mask" fill="#A2DAF2" xlink:href="#path-2"></use>
                <g id="Group" mask="url(#mask-3)" fill="#DAE6FB">
                    <g id="4.-color-/-lightblue">
                        <rect id="Rectangle" x="0" y="0" width="20" height="20"></rect>
                    </g>
                </g>
            </g>
        </g>
        <mask id="mask-5" fill="white">
            <use xlink:href="#path-4"></use>
        </mask>
        <use id="Mask" fill="#000000" fill-rule="nonzero" xlink:href="#path-4"></use>
        <g id="Group" mask="url(#mask-5)" fill="#4D7CFF">
            <g id="4.-color-/-black">
                <rect id="Rectangle" x="0" y="0" width="24" height="24"></rect>
            </g>
        </g>
    </g>
</svg>