<?xml version="1.0" encoding="UTF-8"?>
<svg width="24px" height="24px" viewBox="0 0 24 24" version="1.1" xmlns="http://www.w3.org/2000/svg" xmlns:xlink="http://www.w3.org/1999/xlink">
    <title>1. atom / Icons / Calendar</title>
    <defs>
        <path d="M16.0625,4 C16.4076875,4 16.6875,4.2798125 16.6875,4.625 L16.6875,4.625 L16.6875,5.25 L17.5,5.25 C18.8785,5.25 20,6.3715 20,7.75 L20,7.75 L20,11.3125 C20,11.6576875 19.7201875,11.9375 19.375,11.9375 C19.0298125,11.9375 18.75,11.6576875 18.75,11.3125 L18.75,11.3125 L18.75,7.75 C18.75,7.06075 18.18925,6.5 17.5,6.5 L17.5,6.5 L16.6875,6.5 L16.6875,7.125 C16.6875,7.4701875 16.4076875,7.75 16.0625,7.75 C15.7173125,7.75 15.4375,7.4701875 15.4375,7.125 L15.4375,7.125 L15.4375,6.5 L12.59375,6.5 L12.59375,7.125 C12.59375,7.4701875 12.3139375,7.75 11.96875,7.75 C11.6235625,7.75 11.34375,7.4701875 11.34375,7.125 L11.34375,7.125 L11.34375,6.5 L8.53125,6.5 L8.53125,7.125 C8.53125,7.4701875 8.2514375,7.75 7.90625,7.75 C7.5610625,7.75 7.28125,7.4701875 7.28125,7.125 L7.28125,7.125 L7.28125,6.5 L6.5,6.5 C5.81075,6.5 5.25,7.06075 5.25,7.75 L5.25,7.75 L5.25,17.5 C5.25,18.18925 5.81075,18.75 6.5,18.75 L6.5,18.75 L11.28125,18.75 C11.6264375,18.75 11.90625,19.0298125 11.90625,19.375 C11.90625,19.7201875 11.6264375,20 11.28125,20 L11.28125,20 L6.5,20 C5.1215,20 4,18.8785 4,17.5 L4,17.5 L4,7.75 C4,6.3715 5.1215,5.25 6.5,5.25 L6.5,5.25 L7.28125,5.25 L7.28125,4.625 C7.28125,4.2798125 7.5610625,4 7.90625,4 C8.2514375,4 8.53125,4.2798125 8.53125,4.625 L8.53125,4.625 L8.53125,5.25 L11.34375,5.25 L11.34375,4.625 C11.34375,4.2798125 11.6235625,4 11.96875,4 C12.3139375,4 12.59375,4.2798125 12.59375,4.625 L12.59375,4.625 L12.59375,5.25 L15.4375,5.25 L15.4375,4.625 C15.4375,4.2798125 15.7173125,4 16.0625,4 Z M16,12 C18.2056198,12 20,13.7943802 20,16 C20,18.2056198 18.2056198,20 16,20 C13.7943802,20 12,18.2056198 12,16 C12,13.7943802 13.7943802,12 16,12 Z M16,13.322314 C14.5235372,13.322314 13.322314,14.5235041 13.322314,16 C13.322314,17.4764959 14.5235372,18.677686 16,18.677686 C17.4764628,18.677686 18.677686,17.4764959 18.677686,16 C18.677686,14.5235041 17.4764628,13.322314 16,13.322314 Z M16.5797101,14 C16.8998841,14 17.1594203,14.3316296 17.1594203,14.7407407 L17.1594203,14.7407407 L17.1594203,15.5185185 L17.4202899,15.5185185 C17.7404638,15.5185185 18,15.8501481 18,16.2592593 C18,16.6683704 17.7404638,17 17.4202899,17 L17.4202899,17 L16.5797101,17 C16.2595362,17 16,16.6683704 16,16.2592593 L16,16.2592593 L16,14.7407407 C16,14.3316296 16.2595362,14 16.5797101,14 Z M7.5,16 C7.77614237,16 8,16.2238576 8,16.5 C8,16.7761424 7.77614237,17 7.5,17 C7.22385763,17 7,16.7761424 7,16.5 C7,16.2238576 7.22385763,16 7.5,16 Z M10.5,16 C10.7761424,16 11,16.2238576 11,16.5 C11,16.7761424 10.7761424,17 10.5,17 C10.2238576,17 10,16.7761424 10,16.5 C10,16.2238576 10.2238576,16 10.5,16 Z M10.5,13 C10.7761424,13 11,13.2238576 11,13.5 C11,13.7761424 10.7761424,14 10.5,14 C10.2238576,14 10,13.7761424 10,13.5 C10,13.2238576 10.2238576,13 10.5,13 Z M7.5,13 C7.77614237,13 8,13.2238576 8,13.5 C8,13.7761424 7.77614237,14 7.5,14 C7.22385763,14 7,13.7761424 7,13.5 C7,13.2238576 7.22385763,13 7.5,13 Z M16.5,10 C16.7761424,10 17,10.2238576 17,10.5 C17,10.7761424 16.7761424,11 16.5,11 C16.2238576,11 16,10.7761424 16,10.5 C16,10.2238576 16.2238576,10 16.5,10 Z M13.5,10 C13.7761424,10 14,10.2238576 14,10.5 C14,10.7761424 13.7761424,11 13.5,11 C13.2238576,11 13,10.7761424 13,10.5 C13,10.2238576 13.2238576,10 13.5,10 Z M7.5,10 C7.77614237,10 8,10.2238576 8,10.5 C8,10.7761424 7.77614237,11 7.5,11 C7.22385763,11 7,10.7761424 7,10.5 C7,10.2238576 7.22385763,10 7.5,10 Z M10.5,10 C10.7761424,10 11,10.2238576 11,10.5 C11,10.7761424 10.7761424,11 10.5,11 C10.2238576,11 10,10.7761424 10,10.5 C10,10.2238576 10.2238576,10 10.5,10 Z" id="path-1"></path>
    </defs>
    <g id="1.-atom-/-Icons-/-Calendar" stroke="none" stroke-width="1" fill="none" fill-rule="evenodd">
        <mask id="mask-2" fill="white">
            <use xlink:href="#path-1"></use>
        </mask>
        <use id="Mask" fill="#000000" xlink:href="#path-1"></use>
        <g id="Group" mask="url(#mask-2)" fill="#000000">
            <g id="4.-color-/-black">
                <rect id="Rectangle" x="0" y="0" width="24" height="24"></rect>
            </g>
        </g>
    </g>
</svg>