<?xml version="1.0" encoding="UTF-8"?>
<svg width="80px" height="81px" viewBox="0 0 80 81" version="1.1" xmlns="http://www.w3.org/2000/svg" xmlns:xlink="http://www.w3.org/1999/xlink">
    <title>E3A27E0D-F298-4F82-87B8-52D976AA42F3</title>
    <defs>
        <filter id="filter-1">
            <feColorMatrix in="SourceGraphic" type="matrix" values="0 0 0 0 0.854968 0 0 0 0 0.900611 0 0 0 0 0.983639 0 0 0 1.000000 0"></feColorMatrix>
        </filter>
        <polygon id="path-2" points="29.3565753 66.5977389 0.533333333 49.9662448 0.533333333 16.7032565 29.3565753 0.0720165326 58.1795631 16.7032565 58.1795631 49.9662448"></polygon>
        <path d="M41.7283951,17 C43.0920525,17 44.1975309,18.1263365 44.1975309,19.5157233 L44.1975309,19.5157233 L44.1975309,28.3207547 C45.5611883,28.3207547 46.6666667,29.4470912 46.6666667,30.836478 L46.6666667,30.836478 L46.6666667,47.8176101 C46.6666667,49.2069969 45.5611883,50.3333333 44.1975309,50.3333333 L44.1975309,50.3333333 L16.4197531,50.3333333 C15.3969907,50.3333333 14.5679012,49.4886006 14.5679012,48.4465409 C14.5679012,47.4044811 15.3969907,46.5597484 16.4197531,46.5597484 L16.4197531,46.5597484 L19.8055556,46.5597484 L22.0104938,43.4150943 L15.8024691,43.4150943 C14.4388117,43.4150943 13.3333333,42.2887579 13.3333333,40.8993711 L13.3333333,40.8993711 L13.3333333,19.5157233 C13.3333333,18.1263365 14.4388117,17 15.8024691,17 L15.8024691,17 Z M31.8518519,47.8176101 L16.4197531,47.8176101 C16.078858,47.8176101 15.8024691,48.0992138 15.8024691,48.4465409 C15.8024691,48.7938679 16.078858,49.0754717 16.4197531,49.0754717 L16.4197531,49.0754717 L32.1950617,49.0754717 C31.9729167,48.6947327 31.8543981,48.2605346 31.8518519,47.8176101 L31.8518519,47.8176101 Z M45.4320988,45.3018868 L33.0864198,45.3018868 L33.0864198,47.8176101 C33.0864198,48.5123428 33.6391204,49.0754717 34.3209877,49.0754717 L34.3209877,49.0754717 L44.1975309,49.0754717 C44.8793981,49.0754717 45.4320988,48.5123428 45.4320988,47.8176101 L45.4320988,47.8176101 L45.4320988,45.3018868 Z M39.8765432,46.5597484 L39.8765432,47.8176101 L38.6419753,47.8176101 L38.6419753,46.5597484 L39.8765432,46.5597484 Z M31.8518519,43.4150943 L23.5277778,43.4150943 L21.3228395,46.5597484 L31.8518519,46.5597484 L31.8518519,43.4150943 Z M44.1975309,29.5786164 L34.3209877,29.5786164 C33.6391204,29.5786164 33.0864198,30.1417453 33.0864198,30.836478 L33.0864198,30.836478 L33.0864198,44.0440252 L45.4320988,44.0440252 L45.4320988,30.836478 C45.4320988,30.1417453 44.8793981,29.5786164 44.1975309,29.5786164 L44.1975309,29.5786164 Z M39.2592593,32.0943396 C41.9853395,32.0974843 44.1944444,34.3482704 44.1975309,37.1257862 C44.1975309,39.9045597 41.9865741,42.1572327 39.2592593,42.1572327 C36.5319444,42.1572327 34.3209877,39.9045597 34.3209877,37.1257862 C34.3209877,34.3470126 36.5319444,32.0943396 39.2592593,32.0943396 Z M31.8518519,38.3836478 L14.5679012,38.3836478 L14.5679012,40.8993711 C14.5679012,41.5941038 15.1206019,42.1572327 15.8024691,42.1572327 L15.8024691,42.1572327 L31.8518519,42.1572327 L31.8518519,38.3836478 Z M29.382716,39.6415094 L29.382716,40.8993711 L28.1481481,40.8993711 L28.1481481,39.6415094 L29.382716,39.6415094 Z M39.2592593,33.3522013 C37.2137346,33.3522013 35.5555556,35.0416667 35.5555556,37.1257862 C35.5555556,39.2099057 37.2137346,40.8993711 39.2592593,40.8993711 C41.3039352,40.897327 42.9609568,39.2090409 42.962963,37.1257862 C42.962963,35.0416667 41.304784,33.3522013 39.2592593,33.3522013 Z M40.6746914,34.7943396 L41.5475309,35.6836478 L40.1320988,37.1257862 L41.5475309,38.5679245 L40.6746914,39.4572327 L39.2592593,38.0150943 L37.8438272,39.4572327 L36.9709877,38.5679245 L38.3864198,37.1257862 L36.9709877,35.6836478 L37.8438272,34.7943396 L39.2592593,36.236478 L40.6746914,34.7943396 Z M41.7283951,18.2578616 L15.8024691,18.2578616 C15.1206019,18.2578616 14.5679012,18.8209906 14.5679012,19.5157233 L14.5679012,19.5157233 L14.5679012,37.1257862 L31.8518519,37.1257862 L31.8518519,30.836478 C31.8518519,29.4470912 32.9573302,28.3207547 34.3209877,28.3207547 L34.3209877,28.3207547 L42.962963,28.3207547 L42.962963,19.5157233 C42.962963,18.8209906 42.4102623,18.2578616 41.7283951,18.2578616 L41.7283951,18.2578616 Z M30,33.9811321 L30,35.2389937 L16.4197531,35.2389937 L16.4197531,33.9811321 L30,33.9811321 Z M18.8888889,31.4654088 L18.8888889,32.7232704 L17.654321,32.7232704 L17.654321,31.4654088 L18.8888889,31.4654088 Z M30,31.4654088 L30,32.7232704 L20.1234568,32.7232704 L20.1234568,31.4654088 L30,31.4654088 Z M21.3580247,20.1446541 C24.0853395,20.1446541 26.2962963,22.397327 26.2962963,25.1761006 C26.2962963,27.9548742 24.0853395,30.2075472 21.3580247,30.2075472 C18.6319444,30.2044025 16.4228395,27.9536164 16.4197531,25.1761006 C16.4197531,22.397327 18.6307099,20.1446541 21.3580247,20.1446541 Z M21.3580247,21.4025157 C19.3133488,21.4045597 17.6563272,23.0928459 17.654321,25.1761006 C17.654321,27.2602201 19.3125,28.9496855 21.3580247,28.9496855 C23.4035494,28.9496855 25.0617284,27.2602201 25.0617284,25.1761006 C25.0617284,23.0919811 23.4035494,21.4025157 21.3580247,21.4025157 Z M22.7734568,22.8446541 L23.6462963,23.7339623 L22.2308642,25.1761006 L23.6462963,26.618239 L22.7734568,27.5075472 L21.3580247,26.0654088 L19.9425926,27.5075472 L19.0697531,26.618239 L20.4851852,25.1761006 L19.0697531,23.7339623 L19.9425926,22.8446541 L21.3580247,24.2867925 L22.7734568,22.8446541 Z M41.1111111,25.1761006 L41.1111111,26.4339623 L27.5308642,26.4339623 L27.5308642,25.1761006 L41.1111111,25.1761006 Z M41.1111111,22.6603774 L41.1111111,23.918239 L27.5308642,23.918239 L27.5308642,22.6603774 L41.1111111,22.6603774 Z M30,20.1446541 L30,21.4025157 L28.7654321,21.4025157 L28.7654321,20.1446541 L30,20.1446541 Z M41.1111111,20.1446541 L41.1111111,21.4025157 L31.2345679,21.4025157 L31.2345679,20.1446541 L41.1111111,20.1446541 Z" id="path-4"></path>
    </defs>
    <g id="🛡-Versicherungen" stroke="none" stroke-width="1" fill="none" fill-rule="evenodd">
        <g id="Versicherungen" transform="translate(-80.000000, -7453.000000)">
            <rect id="Rectangle-Copy" fill-opacity="0.3" fill="#DAE6FB" x="0" y="6698" width="1440" height="1888"></rect>
            <g id="3.-organism-/-gut-zu-wissen-4er" transform="translate(0.000000, 6992.500000)">
                <g id="2.-molecule/icon/text" transform="translate(80.000000, 461.000000)">
                    <g id="1.-atom-/-Icons-/-offer" transform="translate(10.000000, 13.000000)">
                        <g filter="url(#filter-1)" id="1.-atom-/-Hexagon">
                            <g transform="translate(0.666667, 0.333333)">
                                <mask id="mask-3" fill="white">
                                    <use xlink:href="#path-2"></use>
                                </mask>
                                <use id="Mask" fill="#A2DAF2" xlink:href="#path-2"></use>
                                <g id="4.-color-/-lightblue" mask="url(#mask-3)" fill="#DAE6FB">
                                    <g transform="translate(-4.000000, 0.000000)" id="Rectangle">
                                        <rect x="0" y="0" width="66.6666667" height="66.6666667"></rect>
                                    </g>
                                </g>
                            </g>
                        </g>
                        <mask id="mask-5" fill="white">
                            <use xlink:href="#path-4"></use>
                        </mask>
                        <use id="Mask" fill="#000000" fill-rule="nonzero" xlink:href="#path-4"></use>
                        <g id="4.-color-/-black" mask="url(#mask-5)" fill="#4D7CFF">
                            <g transform="translate(-10.000000, -13.000000)" id="Rectangle">
                                <rect x="0" y="0" width="80" height="80"></rect>
                            </g>
                        </g>
                    </g>
                </g>
            </g>
        </g>
    </g>
</svg>