<?xml version="1.0" encoding="UTF-8"?>
<svg width="24px" height="24px" viewBox="0 0 24 24" version="1.1" xmlns="http://www.w3.org/2000/svg" xmlns:xlink="http://www.w3.org/1999/xlink">
    <title>1. atom / Icons / carinsurance4</title>
    <defs>
        <filter id="filter-1">
            <feColorMatrix in="SourceGraphic" type="matrix" values="0 0 0 0 0.854968 0 0 0 0 0.900611 0 0 0 0 0.983639 0 0 0 1.000000 0"></feColorMatrix>
        </filter>
        <polygon id="path-2" points="10.0069726 19.9793217 1.36 14.9898734 1.36 5.01097696 10.0069726 0.0216049598 18.6538689 5.01097696 18.6538689 14.9898734"></polygon>
        <path d="M16.5484641,9.03577461 C16.6830144,9.03493488 16.7861072,9.07201211 16.7959901,9.2249072 C16.8037415,9.34563426 16.7142135,9.41642979 16.5525336,9.41791546 C16.2579828,9.42049924 15.9633029,9.418626 15.6569313,9.418626 L15.6569313,17.5216787 L15.8354058,17.5216787 L15.8354058,17.5216787 C16.3144384,17.5211619 16.7934063,17.5201284 17.2724389,17.5201284 C17.4777847,17.520193 17.5660207,17.5784572 17.5678574,17.7118448 C17.5697026,17.8460721 17.4777847,17.9122814 17.2787046,17.9124106 L6.3316868,17.9126044 L6.3316868,17.9126044 C6.09572322,17.9125398 6.00522637,17.8600245 6.00018801,17.7221153 C5.99495585,17.5778758 6.08823026,17.5218078 6.3351749,17.5217433 L11.1205266,17.5217433 C11.0220201,17.3921668 10.9512891,17.2788035 10.8589837,17.1870793 C10.8186121,17.1469662 10.7342517,17.1374062 10.6697219,17.137277 C9.3565164,17.134564 8.04331093,17.1352746 6.73010546,17.13521 C6.41494907,17.13521 6.38575237,17.1063362 6.38562318,16.7980269 L6.38581696,16.3943761 L6.38581696,16.3943761 C6.38530021,16.2489093 6.45803357,16.1743673 6.6024668,16.1722357 C6.74780434,16.1701687 6.89320648,16.168683 7.03841484,16.1719127 C7.11902873,16.173786 7.15494326,16.1467855 7.15468488,16.0610686 C7.1521011,15.3506587 7.15248867,14.6402488 7.15132597,13.9297742 C7.15132597,13.9145945 7.14351004,13.8993503 7.13233519,13.8583328 C6.97369119,13.8583328 6.80949206,13.8596247 6.64535752,13.8580098 C6.47082328,13.8563303 6.38672128,13.7910899 6.3877548,13.6620302 C6.3888529,13.5338748 6.47256733,13.4714765 6.64923319,13.47012 L7.14447895,13.4698617 L7.14447895,13.4698617 C7.14816084,13.4023604 7.15339299,13.3501035 7.15345758,13.297782 C7.15410353,12.7703682 7.14816084,12.2428252 7.15752703,11.7156052 C7.16011081,11.5672317 7.11114821,11.5287334 6.97330362,11.5395207 C6.83972227,11.5499204 6.70420308,11.5444944 6.57004038,11.5372599 C6.45764601,11.531188 6.38988641,11.4649141 6.38872371,11.3503881 C6.38749642,11.2352807 6.45461007,11.161643 6.56719822,11.1629349 C7.39310305,11.1725595 8.22320652,11.0923332 9.03496516,11.3432181 C9.91622744,11.6154838 10.6168836,12.1273303 11.172073,12.854664 C11.3057836,13.0298442 11.4464703,13.2010195 11.5982673,13.3605032 C11.6525913,13.4175401 11.7487078,13.4641773 11.8262858,13.4650817 C12.4881853,13.4727684 13.1502139,13.4676654 13.812178,13.4687635 C14.5557895,13.4699262 15.0604014,13.9694998 15.0656982,14.7113027 C15.0686695,15.1256762 15.0642771,15.5401143 15.0650522,15.9545523 C15.0653752,16.1171366 15.0001994,16.2475528 14.9148701,16.3858496 C14.8155238,16.5468836 14.7542883,16.7351119 14.6986078,16.9183018 C14.6492577,17.0804339 14.5586962,17.1432197 14.393076,17.1373416 C14.1564665,17.1289443 13.9193402,17.1405713 13.6827953,17.1329492 C13.5645228,17.1291381 13.4797103,17.1537486 13.4175058,17.2647865 C13.3713208,17.3472736 13.298329,17.4146456 13.2216554,17.5077263 L15.2516657,17.5077263 C15.2539911,17.4584407 15.2585127,17.4070235 15.2585773,17.3556063 L15.2579959,9.37948176 L15.2579959,9.37948176 C15.2579959,9.0639378 15.2861591,9.03538693 15.5958896,9.03538693 L16.5484641,9.03577461 L16.5484641,9.03577461 Z M12.2027423,15.2124265 C11.5533742,15.1998306 11.0256374,15.7008253 11.0145271,16.3404397 C11.0033523,16.9843819 11.5091915,17.5079846 12.1523586,17.5183197 C12.7950736,17.5286549 13.3180949,17.0180356 13.3245544,16.3737704 C13.33082,15.7446203 12.8284689,15.2245057 12.2027423,15.2124265 Z M12.1980528,15.4037424 C12.7277274,15.4163383 13.1522422,15.8645593 13.1361582,16.3941048 C13.1202033,16.9188702 12.6797983,17.3386696 12.1574874,17.326978 C11.6125685,17.3147697 11.1952237,16.8799843 11.2058818,16.3355176 C11.2162169,15.8073932 11.6596579,15.3909527 12.1980528,15.4037424 Z M12.1747987,15.7883911 C11.8510513,15.7864 11.5884748,16.0498809 11.593061,16.3721426 C11.5975826,16.6883971 11.8591256,16.9453539 12.1740236,16.9428993 C12.4865316,16.9405093 12.7489144,16.6766409 12.748979,16.3647789 C12.7490435,16.0514311 12.4889862,15.7903403 12.1747987,15.7883911 Z M13.8441523,16.5598025 C13.7158031,16.553666 13.6662591,16.6010783 13.6922261,16.7552653 C13.8599779,16.7552653 14.0252751,16.7477724 14.1896035,16.7575907 C14.3249935,16.765665 14.3916549,16.7190278 14.3846787,16.5619987 C14.2047832,16.5619987 14.0241124,16.5685227 13.8441523,16.5598025 Z M10.488922,16.5607029 C9.29515166,16.5645825 8.10138136,16.5623217 6.90761105,16.5625154 C6.86594762,16.5625154 6.8242196,16.5691687 6.77822834,16.5729797 L6.77822834,16.745124 L10.6480827,16.745124 C10.6805092,16.5986883 10.6238598,16.5602546 10.488922,16.5607029 Z M17.7647456,13.981495 C17.8403857,13.9766504 17.9582706,14.0247733 17.9881133,14.0832959 C18.0184727,14.1426582 17.9860462,14.2600264 17.9419928,14.3260419 C17.8478141,14.46731 17.7284435,14.5917835 17.6121089,14.7318889 C17.7090652,14.8141177 17.7964615,14.8843319 17.8793362,14.9595198 C18.0300351,15.0961371 18.002647,15.247482 17.8131269,15.3162751 C17.6920122,15.3601993 17.5696057,15.4052862 17.4439049,15.4298321 C17.3182687,15.4544426 17.2786723,15.522396 17.2748612,15.6404101 C17.2709855,15.7636563 17.2687893,15.8915534 17.2338437,16.0078234 C17.2113648,16.0824946 17.141086,16.1751231 17.073714,16.1941784 C17.0172585,16.2101333 16.9032492,16.1498666 16.8673993,16.0912149 C16.5339627,15.5451978 16.2098922,14.9934319 15.887695,14.4406325 C15.785765,14.2657753 15.8577878,14.1320647 16.0601623,14.1147534 C16.6280768,14.0660492 17.1960559,14.0175387 17.7647456,13.981495 Z M13.8320731,13.8582678 C13.1434315,13.8587849 12.4548545,13.8582678 11.7662129,13.8587849 C11.713956,13.8588495 11.6616991,13.8642109 11.5918079,13.8680219 C11.5918079,14.1138685 11.5889011,14.3491215 11.5930352,14.5842454 C11.5951022,14.702324 11.5431682,14.7722799 11.4393649,14.8231157 C11.31431,14.8842867 11.1870589,14.9470079 11.0759565,15.0294304 C10.7014378,15.3073804 10.5047476,15.6864853 10.4564955,16.1515009 C10.5776102,16.1894824 10.6370371,16.1777908 10.6664276,16.039817 C10.7608647,15.596699 11.0079385,15.2524105 11.4035796,15.0282677 C12.3141032,14.5126101 13.4310061,15.0057242 13.6767234,16.0283192 C13.6948745,16.1037656 13.6973936,16.1743673 13.8075272,16.171396 C14.0332849,16.1653887 14.2602052,16.1808268 14.4848002,16.1638384 C14.549653,16.1589292 14.6593344,16.0761837 14.661789,16.0248957 C14.6779376,15.6940429 14.6700571,15.3620273 14.6700571,15.0156072 C14.4791158,15.0156072 14.3074238,15.0179972 14.1359255,15.0150904 C13.7743902,15.0090186 13.5299002,14.7664018 13.5202756,14.4075795 C13.5116845,14.0882891 13.5500537,14.0499845 13.8784519,14.04992 L14.3439196,14.04992 L14.3439196,14.04992 C14.1943834,13.8920511 14.0189449,13.858139 13.8320731,13.8582678 Z M11.2030138,13.8707349 L7.55407245,13.8707349 L7.55407245,16.1506611 C7.57771403,16.1586063 7.59263535,16.168037 7.60749208,16.168037 C8.39270239,16.1693935 9.17784811,16.1716543 9.96299383,16.1656471 C10.0001357,16.1653887 10.0627277,16.0949161 10.0697039,16.0502813 C10.1746699,15.3790157 10.5083003,14.8704634 11.1126461,14.5461992 C11.1498525,14.5263041 11.1973941,14.4816694 11.1989443,14.4467237 C11.2074062,14.2559763 11.2030138,14.0646475 11.2030138,13.8707349 Z M17.3559272,14.3963207 C17.0186149,14.4240317 16.7025542,14.4500633 16.3566509,14.4784203 C16.5394532,14.7863421 16.709595,15.0730769 16.9038952,15.4004416 C16.9312186,15.088515 17.1872711,15.1388987 17.321563,15.0516961 C17.260715,14.9440172 17.1524547,14.8387282 17.1585911,14.7406092 C17.1654382,14.6304756 17.2758301,14.5269307 17.3559272,14.3963207 Z M13.9157875,14.437293 C13.9356826,14.5686135 14.0095787,14.6207412 14.1139633,14.6242939 C14.2896603,14.6303658 14.4657448,14.6259734 14.6415709,14.6259734 L14.6800046,14.5695824 C14.6199964,14.5254644 14.5628949,14.4490491 14.4993985,14.4433648 C14.3103951,14.4264411 14.1188725,14.437293 13.9157875,14.437293 Z M8.33354678,14.0615986 C8.39878719,14.0746467 8.47830298,14.1721844 8.49328889,14.2435612 C8.51615533,14.3522091 8.43030929,14.4199687 8.32024032,14.4319187 C8.25125343,14.4394762 8.18078087,14.4334044 8.11095426,14.4334044 L8.11095426,14.4323063 C8.04119223,14.4323063 7.95792997,14.4562062 7.9050271,14.4263636 C7.83668616,14.3878653 7.75000035,14.3064117 7.75000035,14.2433675 C7.74993579,14.1800003 7.83804264,14.0745821 7.90237873,14.0616632 C8.04164439,14.0336938 8.19428112,14.0336938 8.33354678,14.0615986 Z M14.5068333,10.4866309 C14.6435152,10.5071719 14.6670922,10.6129131 14.6787192,10.7244031 C14.758235,11.4830005 14.8370402,12.2416625 14.9164268,13.0002599 C14.9242428,13.0749957 14.9498222,13.1517339 14.9394871,13.223563 C14.9276663,13.3065668 14.9070606,13.4203177 14.8498299,13.4559738 C14.7932452,13.4911778 14.6692238,13.4725746 14.604371,13.4312342 C14.224168,13.1884236 13.8526852,12.9319835 13.4781665,12.6802589 C13.2909717,12.5544289 13.0978989,12.436221 12.919166,12.2992162 C12.8510188,12.2468947 12.7716968,12.1474838 12.7782209,12.0770758 C12.7847449,12.0080889 12.8835744,11.9280564 12.9603772,11.8894935 C13.102808,11.8178582 13.2587391,11.7729005 13.4241009,11.7112773 C13.3535638,11.5191734 13.2798615,11.3512924 13.2334181,11.1761768 C13.2147503,11.105575 13.231351,10.9962812 13.2772777,10.9469956 C13.3166803,10.9047509 13.428235,10.8987436 13.4950902,10.918897 C13.6737585,10.9728334 13.8455152,11.0494425 14.0330329,11.1221112 C14.1154555,10.9598499 14.1959402,10.8031438 14.2746162,10.6455979 C14.3229975,10.5489 14.3815201,10.4677693 14.5068333,10.4866309 Z M7.55568732,11.5604493 L7.55568732,13.4613998 L9.64609339,13.4613998 C9.65843093,13.4275523 9.67206036,13.398291 9.67994089,13.3674794 C9.73988455,13.1330661 9.79659849,12.8978131 9.85893215,12.6640457 C9.88967912,12.5487446 9.96945328,12.4907388 10.0895344,12.5174809 C10.2108428,12.5444814 10.2519249,12.6319423 10.2336446,12.7495042 C10.2247306,12.8066057 10.2103906,12.8629321 10.1963736,12.9300457 C10.422648,13.0052337 10.640073,13.0775149 10.8930895,13.1616169 C10.1534183,12.0381899 8.81863829,11.4700816 7.55568732,11.5604493 Z M14.3611728,11.4186644 C14.1631908,11.717866 13.9574574,11.465883 13.7417119,11.4473444 C13.775947,11.5382288 13.8032058,11.6112205 13.8307877,11.6840831 C13.9035856,11.8762516 13.8690276,11.9548631 13.6753088,12.0320535 C13.5870727,12.0672574 13.4978678,12.0997485 13.3773991,12.1454813 C13.7634802,12.4046989 14.1222379,12.6455071 14.5181374,12.9111841 C14.4630383,12.3877106 14.4121378,11.9031875 14.3611728,11.4186644 Z" id="path-4"></path>
    </defs>
    <g id="1.-atom-/-Icons-/-carinsurance4" stroke="none" stroke-width="1" fill="none" fill-rule="evenodd">
        <g id="1.-atom-/-Hexagon" transform="translate(2.000000, 4.000000)" filter="url(#filter-1)">
            <g>
                <mask id="mask-3" fill="white">
                    <use xlink:href="#path-2"></use>
                </mask>
                <use id="Mask" fill="#A2DAF2" xlink:href="#path-2"></use>
                <g id="Group" mask="url(#mask-3)" fill="#DAE6FB">
                    <g id="4.-color-/-lightblue">
                        <rect id="Rectangle" x="0" y="0" width="20" height="20"></rect>
                    </g>
                </g>
            </g>
        </g>
        <mask id="mask-5" fill="white">
            <use xlink:href="#path-4"></use>
        </mask>
        <use id="Mask" fill="#000000" xlink:href="#path-4"></use>
        <g id="Group" mask="url(#mask-5)" fill="#4D7CFF">
            <g id="4.-color-/-black">
                <rect id="Rectangle" x="0" y="0" width="24" height="24"></rect>
            </g>
        </g>
    </g>
</svg>