<?xml version="1.0" encoding="UTF-8"?>
<svg width="24px" height="24px" viewBox="0 0 24 24" version="1.1" xmlns="http://www.w3.org/2000/svg" xmlns:xlink="http://www.w3.org/1999/xlink">
    <title>1. atom / Icons / carinsurance1</title>
    <defs>
        <filter id="filter-1">
            <feColorMatrix in="SourceGraphic" type="matrix" values="0 0 0 0 0.854968 0 0 0 0 0.900611 0 0 0 0 0.983639 0 0 0 1.000000 0"></feColorMatrix>
        </filter>
        <polygon id="path-2" points="10.0069726 19.9793217 1.36 14.9898734 1.36 5.01097696 10.0069726 0.0216049598 18.6538689 5.01097696 18.6538689 14.9898734"></polygon>
        <path d="M2.897,3.3918 L5.694,3.4032 C5.94785452,3.40407369 6.18370834,3.5220006 6.3348,3.722 L6.3348,3.722 L7.3,5 L8.2,5 C8.6418278,5 9,5.3581722 9,5.8 L9,5.8 L9,7 C9,7.11045695 8.91045695,7.2 8.8,7.2 L8.8,7.2 L8.18,7.2 C8.08521906,7.66434382 7.67751562,7.99839006 7.2036,8.00000002 L7.2036,8.00000002 C6.72473138,8.000097 6.31505372,7.66566625 6.22,7.2 L6.22,7.2 L2.78,7.2 C2.68521906,7.66434382 2.27751562,7.99839006 1.8036,8.00000002 L1.8036,8.00000002 C1.32473138,8.000097 0.915053716,7.66566625 0.82,7.2 L0.82,7.2 L0.2,7.2 C0.08954305,7.2 0,7.11045695 0,7 L0,7 L0,5.8 C0,5.3581722 0.3581722,5 0.8,5 L0.8,5 L1.3,5 L2.2604,3.7118 C2.41131371,3.51196757 2.64659166,3.3937003 2.897,3.3918 L2.897,3.3918 Z M1.8,6.39999897 C1.46642916,6.40060752 1.1982925,6.66972916 1.19889898,7.0011 C1.19950753,7.33247084 1.46862916,7.60060751 1.8,7.60000103 L1.8,7.60000103 C2.13357084,7.59939248 2.4017075,7.33027084 2.40110101,6.9989 C2.40049247,6.66752916 2.13137084,6.3993925 1.8,6.39999897 L1.8,6.39999897 Z M7.2,6.39999897 C6.86642916,6.40060752 6.5982925,6.66972916 6.59889898,7.0011 C6.59950753,7.33247084 6.86862916,7.60060751 7.2,7.60000103 L7.2,7.60000103 C7.53357084,7.59939248 7.8017075,7.33027084 7.80110102,6.9989 C7.80049247,6.66752916 7.53137084,6.39939249 7.2,6.39999897 L7.2,6.39999897 Z M4.0062,5.4 L0.8,5.4 C0.5790861,5.4 0.4,5.5790861 0.4,5.8 L0.4,5.8 L0.4,6.8 L0.82,6.8 C0.914780936,6.33565618 1.32248438,6.00160994 1.7964,6 C2.06141153,6.00019938 2.31574062,6.10448795 2.5046,6.2904 C2.64507462,6.42906975 2.74096693,6.60650882 2.78,6.8 L2.78,6.8 L4.0106,6.8 L4.0062,5.4 Z M8.2,5.4 L4.4056,5.4 L4.41,6.8 L6.22,6.8 C6.25856345,6.6088737 6.35261723,6.43335765 6.4904,6.2954 C6.87954061,5.90350058 7.51269798,5.90126201 7.9046,6.2904 C8.04507462,6.42906975 8.14096693,6.60650882 8.18,6.8 L8.18,6.8 L8.6,6.8 L8.6,5.8 C8.6,5.5790861 8.4209139,5.4 8.2,5.4 L8.2,5.4 Z M8.2504,0.6944 C8.39113285,0.60057466 8.56667641,0.575227323 8.72820284,0.625408408 C8.88972927,0.675589493 9.02000738,0.795945819 9.0828,0.953 L9.0828,0.953 L9.54,1.885 C9.6619106,2.17709341 9.53866491,2.51381982 9.257,2.6582 L9.257,2.6582 L8.4882,3.072 L8.707,3.4 L10.1892,3.4 C10.3708958,3.40010549 10.5471766,3.46187428 10.6892,3.5752 L10.6892,3.5752 L11.425,4.1638 L11.7106,4.021 C11.7848713,3.98391933 11.8743278,3.99657377 11.9354,4.0528 C11.9966119,4.10901944 12.0166757,4.19723647 11.9858,4.2744 L11.9858,4.2744 L11.5858,5.2744 C11.5639983,5.32883769 11.5194039,5.37096453 11.4638146,5.38963545 C11.4082253,5.40830637 11.3472426,5.40164001 11.297,5.3714 L11.297,5.3714 L10.6,4.9532 L10.6,5.5172 L10.9414,5.8586 C10.9985816,5.91579885 11.0156844,6.00180732 10.9847356,6.07653091 C10.9537868,6.1512545 10.8808792,6.2 10.8,6.2 L10.8,6.2 L9.6,6.2 C9.48954305,6.2 9.4,6.11045695 9.4,6 L9.4,6 L9.4,4.6 L8.121,4.6 C7.85353926,4.59999543 7.60377385,4.46633191 7.4554,4.2438 L7.4554,4.2438 L6.8708,3.3058 C6.7798806,3.1663115 6.75101275,2.99531463 6.79110119,2.83370926 C6.83118964,2.67210389 6.93662908,2.53442381 7.0822,2.4536 L7.0822,2.4536 L8.24,1.8262 L8.0356,1.3554 C7.9477116,1.11186971 8.0361421,0.839744173 8.2504,0.6944 Z M8.608,1.0072 C8.56166377,0.992740361 8.51126874,1.0000973 8.471,1.0272 C8.41049571,1.06755369 8.3844532,1.14338816 8.4074,1.2124 L8.4074,1.2124 L8.679,1.835 C8.72036898,1.93017931 8.68206313,2.04118811 8.5908,2.0906 L8.5908,2.0906 L7.2734,2.8042 C7.22517252,2.83166296 7.19052497,2.87793071 7.17774384,2.93193762 C7.16496271,2.98594453 7.17519736,3.04283399 7.206,3.089 L7.206,3.089 L7.7906,4.027 C7.86490788,4.13573396 7.9883017,4.20054006 8.12,4.2 L8.12,4.2 L9.6,4.2 C9.71045695,4.2 9.8,4.28954305 9.8,4.4 L9.8,4.4 L9.8,5.8 L10.3172,5.8 L10.2586,5.7414 C10.2210901,5.70390145 10.2000113,5.65303896 10.2,5.6 L10.2,5.6 L10.2,4 C10.2,3.88954305 10.1104569,3.8 10,3.8 L10,3.8 L8.6,3.8 C8.53259958,3.80012363 8.46967018,3.76629061 8.4326,3.71 L8.4326,3.71 L8.0326,3.11 C8.00137717,3.06314799 7.99134864,3.00530563 8.00497714,2.95067743 C8.01860564,2.89604923 8.05462868,2.8496957 8.1042,2.823 L8.1042,2.823 L9.0716,2.303 C9.16710502,2.2572758 9.21135818,2.14577178 9.1732,2.047 L9.1732,2.047 L8.716,1.115 C8.69891748,1.06410582 8.65892575,1.02418815 8.608,1.0072 Z M4.4,3.798 L4.4048,5 L6.7984,5 L6.0154,3.9632 C5.93965243,3.86272459 5.82122887,3.80351281 5.6954,3.8032 L5.6954,3.8032 L5.6938,3.8032 L4.4,3.798 Z M2.8966,3.791 C2.7719843,3.79243013 2.65506345,3.85151836 2.58,3.951 L2.58,3.951 L1.7986,5 L4.0048,5 L4,3.7964 Z M10.6,4.016 L10.6,4.4868 L11.3016,4.9078 L11.4252,4.5982 C11.3715005,4.60483862 11.3173845,4.58963425 11.275,4.556 L11.275,4.556 L10.6,4.016 Z M4.57005076,0.00256326957 C4.64049233,-0.00785878715 4.71116257,0.0199587508 4.7556,0.0756 L4.7556,0.0756 L5.5556,1.0756 L5.2432,1.3256 L4.6576,0.5936 L4.3852,1.275 C4.34584764,1.37332831 4.2366628,1.42393044 4.1362,1.3904 L4.1362,1.3904 L3.3162,1.1168 L3.5898,1.9368 C3.62333044,2.0372628 3.57272831,2.14644764 3.4744,2.1858 L3.4744,2.1858 L2.8486,2.436 L3.503,2.8286 L3.297,3.1714 L2.297,2.5714 C2.23083951,2.53331119 2.19345812,2.46067366 2.19952268,2.38493037 C2.20558723,2.30918708 2.25405006,2.24342286 2.3246,2.2152 L2.3246,2.2152 L3.1496,1.8854 L2.8096,0.8642 C2.78563104,0.792326812 2.80433278,0.71308003 2.85790641,0.659506407 C2.91148003,0.605932784 2.99072681,0.587231039 3.0626,0.6112 L3.0626,0.6112 L4.0838,0.9512 L4.4136,0.1262 C4.44002171,0.0600749129 4.4996092,0.0129853263 4.57005076,0.00256326957 Z M6.6,0.64 C7.0418278,0.64 7.4,0.9981722 7.4,1.44 C7.4,1.8818278 7.0418278,2.24 6.6,2.24 C6.1581722,2.24 5.8,1.8818278 5.8,1.44 C5.8,0.9981722 6.1581722,0.64 6.6,0.64 Z M6.6,1.04 C6.3790861,1.04 6.2,1.2190861 6.2,1.44 C6.2,1.6609139 6.3790861,1.84 6.6,1.84 C6.8209139,1.84 7,1.6609139 7,1.44 C7,1.2190861 6.8209139,1.04 6.6,1.04 Z" id="path-4"></path>
    </defs>
    <g id="1.-atom-/-Icons-/-carinsurance1" stroke="none" stroke-width="1" fill="none" fill-rule="evenodd">
        <g id="1.-atom-/-Hexagon" transform="translate(2.000000, 4.000000)" filter="url(#filter-1)">
            <g>
                <mask id="mask-3" fill="white">
                    <use xlink:href="#path-2"></use>
                </mask>
                <use id="Mask" fill="#A2DAF2" xlink:href="#path-2"></use>
                <g id="Group" mask="url(#mask-3)" fill="#DAE6FB">
                    <g id="4.-color-/-lightblue">
                        <rect id="Rectangle" x="0" y="0" width="20" height="20"></rect>
                    </g>
                </g>
            </g>
        </g>
        <g id="4.-color-/-black" transform="translate(6.000000, 10.000000)">
            <mask id="mask-5" fill="white">
                <use xlink:href="#path-4"></use>
            </mask>
            <use id="Mask" fill="#000000" fill-rule="nonzero" xlink:href="#path-4"></use>
            <g id="Group" mask="url(#mask-5)">
                <g transform="translate(-6.000000, -10.000000)" id="4.-color-/-black">
                    <rect id="Rectangle" fill="#4D7CFF" x="0" y="0" width="24" height="24"></rect>
                </g>
            </g>
        </g>
    </g>
</svg>