<?xml version="1.0" encoding="UTF-8"?>
<svg width="24px" height="24px" viewBox="0 0 24 24" version="1.1" xmlns="http://www.w3.org/2000/svg" xmlns:xlink="http://www.w3.org/1999/xlink">
    <title>1. atom / Icons / carinsurance2</title>
    <defs>
        <filter id="filter-1">
            <feColorMatrix in="SourceGraphic" type="matrix" values="0 0 0 0 0.854968 0 0 0 0 0.900611 0 0 0 0 0.983639 0 0 0 1.000000 0"></feColorMatrix>
        </filter>
        <polygon id="path-2" points="10.0069726 19.9793217 1.36 14.9898734 1.36 5.01097696 10.0069726 0.0216049598 18.6538689 5.01097696 18.6538689 14.9898734"></polygon>
        <path d="M18,16.3654297 L18,14.6345703 C18,14.5954102 17.9953692,14.555957 17.9861076,14.5179687 L17.6210308,13.0085937 C17.6049647,12.9429688 17.5765184,12.8828125 17.5368259,12.8301758 L16.3343309,11.2326172 C16.203251,11.058789 15.9826739,10.9786133 15.7773122,11.0114258 C14.9338458,9.79501953 13.5553805,9 12,9 C10.4448085,9 9.06681578,9.7946289 8.22325478,11.0108398 C8.01789315,10.9782226 7.79693802,11.058789 7.6656691,11.2326172 L6.46355216,12.8297851 C6.4234816,12.8828125 6.39503528,12.9427735 6.37896924,13.0089844 L6.0138924,14.5179687 C6.00463079,14.555957 6,14.5954101 6,14.6345703 L6,16.3654297 C6,16.4045899 6.00463079,16.444043 6.0138924,16.4820312 L6.33275579,17.8 L6,17.8 L6,19 L9.09677419,19 L9.09677419,17.8 L8.70967742,17.8 L8.70967742,17.1862305 C9.57875504,18.0887695 10.7548828,18.6 12,18.6 C13.2464403,18.6 14.421245,18.0896484 15.2903226,17.1868164 L15.2903226,17.8 L14.9032258,17.8 L14.9032258,19 L18,19 L18,17.8 L17.6672442,17.8 L17.9861076,16.4820312 C17.9953692,16.444043 18,16.4045899 18,16.3654297 Z M12,9.4 C14.3479083,9.4 16.2580645,11.3738281 16.2580645,13.8 C16.2580645,14.2492187 16.1926663,14.687207 16.0656502,15.1080078 L15.7641759,14.0694336 C15.7167339,13.9057617 15.6125882,13.775 15.4786731,13.6929687 C15.4232926,11.7578125 13.8861517,10.2 12,10.2 C10.1138483,10.2 8.5767074,11.7578125 8.52132687,13.6929687 C8.38741181,13.775 8.28326613,13.9057617 8.23582408,14.0694336 L7.9343498,15.1080078 C7.80733367,14.6870117 7.74193548,14.249414 7.74193548,13.8 C7.74193548,11.3738281 9.65209173,9.4 12,9.4 L12,9.4 Z M16.6294733,14.7601562 C16.633537,14.7769531 16.632403,14.7944336 16.6261656,14.8103516 L16.3402848,15.5486328 C16.335276,15.5616211 16.3254473,15.5698242 16.3153352,15.5774414 C16.4407447,15.2532226 16.531187,14.9185547 16.5847719,14.5757812 L16.6294733,14.7601562 Z M14.5488281,14.5339844 L14.7715789,15.2248047 C14.368038,16.0610352 13.6306074,16.6650391 12.7741935,16.8954102 L12.7741935,15.4 C12.7741935,14.6282227 13.381962,14 14.1290323,14 L14.5676348,14 C14.5347467,14.0795899 14.516129,14.1669922 14.516129,14.2587891 L14.516129,14.325586 C14.516129,14.3963867 14.5271862,14.4666016 14.5488281,14.5339844 Z M9.43236518,14 L9.87096774,14 C10.618038,14 11.2258065,14.6282226 11.2258065,15.4 L11.2258065,16.8980469 C10.3732674,16.6725586 9.6452873,16.080957 9.234564,15.2416015 L9.2204826,15.2490234 L9.45117189,14.5339844 C9.47281377,14.4666016 9.48387097,14.3963867 9.48387097,14.3255859 L9.48387097,14.258789 C9.48387097,14.1669922 9.46525328,14.0795898 9.43236518,14 Z M13.5276903,13.712793 C13.484879,13.383789 13.3705267,13.0725586 13.1899257,12.8 L14.9397997,12.8 C15.0208858,13.0541992 15.070218,13.3223633 15.0871346,13.6 L14.1290323,13.6 C13.9175277,13.6 13.7153793,13.6412109 13.5276903,13.712793 L13.5276903,13.712793 Z M9.21963206,12.4 C9.72344381,11.3362305 10.7786983,10.6 12,10.6 C13.2213017,10.6 14.2765562,11.3362305 14.7803679,12.4 L9.21963206,12.4 Z M9.06020035,12.8 L10.8100743,12.8 C10.6294733,13.0725586 10.515121,13.383789 10.4723097,13.712793 C10.2846207,13.6412109 10.0824723,13.6 9.87096774,13.6 L8.91305444,13.6 C8.929782,13.3223633 8.97911417,13.0541992 9.06020035,12.8 L9.06020035,12.8 Z M10.8431515,13.9072265 C10.8644153,13.4908203 11.0268712,13.1019531 11.3082157,12.8 L12.6917843,12.8 C12.9731288,13.1017578 13.1355847,13.490625 13.1568485,13.9072265 C12.6929183,14.2307617 12.3870968,14.7791992 12.3870968,15.4 L12.3870968,16.9730469 C12.2595136,16.9898437 12.1304183,17 12,17 C11.8692036,17 11.7402974,16.9904297 11.6129032,16.9740234 L11.6129032,15.4 C11.6129032,14.7791992 11.3070817,14.2307617 10.8431515,13.9072265 L10.8431515,13.9072265 Z M7.41503906,14.5755859 C7.46881302,14.9185547 7.5592553,15.2532226 7.68466481,15.5774414 C7.67455268,15.5700195 7.66453502,15.5618164 7.65952621,15.5488281 L7.37364542,14.8106445 C7.36740801,14.7944336 7.36627394,14.7769531 7.3703377,14.7601562 L7.41503906,14.5755859 Z M8.70967742,18.6 L6.38709677,18.6 L6.38709677,18.2 L8.70967742,18.2 L8.70967742,18.6 Z M6.73204384,17.8 L6.38709677,16.3654297 L6.38945942,14.6148437 L6.75425277,13.1066406 C6.75699344,13.0952148 6.76181325,13.0849609 6.76880671,13.0759766 L7.86214718,11.6232422 C7.64260962,12.0667969 7.48724168,12.549414 7.41040827,13.0589844 C7.38252898,13.103418 7.36060357,13.1513672 7.34803427,13.203418 L6.99486518,14.6633789 C6.97104965,14.7620117 6.97757056,14.8641602 7.01442794,14.9589844 L7.30021423,15.6975586 C7.37128277,15.8811523 7.54120464,16 7.7328629,16 C7.94011466,16 8.11958165,15.862207 8.17912045,15.656836 L8.60666584,14.184375 C8.63860887,14.0740235 8.73500504,14 8.84652218,14 C8.98450101,14 9.09677419,14.1160156 9.09677419,14.2587891 L9.09677419,14.325586 C9.09677419,14.3536133 9.09252143,14.380957 9.08401587,14.4074219 L8.32258065,16.7675781 L8.32258065,17.8 L6.73204384,17.8 Z M12,18.2 C10.75063,18.2 9.57677042,17.6387695 8.765436,16.659375 L9.06369706,15.7349609 C9.70066785,16.7696289 10.7955204,17.4 12,17.4 C13.1936114,17.4 14.3018838,16.7589844 14.9363029,15.7351562 L15.234375,16.6591797 C14.4228516,17.6389648 13.250693,18.2 12,18.2 Z M17.6129032,18.6 L15.2903226,18.6 L15.2903226,18.2 L17.6129032,18.2 L17.6129032,18.6 Z M15.6774194,17.8 L15.6774194,16.7675781 L14.9159841,14.4074219 C14.9074786,14.380957 14.9032258,14.3536133 14.9032258,14.3255859 L14.9032258,14.258789 C14.9032258,14.1160156 15.015499,14 15.1534778,14 C15.264995,14 15.3613911,14.0740234 15.3933342,14.184375 L15.8208795,15.6568359 C15.8804183,15.862207 16.0598853,16 16.2671371,16 C16.4587954,16 16.6285282,15.8811523 16.6997858,15.697168 L16.9857611,14.9585937 C17.0224294,14.8639648 17.0289503,14.7620117 17.0051348,14.6631836 L16.6519657,13.202832 C16.6393964,13.1509765 16.617471,13.1032226 16.5895917,13.058789 C16.5129473,12.549414 16.3573904,12.0667969 16.1380418,11.6234375 L17.2313823,13.0761719 C17.2379977,13.0847656 17.2428175,13.0952148 17.2455582,13.1057617 L17.6129032,14.6345703 L17.6105406,16.3851562 L17.2682397,17.8 L15.6774194,17.8 Z" id="path-4"></path>
    </defs>
    <g id="1.-atom-/-Icons-/-carinsurance2" stroke="none" stroke-width="1" fill="none" fill-rule="evenodd">
        <g id="1.-atom-/-Hexagon" transform="translate(2.000000, 4.000000)" filter="url(#filter-1)">
            <g>
                <mask id="mask-3" fill="white">
                    <use xlink:href="#path-2"></use>
                </mask>
                <use id="Mask" fill="#A2DAF2" xlink:href="#path-2"></use>
                <g id="Group" mask="url(#mask-3)" fill="#DAE6FB">
                    <g id="4.-color-/-lightblue">
                        <rect id="Rectangle" x="0" y="0" width="20" height="20"></rect>
                    </g>
                </g>
            </g>
        </g>
        <mask id="mask-5" fill="white">
            <use xlink:href="#path-4"></use>
        </mask>
        <use id="Mask" fill="#000000" fill-rule="nonzero" xlink:href="#path-4"></use>
        <g id="Group" mask="url(#mask-5)" fill="#4D7CFF">
            <g id="4.-color-/-black">
                <rect id="Rectangle" x="0" y="0" width="24" height="24"></rect>
            </g>
        </g>
    </g>
</svg>