<?xml version="1.0" encoding="UTF-8"?>
<svg width="24px" height="24px" viewBox="0 0 24 24" version="1.1" xmlns="http://www.w3.org/2000/svg" xmlns:xlink="http://www.w3.org/1999/xlink">
    <title>1. atom / Icons / carinsurance3</title>
    <defs>
        <filter id="filter-1">
            <feColorMatrix in="SourceGraphic" type="matrix" values="0 0 0 0 0.854968 0 0 0 0 0.900611 0 0 0 0 0.983639 0 0 0 1.000000 0"></feColorMatrix>
        </filter>
        <polygon id="path-2" points="10.0069726 19.9793217 1.36 14.9898734 1.36 5.01097696 10.0069726 0.0216049598 18.6538689 5.01097696 18.6538689 14.9898734"></polygon>
    </defs>
    <g id="1.-atom-/-Icons-/-carinsurance3" stroke="none" stroke-width="1" fill="none" fill-rule="evenodd">
        <g id="1.-atom-/-Hexagon" transform="translate(2.000000, 4.000000)" filter="url(#filter-1)">
            <g>
                <mask id="mask-3" fill="white">
                    <use xlink:href="#path-2"></use>
                </mask>
                <use id="Mask" fill="#A2DAF2" xlink:href="#path-2"></use>
                <g id="Group" mask="url(#mask-3)" fill="#DAE6FB">
                    <g id="4.-color-/-lightblue">
                        <rect id="Rectangle" x="0" y="0" width="20" height="20"></rect>
                    </g>
                </g>
            </g>
        </g>
        <path d="M17.4476,14.73588 C17.4466,14.75188 17.4446,14.76888 17.4426,14.78388 C17.2756,14.78388 17.1076,14.79188 16.9416,14.77888 C16.9026,14.77688 16.8676,14.70788 16.8316,14.66988 L16.8586,14.63088 C17.0506,14.68588 17.2836,14.54088 17.4476,14.73588 L17.4476,14.73588 Z M17.4446,15.94688 C17.4436,15.98588 17.3646,16.04988 17.3186,16.05288 C17.1046,16.06388 16.8886,16.05788 16.6726,16.05788 C16.6446,15.96188 16.6256,15.87188 16.5936,15.78588 C16.3906,15.24988 15.8856,14.91988 15.3286,14.95588 C14.7716,14.99088 14.3116,15.38188 14.1806,15.93988 C14.1576,16.03488 14.1276,16.08488 14.0096,16.04488 C14.0296,15.75788 14.1276,15.49688 14.3316,15.29388 C14.4606,15.16688 14.6186,15.06388 14.7776,14.97388 C14.8876,14.91188 14.9446,14.84588 14.9406,14.71888 C14.9346,14.53988 14.9386,14.35988 14.9386,14.17188 C14.9896,14.16888 15.0276,14.16388 15.0656,14.16388 C15.6336,14.16388 16.2006,14.15788 16.7676,14.16788 C16.9096,14.17088 17.0516,14.22588 17.1936,14.25688 C17.1906,14.27788 17.1866,14.29888 17.1816,14.31988 C17.0296,14.31988 16.8776,14.31888 16.7246,14.31988 C16.5666,14.32188 16.5126,14.37788 16.5096,14.53488 C16.5016,14.90788 16.6976,15.11088 17.0686,15.11188 C17.1906,15.11288 17.3126,15.11288 17.4506,15.11288 C17.4506,15.39788 17.4556,15.67288 17.4446,15.94688 L17.4446,15.94688 Z M17.0716,16.53288 C16.9316,16.52488 16.7916,16.53088 16.6336,16.53088 C16.6456,16.47188 16.6546,16.42688 16.6636,16.38188 L17.2196,16.38188 C17.2236,16.49288 17.1806,16.53888 17.0716,16.53288 L17.0716,16.53288 Z M15.4136,17.16188 C14.8896,17.16188 14.4636,16.73588 14.4645982,16.21488 C14.4645982,15.69788 14.8866,15.27288 15.4026,15.269864 C15.9286,15.26688 16.3466,15.68488 16.3486071,16.21588 C16.3506,16.73488 15.9286,17.16188 15.4136,17.16188 L15.4136,17.16188 Z M12.7396,17.15088 L12.7396,16.84688 L12.9776,16.84688 C13.3726,16.84688 13.7676,16.85088 14.1626,16.84488 C14.2706,16.84288 14.3446,16.86688 14.3996,16.96388 C14.4356,17.02688 14.4916,17.07888 14.5516,17.15088 L12.7396,17.15088 Z M12.7326,16.37388 L12.9026,16.37388 C13.2796,16.37488 13.6556,16.37888 14.0326,16.37288 C14.1436,16.37088 14.1866,16.40588 14.1716,16.52288 L12.7326,16.52288 L12.7326,16.37388 Z M12.5246,13.61988 C12.4926,13.54288 12.4136,13.48588 12.3566,13.41988 C12.4096,13.39488 12.4806,13.36088 12.5516,13.32688 C12.7236,13.24288 12.7336,13.10588 12.5706,12.99888 C12.3396,12.84688 12.1066,12.69888 11.8606,12.53988 C11.8926,12.48188 11.9256,12.43888 11.9436,12.39088 C11.9796,12.29588 12.0426,12.27588 12.1386,12.28788 C12.9696,12.39188 13.6796,12.72388 14.2146,13.38688 C14.2616,13.44688 14.3106,13.50588 14.3436,13.58788 C14.1616,13.52788 13.9806,13.46888 13.7936,13.40788 C13.8056,13.35388 13.8156,13.31088 13.8246,13.26888 C13.8476,13.16488 13.8056,13.09288 13.7046,13.06888 C13.6076,13.04688 13.5446,13.09888 13.5196,13.19288 C13.4706,13.37488 13.4216,13.55688 13.3816,13.74088 C13.3626,13.82588 13.3246,13.85988 13.2386,13.84988 C13.1736,13.84288 13.1066,13.84388 13.0406,13.84988 C12.8246,13.86988 12.6276,13.86588 12.5246,13.61988 L12.5246,13.61988 Z M12.4116,16.99788 L12.4116,17.15688 L10.6776,17.15688 C10.6756,17.10988 10.6706,17.06388 10.6706,17.01788 C10.6706,16.12488 10.6726,15.23188 10.6676,14.33988 C10.6676,14.23888 10.7026,14.19388 10.7896,14.15388 C11.1576,13.98588 11.5216,13.80988 11.8896,13.64188 C11.9326,13.62288 12.0026,13.62388 12.0456,13.64488 C12.2836,13.76288 12.4176,13.94088 12.4146,14.22788 C12.4056,15.15088 12.4116,16.07388 12.4116,16.99788 L12.4116,16.99788 Z M10.4586,13.89588 C9.9686,13.65588 9.4836,13.41088 8.9976,13.16588 C8.9866,13.16088 8.9786,13.15088 8.9566,13.13188 C9.1256,13.01388 9.2896,12.89988 9.4606,12.78088 C9.7736,13.08188 10.1136,13.33988 10.5646,13.32988 C11.0026,13.32088 11.3526,13.08988 11.6656,12.79088 C11.8396,12.90388 12.0076,13.01288 12.1986,13.13688 C12.1186,13.17688 12.0586,13.20888 11.9986,13.23688 C11.5376,13.45388 11.0776,13.67288 10.6146,13.88588 C10.5706,13.90588 10.4996,13.91588 10.4586,13.89588 L10.4586,13.89588 Z M10.3446,17.15688 L8.6366,17.15688 C8.6346,17.10788 8.6296,17.06088 8.6296,17.01488 C8.6296,16.07788 8.6296,15.14088 8.6296,14.20288 C8.6296,13.91488 8.8006,13.68588 9.0756,13.60788 C9.1096,13.59788 9.1546,13.60488 9.1866,13.62088 C9.5496,13.79888 9.9126,13.97888 10.2716,14.16388 C10.3106,14.18488 10.3516,14.24788 10.3526,14.29188 C10.3566,15.22388 10.3556,16.15688 10.3546,17.08988 C10.3546,17.10688 10.3496,17.12388 10.3446,17.15688 L10.3446,17.15688 Z M9.1156,11.75288 C9.0636,11.74788 8.9946,11.69288 8.9756,11.64488 C8.9626,11.61088 9.0176,11.50988 9.0506,11.50588 C9.2446,11.47988 9.2796,11.35588 9.2696,11.19388 C9.2696,11.18188 9.2776,11.16988 9.2866,11.14188 C10.1486,11.31988 11.0106,11.31488 11.8796,11.11088 C11.8836,11.16588 11.8886,11.20388 11.8876,11.24288 C11.8866,11.37588 11.9256,11.46788 12.0776,11.49688 C12.1236,11.50588 12.1546,11.59188 12.1926,11.64288 C12.1396,11.68088 12.0826,11.75688 12.0366,11.75088 C11.8806,11.72788 11.8256,11.80088 11.7866,11.93388 C11.6376,12.44688 11.3076,12.79388 10.8016,12.96888 C10.4166,13.10188 10.1146,12.92588 9.8356,12.69588 C9.6016,12.50388 9.4526,12.25188 9.3706,11.95988 C9.3166,11.76288 9.3146,11.77088 9.1156,11.75288 L9.1156,11.75288 Z M8.5306,10.50688 C8.4656,10.46888 8.4086,10.40388 8.3676,10.33888 C8.3066,10.24088 8.33658484,10.16888 8.4486,10.16188 C8.6486,10.14988 8.8496,10.15888 9.0506,10.15888 C9.0396,10.39888 9.0446,10.41088 9.2526,10.48988 C10.1276,10.82088 10.9986,10.78488 11.8666,10.45688 C12.0086,10.40288 12.0096,10.29788 11.9786,10.14088 C12.2006,10.15288 12.4076,10.15688 12.6146,10.17588 C12.7126,10.18488 12.7286,10.26588 12.6736,10.32988 C12.5986,10.41888 12.5136,10.50788 12.4156,10.56688 C12.0846,10.76288 11.7156,10.84888 11.3386,10.89488 C10.5416,10.99188 9.7496,10.98488 8.9786,10.72488 C8.8216,10.67288 8.6746,10.58988 8.5306,10.50688 L8.5306,10.50688 Z M9.5786,9.38888 C9.5996,9.29888 9.6556,9.30888 9.7196,9.33488 C9.8946,9.40488 10.0716,9.47188 10.2456,9.54588 C10.4216,9.61888 10.5956,9.62188 10.7716,9.55288 C10.9476,9.48488 11.1256,9.41888 11.2986,9.34288 C11.4006,9.29888 11.4506,9.31288 11.4756,9.42688 C11.5236,9.65088 11.5836,9.87088 11.6306,10.09488 C11.6386,10.13188 11.6106,10.20488 11.5826,10.21488 C10.8556,10.46588 10.1286,10.47688 9.3836,10.19788 C9.4506,9.91788 9.5156,9.65388 9.5786,9.38888 L9.5786,9.38888 Z M13.6966,13.84588 C13.7006,13.80588 13.7046,13.77088 13.7116,13.71388 C13.8236,13.75288 13.9216,13.78688 14.0186,13.82188 C14.0166,13.82988 14.0146,13.83788 14.0136,13.84588 L13.6966,13.84588 Z M14.6206,14.17188 C14.6206,14.33088 14.6236,14.49088 14.6176,14.65088 C14.6166,14.67588 14.5806,14.70788 14.5536,14.72288 C14.0466,14.99388 13.7636,15.41788 13.6936,15.98588 C13.6906,16.00688 13.6806,16.02788 13.6736,16.05288 L12.7396,16.05288 L12.7396,14.17188 L14.6206,14.17188 Z M17.7736,14.87388 C17.7736,14.26288 17.3706,13.85388 16.7606,13.84988 C16.3076,13.84688 15.8536,13.83188 15.4016,13.85588 C15.1206,13.86988 14.9066,13.81488 14.7666,13.55688 C14.7336,13.49688 14.6756,13.44988 14.6326,13.39388 C14.1896,12.80788 13.6446,12.35788 12.9306,12.13888 C12.7386,12.07988 12.5416,12.03688 12.3446,11.98588 C12.3496,11.97588 12.3536,11.96288 12.3616,11.95388 C12.5936,11.67088 12.5596,11.43488 12.2636,11.21788 C12.2256,11.18988 12.2096,11.11588 12.2066,11.06188 C12.2056,11.03588 12.2526,10.99388 12.2866,10.98088 C12.5226,10.88688 12.7446,10.77288 12.9046,10.56788 C13.1386,10.26588 13.0086,9.91288 12.6326,9.85688 C12.4296,9.82688 12.2206,9.83388 12.0146,9.83988 C11.9196,9.84188 11.8826,9.81588 11.8656,9.72388 C11.8416,9.58588 11.8066,9.44888 11.7696,9.31288 C11.6986,9.04888 11.4876,8.93988 11.2316,9.03488 C11.0496,9.10188 10.8746,9.18888 10.6896,9.23988 C10.5816,9.26888 10.4526,9.26888 10.3456,9.23888 C10.1556,9.18588 9.9776,9.09488 9.7916,9.02788 C9.5516,8.94188 9.3356,9.05888 9.2726,9.30388 C9.2356,9.44888 9.1946,9.59288 9.1676,9.73988 C9.1506,9.83488 9.1106,9.85188 9.0166,9.84888 C8.7936,9.83988 8.5676,9.83188 8.3476,9.86088 C8.1256,9.88988 8.0126,10.05888 8.0236,10.27388 C8.0336,10.46988 8.1376,10.62188 8.2926,10.72188 C8.4716,10.83788 8.6716,10.92088 8.8606,11.02288 C8.8956,11.04288 8.9396,11.08288 8.9426,11.11588 C8.9466,11.15188 8.9136,11.20488 8.8806,11.22588 C8.7086,11.33188 8.6296,11.48388 8.6566,11.68188 C8.6836,11.88088 8.8076,12.00088 8.9956,12.06288 C9.0296,12.07388 9.0726,12.09488 9.0866,12.12388 C9.1496,12.25388 9.2026,12.38688 9.2616,12.52588 C9.2476,12.53788 9.2336,12.55288 9.2156,12.56588 C9.0016,12.71288 8.7866,12.85688 8.5736,13.00688 C8.4276,13.10988 8.4376,13.24088 8.5946,13.32288 C8.6436,13.34888 8.6936,13.37288 8.7516,13.40288 C8.7276,13.42488 8.7166,13.43888 8.7016,13.44888 C8.4226,13.64288 8.3066,13.90688 8.3106,14.24988 C8.3216,15.16488 8.3146,16.07988 8.3146,16.99488 L8.3146,17.15688 C8.2516,17.15988 8.2036,17.16188 8.1566,17.16488 C8.0656,17.17088 8.0056,17.21588 8.0006,17.30988 C7.9946,17.41188 8.0566,17.46288 8.1526,17.47388 C8.1966,17.47888 8.2396,17.47688 8.2836,17.47688 L16.5596,17.47688 C16.7876,17.47688 17.0166,17.47888 17.2456,17.47688 C17.3856,17.47588 17.4606,17.41688 17.4536,17.31388 C17.4446,17.18588 17.3566,17.16088 17.2486,17.16188 C17.0506,17.16388 16.8526,17.16288 16.6556,17.16388 L16.2556,17.16388 C16.3276,17.07688 16.3896,17.01888 16.4296,16.94788 C16.4796,16.86188 16.5446,16.84288 16.6366,16.84488 C16.8296,16.85088 17.0236,16.84088 17.2166,16.84888 C17.3586,16.85488 17.4346,16.80088 17.4776,16.66488 C17.5236,16.51488 17.5736,16.36188 17.6546,16.22988 C17.7226,16.11588 17.7756,16.00988 17.7746139,15.87688 C17.7726,15.54188 17.7746139,15.20788 17.7736,14.87388 L17.7736,14.87388 Z" id="Fill-1" fill="#4D7CFF"></path>
        <path d="M15.409,15.42658 C15.844,15.42658 16.194,15.77858 16.194,16.21558 C16.194,16.65058 15.84,17.00658 15.408,17.0055821 C14.976,17.0055821 14.622,16.64858 14.622,16.21358 C14.622,15.77658 14.973,15.42658 15.409,15.42658 Z M15.401,15.74358 C15.139,15.74758 14.938,15.95458 14.94,16.21958 C14.942,16.48158 15.149,16.68758 15.41,16.68558 C15.666,16.68458 15.881,16.47058 15.882,16.21558 C15.883,15.95558 15.664,15.73958 15.401,15.74358 Z" id="Combined-Shape" fill="#4D7CFF"></path>
        <path d="M10.0477,11.95468 C10.1447,11.95468 10.1967,11.89368 10.2037,11.78968 C10.1917,11.69968 10.1397,11.64268 10.0397,11.64668 C9.9467,11.65068 9.8917,11.70668 9.8907,11.79768 C9.8907,11.89468 9.9507,11.95468 10.0477,11.95468" id="Fill-6" fill="#4D7CFF"></path>
        <path d="M11.1502,11.95318 C11.2482,11.95318 11.2992,11.89418 11.3072,11.79418 C11.2952,11.69918 11.2422,11.64418 11.1432,11.64718 C11.0502,11.65018 10.9942,11.70718 10.9942,11.79618 C10.9932,11.89218 11.0532,11.95318 11.1502,11.95318" id="Fill-8" fill="#4D7CFF"></path>
    </g>
</svg>