<?xml version="1.0" encoding="UTF-8"?>
<svg width="24px" height="24px" viewBox="0 0 24 24" version="1.1" xmlns="http://www.w3.org/2000/svg" xmlns:xlink="http://www.w3.org/1999/xlink">
    <title>1. atom / Icons / childcare</title>
    <defs>
        <filter id="filter-1">
            <feColorMatrix in="SourceGraphic" type="matrix" values="0 0 0 0 0.854968 0 0 0 0 0.900611 0 0 0 0 0.983639 0 0 0 1.000000 0"></feColorMatrix>
        </filter>
        <polygon id="path-2" points="10.0069726 19.9793217 1.36 14.9898734 1.36 5.01097696 10.0069726 0.0216049598 18.6538689 5.01097696 18.6538689 14.9898734"></polygon>
        <path d="M9.64650391,9 C10.1957422,9 10.6425977,9.44718443 10.6425977,9.99687061 C10.6425977,10.1855528 10.5899414,10.3621748 10.4985547,10.5127609 C10.6152539,10.6850827 10.6783984,10.8884639 10.6783984,11.0997809 L10.6783984,11.0997809 L10.6783984,11.4680171 C10.6783984,11.935823 10.2981445,12.316393 9.83070313,12.316393 C9.82427734,12.316393 9.81902344,12.3216315 9.81902344,12.3280623 C9.81902344,12.4697548 9.88853516,12.6024949 10.0049805,12.6831242 L10.0049805,12.6831242 L10.4878906,13.0174667 C10.8910937,13.2966296 11.0374805,13.8239155 10.8359766,14.2712563 L10.8359766,14.2712563 L10.6513867,14.6810092 L11.3265039,15.1734633 C11.6962109,15.4431852 11.8251953,15.9405846 11.6331445,16.3561623 C11.6177344,16.3895282 11.5982422,16.4203334 11.5755273,16.4482653 L11.5755273,16.4482653 L12.1273633,16.8113022 C12.4004492,16.9909539 12.5634766,17.2934748 12.5634766,17.6205461 C12.5634766,18.1545169 12.1293945,18.5889375 11.5958398,18.5889375 L11.5958398,18.5889375 L10.6848828,18.5889375 C10.5770313,18.5889375 10.4895703,18.5014083 10.4895703,18.3934726 C10.4895703,18.285537 10.5770313,18.1980078 10.6848828,18.1980078 L10.6848828,18.1980078 L11.5958398,18.1980078 C11.9140039,18.1980078 12.1728516,17.9389583 12.1728516,17.6205461 C12.1728516,17.4255113 12.0756445,17.2450973 11.912793,17.1379825 L11.912793,17.1379825 L11.2403906,16.6956456 L10.7623828,17.1740262 L11.0039062,17.1740262 C11.1117578,17.1740262 11.1992188,17.2615554 11.1992188,17.3694911 C11.1992188,17.4774267 11.1117578,17.5649559 11.0039062,17.5649559 L11.0039062,17.5649559 L7.97537109,17.5649559 C7.65294922,17.5649559 7.390625,17.8274847 7.390625,18.1501776 L7.390625,18.1501776 L7.390625,18.4767211 C7.390625,18.5557475 7.44714844,18.587706 7.47142578,18.5977529 C7.49572266,18.6078585 7.55828125,18.6252157 7.61408203,18.5693714 L7.61408203,18.5693714 L7.83246094,18.3508418 C7.9309375,18.2522689 8.06191406,18.1979883 8.20123047,18.1979883 L8.20123047,18.1979883 L8.92708984,18.1979883 C9.03494141,18.1979883 9.12240234,18.2855174 9.12240234,18.3934531 C9.12240234,18.5013888 9.03494141,18.5889179 8.92708984,18.5889179 L8.92708984,18.5889179 L8.20123047,18.5889179 C8.16625,18.5889179 8.13339844,18.6025418 8.10867188,18.6272877 L8.10867188,18.6272877 L7.89029297,18.8457978 C7.78925781,18.9469313 7.65910156,19 7.52484375,19 C7.4571875,19 7.38849609,18.9865325 7.32195313,18.9589524 C7.12335937,18.8766226 7,18.6918497 7,18.4767211 L7,18.4767211 L7,18.1501776 C7,17.6119261 7.43753906,17.1740067 7.97537109,17.1739872 L7.97537109,17.1739872 L8.65779297,17.1739872 C8.59732422,17.1239286 8.54003906,17.0695894 8.48660156,17.0109695 C8.24009766,16.7406416 8.08980469,16.4053413 8.05195313,16.0413271 C8.01410156,15.6773325 8.09220703,15.3182441 8.2778125,15.0029202 L8.2778125,15.0029202 L8.46369141,14.6868341 C8.39076172,14.538359 8.35091797,14.3731912 8.35091797,14.2018858 L8.35091797,14.2018858 L8.35091797,13.1556017 C8.35091797,13.1264775 8.35294922,13.0978419 8.35650391,13.0696558 C8.21972656,13.15654 8.05777344,13.2070872 7.88414063,13.2070872 C7.39662109,13.2070872 7,12.8101567 7,12.3222765 L7,12.3222765 L7,11.9238997 C7,11.3781423 7.23351562,10.8709698 7.64394531,10.5180385 C7.66496094,10.1234927 7.82800781,9.755452 8.10884766,9.47306397 C8.41220703,9.16800202 8.81607422,9 9.24613281,9 L9.24613281,9 Z M14.8830859,13.3704762 C15.4121094,13.3704762 15.8425,13.8012025 15.8425,14.3306385 C15.8425,14.5445161 15.772207,14.7422288 15.6536133,14.9019822 C15.710332,14.9192808 15.7659766,14.9412511 15.8199023,14.9680884 C16.1013281,15.1080999 16.3073633,15.363201 16.3851758,15.6679502 L16.3851758,15.6679502 L16.6113867,16.5537382 C16.8591797,16.7751803 17,17.0881976 17,17.4228334 C17,18.0609283 16.48125,18.5840509 15.8436914,18.5889179 L15.8436914,18.5889179 L13.5519141,18.5889179 C13.2293164,18.5889179 12.9668555,18.3262523 12.9668555,18.0033835 C12.9668555,17.7147406 13.1820703,17.4656793 13.4674414,17.4239867 L13.4674414,17.4239867 L14.8523633,17.2217588 L14.7024805,16.5003176 L14.2061133,16.5003176 C14.2207617,16.5638242 14.2035938,16.6331946 14.1541406,16.6826863 C14.1159961,16.720841 14.0660156,16.739938 14.0160352,16.739938 C13.9660547,16.739938 13.9160742,16.720841 13.8779297,16.6826863 L13.8779297,16.6826863 L13.0114453,15.8155066 C12.914082,15.8685558 12.8025586,15.8987355 12.6841211,15.8987355 C12.3054492,15.8987355 11.9974023,15.5904484 11.9974023,15.2114812 C11.9974023,14.8325336 12.3054492,14.5242464 12.6841211,14.5242464 C13.0627734,14.5242464 13.3708203,14.8325336 13.3708203,15.2114812 C13.3708203,15.3300111 13.3406641,15.4416215 13.2876563,15.5390607 L13.2876563,15.5390607 L13.4417773,15.693302 C13.5007422,15.584174 13.5958008,15.4968794 13.7111328,15.448365 L13.7111328,15.448365 L14.3990039,15.1590771 C14.1149414,14.9921892 13.9236914,14.683433 13.9236914,14.3306385 C13.9236914,13.8012025 14.3540625,13.3704762 14.8830859,13.3704762 Z M9.80605469,18.1980469 C9.85742188,18.1980469 9.9078125,18.2187662 9.94414062,18.2553181 C9.98046875,18.2916746 10.0013672,18.3418895 10.0013672,18.3935117 C10.0013672,18.444919 9.98044922,18.4953489 9.94414062,18.5316858 C9.9078125,18.5680618 9.85742188,18.5889766 9.80605469,18.5889766 C9.75449219,18.5889766 9.70429688,18.5680423 9.66777344,18.5316858 C9.63144531,18.4953489 9.61074219,18.444919 9.61074219,18.3935117 C9.61074219,18.341909 9.63144531,18.2916746 9.66777344,18.2553181 C9.70410156,18.2187662 9.75449219,18.1980469 9.80605469,18.1980469 Z M14.9820313,17.5978917 L13.5237891,17.8108311 C13.4289453,17.82467 13.3574219,17.9074689 13.3574219,18.0033835 C13.3574219,18.1106937 13.4446484,18.1979883 13.5518555,18.1979687 L13.5518555,18.1979687 L15.2255078,18.1979687 L14.9820313,17.5978917 Z M16.4006055,16.8935733 L15.3157813,17.3813558 L15.6471289,18.1979883 L15.8421484,18.1979883 C16.2645313,18.1947631 16.609375,17.8470116 16.609375,17.4228334 C16.609375,17.2238698 16.5344141,17.0363408 16.4006055,16.8935733 L16.4006055,16.8935733 Z M8.719375,15.0227795 L8.61439453,15.2012975 C8.32128906,15.6992637 8.38587891,16.3206073 8.77511719,16.7475024 C9.02224609,17.0185535 9.37429688,17.1740067 9.74095703,17.1740067 L9.74095703,17.1740067 L10.2099414,17.1740067 L10.9070508,16.4763536 L8.84587891,15.1203164 C8.80089844,15.090723 8.75890625,15.0579045 8.719375,15.0227795 L8.719375,15.0227795 Z M15.645957,15.3181268 C15.4663672,15.2287603 15.2573633,15.2221145 15.0724609,15.2998704 L15.0724609,15.2998704 L13.8624023,15.8087631 C13.8221094,15.8257294 13.7915625,15.8576684 13.7763867,15.8986769 C13.7612109,15.9396854 13.7636328,15.9838214 13.7832031,16.0229534 C13.8098438,16.0762762 13.8633984,16.109388 13.9229688,16.109388 L13.9229688,16.109388 L15.2519531,16.109388 C15.3598047,16.109388 15.4472461,16.1969367 15.4472461,16.3048724 C15.4472461,16.412808 15.3597852,16.5003372 15.2519336,16.5003372 L15.2519336,16.5003372 L15.1014063,16.5003372 L15.2056836,17.0022713 L16.2076758,16.5517249 L16.0066992,15.7647444 C15.9570313,15.5702569 15.8255469,15.4074933 15.645957,15.3181268 Z M9.03447266,12.8624436 C8.87292969,12.8624436 8.74150391,12.9939719 8.74150391,13.1556408 L8.74150391,13.1556408 L8.74150391,14.2019249 C8.74150391,14.4410762 8.86072266,14.6622837 9.06042969,14.7936556 L9.06042969,14.7936556 L11.2141602,16.2104824 C11.2281641,16.2196888 11.2417383,16.2185942 11.2505859,16.2160531 C11.2594727,16.2135121 11.2715625,16.2072963 11.2785742,16.1920891 C11.3926953,15.9451389 11.3160547,15.6496156 11.0963672,15.4894126 L11.0963672,15.4894126 L9.40769531,14.2576129 C9.35726563,14.2208264 9.32744141,14.1621088 9.32744141,14.0996577 L9.32744141,14.0996577 L9.32744141,13.1556408 C9.32744141,12.9939719 9.19601563,12.8624436 9.03447266,12.8624436 Z M12.6840625,14.9151956 C12.5208008,14.9151956 12.3879688,15.0481313 12.3879688,15.2115008 C12.3879688,15.3748898 12.5208008,15.5078254 12.6840625,15.5078254 C12.8473047,15.5078254 12.9801367,15.3748898 12.9801367,15.2115008 C12.9801367,15.0481313 12.8473047,14.9151956 12.6840625,14.9151956 Z M14.8830469,13.7614059 C14.5694336,13.7614059 14.3142773,14.0167611 14.3142773,14.3306385 C14.3142773,14.6445159 14.5694141,14.8998516 14.8830469,14.8998516 C15.1966797,14.8998516 15.4518359,14.6445159 15.4518359,14.3306385 C15.4518359,14.0167611 15.1966797,13.7614059 14.8830469,13.7614059 Z M9.67408203,12.914359 C9.70244141,12.9894371 9.71810547,13.0707114 9.71810547,13.1556213 L9.71810547,13.1556213 L9.71810547,14.0002248 L10.3288867,14.4457673 L10.4798633,14.1105842 C10.6038672,13.835272 10.5137695,13.5107613 10.265625,13.3389477 L10.265625,13.3389477 L9.78275391,13.0046247 C9.74361328,12.9775137 9.70742188,12.9471776 9.67408203,12.914359 Z M9.64648438,9.3909101 L9.24611328,9.3909101 C8.92076172,9.3909101 8.61519531,9.51802088 8.38570313,9.7488062 C8.15619141,9.97961106 8.03066406,10.2860217 8.03224609,10.611627 C8.03253906,10.672358 8.00462891,10.7297464 7.95669922,10.7669825 C7.59695313,11.0464581 7.390625,11.4681343 7.390625,11.9238997 L7.390625,11.9238997 L7.390625,12.3222765 C7.390625,12.5945981 7.61201172,12.8161575 7.88414063,12.8161575 C8.15623047,12.8161575 8.37761719,12.5945981 8.37761719,12.322257 L8.37761719,12.322257 L8.37761719,11.8726293 C8.37761719,11.1724547 8.94683594,10.602792 9.64648438,10.602792 C9.98035156,10.602792 10.2519531,10.3309591 10.2519531,9.99685106 C10.2519531,9.66274304 9.98035156,9.3909101 9.64648438,9.3909101 L9.64648438,9.3909101 Z M10.2207813,10.8106298 C10.0583398,10.9257781 9.86027344,10.9937412 9.64650391,10.9937412 C9.16224609,10.9937412 8.76826172,11.3880133 8.76826172,11.8726488 L8.76826172,11.8726488 L8.76826172,12.3222765 C8.76826172,12.3965141 8.75894531,12.4686015 8.74166016,12.5375615 C8.83046875,12.4952434 8.92974609,12.4714748 9.03449219,12.4714748 C9.21132813,12.4714748 9.37269531,12.5390275 9.49419922,12.6496997 C9.4515625,12.5493285 9.42837891,12.44022 9.42837891,12.3280428 C9.42837891,12.1060534 9.60886719,11.9254439 9.83068359,11.9254439 C10.0827148,11.9254439 10.2877539,11.7202253 10.2877539,11.4679975 L10.2877734,11.4679975 L10.2877734,11.0997809 C10.2877734,10.9983151 10.2644922,10.8997617 10.2207813,10.8106298 Z" id="path-4"></path>
    </defs>
    <g id="1.-atom-/-Icons-/-childcare" stroke="none" stroke-width="1" fill="none" fill-rule="evenodd">
        <g id="1.-atom-/-Hexagon" transform="translate(2.000000, 4.000000)" filter="url(#filter-1)">
            <g>
                <mask id="mask-3" fill="white">
                    <use xlink:href="#path-2"></use>
                </mask>
                <use id="Mask" fill="#A2DAF2" xlink:href="#path-2"></use>
                <g id="Group" mask="url(#mask-3)" fill="#DAE6FB">
                    <g id="4.-color-/-lightblue">
                        <rect id="Rectangle" x="0" y="0" width="20" height="20"></rect>
                    </g>
                </g>
            </g>
        </g>
        <mask id="mask-5" fill="white">
            <use xlink:href="#path-4"></use>
        </mask>
        <use id="Mask" fill="#000000" fill-rule="nonzero" xlink:href="#path-4"></use>
        <g id="Group" mask="url(#mask-5)" fill="#4D7CFF">
            <g id="4.-color-/-black">
                <rect id="Rectangle" x="0" y="0" width="24" height="24"></rect>
            </g>
        </g>
    </g>
</svg>