<?xml version="1.0" encoding="UTF-8"?>
<svg width="24px" height="24px" viewBox="0 0 24 24" version="1.1" xmlns="http://www.w3.org/2000/svg" xmlns:xlink="http://www.w3.org/1999/xlink">
    <title>1. atom / Icons / contract</title>
    <defs>
        <filter id="filter-1">
            <feColorMatrix in="SourceGraphic" type="matrix" values="0 0 0 0 0.854968 0 0 0 0 0.900611 0 0 0 0 0.983639 0 0 0 1.000000 0"></feColorMatrix>
        </filter>
        <polygon id="path-2" points="10.0069726 19.9793217 1.36 14.9898734 1.36 5.01097696 10.0069726 0.0216049598 18.6538689 5.01097696 18.6538689 14.9898734"></polygon>
        <path d="M13.9191919,9 C14.1434343,9 14.3535354,9.08787879 14.5111111,9.24545455 L14.5111111,9.24545455 L15.3484848,10.0828283 C15.5060606,10.240404 15.5929293,10.4505051 15.5929293,10.6747475 L15.5929293,10.6747475 L15.5929293,13.1414141 L16.1252525,12.610101 C16.1626263,12.5717172 16.2020202,12.5323232 16.240404,12.4939394 L16.240404,12.4939394 L16.569697,12.1646465 C16.8959596,11.8383838 17.4262626,11.8373737 17.7545455,12.1646465 C17.9121212,12.3232323 18,12.5333333 18,12.7565657 C18,12.9808081 17.9121212,13.1909091 17.7545455,13.3484848 L17.7545455,13.3484848 L15.5929293,15.5121212 L15.5929293,18.1636364 C15.5929293,18.6252525 15.2171717,19.0010101 14.7555556,19.0010101 L14.7555556,19.0010101 L8.83737374,19.0010101 C8.37575758,19.0010101 8,18.6252525 8,18.1636364 L8,18.1636364 L8,9.83737374 C8,9.37575758 8.37575758,9 8.83737374,9 L8.83737374,9 Z M13.3262626,9.49191919 L8.83737374,9.49191919 C8.64646465,9.49191919 8.49090909,9.64646465 8.49090909,9.83737374 L8.49090909,9.83737374 L8.49090909,18.1636364 C8.49090909,18.3535354 8.64646465,18.5090909 8.83737374,18.5090909 L8.83737374,18.5090909 L14.7555556,18.5090909 C14.9474747,18.5090909 15.1020202,18.3535354 15.1020202,18.1636364 L15.1020202,18.1636364 L15.1020202,16.0010101 L14.9808081,16.1242424 C14.9535354,16.1515152 14.9212121,16.1717172 14.8848485,16.1838384 L14.8848485,16.1838384 L13.6292929,16.6020202 C13.5414141,16.6292929 13.4444444,16.6090909 13.3777778,16.5424242 C13.3111111,16.4767677 13.2878788,16.3808081 13.3181818,16.2909091 L13.3181818,16.2909091 L13.7373737,15.0353535 C13.7484848,15.0010101 13.769697,14.9676768 13.7959596,14.940404 L13.7959596,14.940404 L15.1020202,13.6333333 L15.1020202,11.2666667 L13.5717172,11.2666667 C13.4363636,11.2666667 13.3262626,11.1565657 13.3262626,11.0212121 L13.3262626,11.0212121 L13.3262626,9.49191919 Z M13.5720202,17.3256566 C13.7073737,17.3256566 13.8174747,17.4357576 13.8174747,17.5711111 C13.8174747,17.7064646 13.7073737,17.8165657 13.5720202,17.8165657 L13.5720202,17.8165657 L11.7962626,17.8165657 C11.6609091,17.8165657 11.5508081,17.7064646 11.5508081,17.5711111 C11.5508081,17.4357576 11.6609091,17.3256566 11.7962626,17.3256566 L11.7962626,17.3256566 Z M12.3884848,15.5108081 C12.5238384,15.5108081 12.6339394,15.6209091 12.6339394,15.7562626 C12.6339394,15.8916162 12.5238384,16.0017172 12.3884848,16.0017172 L12.3884848,16.0017172 L9.42888889,16.0017172 C9.29353535,16.0017172 9.18343434,15.8916162 9.18343434,15.7562626 C9.18343434,15.6209091 9.29353535,15.5108081 9.42888889,15.5108081 L9.42888889,15.5108081 Z M17.3717172,12.5474747 C17.2565657,12.4323232 17.0676768,12.4323232 16.9525253,12.5474747 L16.9525253,12.5474747 L14.3888889,15.1141414 L14.3888889,15.1131313 L14.2282828,15.2737374 L14.0191919,15.9010101 L14.6474747,15.6919192 L14.710101,15.6292929 L14.710101,15.630303 L17.3717172,12.9656566 C17.4868687,12.8494949 17.4868687,12.6626263 17.3717172,12.5474747 Z M12.3885859,14.3272727 C12.5229293,14.3272727 12.6340404,14.4373737 12.6340404,14.5727273 C12.6340404,14.7080808 12.5229293,14.8181818 12.3885859,14.8181818 L12.3885859,14.8181818 L9.4289899,14.8181818 C9.29363636,14.8181818 9.18353535,14.7080808 9.18353535,14.5727273 C9.18353535,14.4373737 9.29363636,14.3272727 9.4289899,14.3272727 L9.4289899,14.3272727 Z M12.3885859,13.1435354 C12.5229293,13.1435354 12.6340404,13.2536364 12.6340404,13.3889899 C12.6340404,13.5243434 12.5229293,13.6344444 12.3885859,13.6344444 L12.3885859,13.6344444 L9.4289899,13.6344444 C9.29363636,13.6344444 9.18353535,13.5243434 9.18353535,13.3889899 C9.18353535,13.2536364 9.29363636,13.1435354 9.4289899,13.1435354 L9.4289899,13.1435354 Z M13.5724242,11.959798 C13.7067677,11.959798 13.8178788,12.069899 13.8178788,12.2052525 C13.8178788,12.3406061 13.7067677,12.4507071 13.5724242,12.4507071 L13.5724242,12.4507071 L9.4289899,12.4507071 C9.29363636,12.4507071 9.18353535,12.3406061 9.18353535,12.2052525 C9.18353535,12.069899 9.29363636,11.959798 9.4289899,11.959798 L9.4289899,11.959798 Z M13.8808081,9.49090008 L13.8171717,9.49191919 L13.8171717,10.7757576 L15.1020202,10.7757576 L15.1020202,10.7121212 C15.1030303,10.6454545 15.1040404,10.5323232 15,10.430303 L15,10.430303 L14.1636364,9.59292929 C14.059596,9.48787879 13.9424242,9.49090008 13.8808081,9.49090008 L13.8808081,9.49090008 Z" id="path-4"></path>
    </defs>
    <g id="1.-atom-/-Icons-/-contract" stroke="none" stroke-width="1" fill="none" fill-rule="evenodd">
        <g id="1.-atom-/-Hexagon" transform="translate(2.000000, 4.000000)" filter="url(#filter-1)">
            <g>
                <mask id="mask-3" fill="white">
                    <use xlink:href="#path-2"></use>
                </mask>
                <use id="Mask" fill="#A2DAF2" xlink:href="#path-2"></use>
                <g id="Group" mask="url(#mask-3)" fill="#DAE6FB">
                    <g id="4.-color-/-lightblue">
                        <rect id="Rectangle" x="0" y="0" width="20" height="20"></rect>
                    </g>
                </g>
            </g>
        </g>
        <mask id="mask-5" fill="white">
            <use xlink:href="#path-4"></use>
        </mask>
        <use id="Mask" fill="#1D1D1B" xlink:href="#path-4"></use>
        <g id="Group" mask="url(#mask-5)" fill="#4D7CFF">
            <g id="4.-color-/-black">
                <rect id="Rectangle" x="0" y="0" width="24" height="24"></rect>
            </g>
        </g>
    </g>
</svg>