<?xml version="1.0" encoding="UTF-8"?>
<svg width="24px" height="24px" viewBox="0 0 24 24" version="1.1" xmlns="http://www.w3.org/2000/svg" xmlns:xlink="http://www.w3.org/1999/xlink">
    <title>1. atom / Icons / deadline</title>
    <defs>
        <filter id="filter-1">
            <feColorMatrix in="SourceGraphic" type="matrix" values="0 0 0 0 0.854968 0 0 0 0 0.900611 0 0 0 0 0.983639 0 0 0 1.000000 0"></feColorMatrix>
        </filter>
        <polygon id="path-2" points="10.0069726 19.9793217 1.36 14.9898734 1.36 5.01097696 10.0069726 0.0216049598 18.6538689 5.01097696 18.6538689 14.9898734"></polygon>
        <path d="M11.239128,7.86956472 C11.8994681,7.86956472 12.4347795,8.40487613 12.4347795,9.06521622 L12.4347795,9.06521622 L12.4347795,9.17391181 L12.8695619,9.17391181 C12.9896237,9.17391181 13.0869531,9.27124116 13.0869531,9.39130299 L13.0869531,9.39130299 L13.0869531,10.3403242 C13.759797,10.4646698 14.3979033,10.7326846 14.9577401,11.1260846 L14.9577401,11.1260846 L15.5419788,10.5418458 C15.5827479,10.5010746 15.6380439,10.4781695 15.6957016,10.4781695 C15.7533593,10.4781695 15.8086553,10.5010746 15.8494243,10.5418458 L15.8494243,10.5418458 L16.7189891,11.4114105 C16.7597602,11.4521796 16.7826654,11.5074756 16.7826654,11.5651333 C16.7826654,11.6227909 16.7597602,11.6780869 16.7189891,11.718856 L16.7189891,11.718856 L16.1347503,12.3030948 C16.698851,13.1054757 17.0010667,14.0626457 16.9999972,15.0434737 C16.9999972,17.6806189 14.8545336,19.8260797 12.2173883,19.8260797 C9.5802431,19.8260797 7.43477951,17.6806189 7.43477951,15.0434737 C7.43370762,14.0626579 7.73591352,13.1054985 8.29999926,12.303122 L8.29999926,12.303122 L7.71576046,11.7188832 C7.67498929,11.6781141 7.6520841,11.6228181 7.6520841,11.5651605 C7.6520841,11.5075028 7.67498929,11.4522068 7.71576046,11.4114377 L7.71576046,11.4114377 L8.58532519,10.541873 C8.62609426,10.5011018 8.68139026,10.4781966 8.73904793,10.4781966 C8.79670559,10.4781966 8.85200159,10.5011018 8.89277067,10.541873 L8.89277067,10.541873 L9.47700946,11.1261118 C10.0368519,10.7326986 10.674968,10.4646742 11.3478236,10.3403242 L11.3478236,10.3403242 L11.3478236,9.39130299 C11.3478236,9.27124116 11.445153,9.17391181 11.5652148,9.17391181 L11.5652148,9.17391181 L11.9999972,9.17391181 L11.9999972,9.06521622 C11.9999972,8.79338385 11.8549763,8.54220039 11.6195626,8.4062842 C11.3841489,8.27036802 11.0941072,8.27036802 10.8586935,8.4062842 C10.6232797,8.54220039 10.4782589,8.79338385 10.4782589,9.06521622 C10.4782589,9.49238136 10.250369,9.88709824 9.88043316,10.1006808 C9.51049729,10.3142634 9.05471751,10.3142634 8.68478165,10.1006808 C8.31484578,9.88709824 8.0869559,9.49238136 8.08695591,9.06521622 L8.08695591,9.06521622 L8.08695591,8.08695591 L8.52173827,8.08695591 L8.52173827,9.06521622 C8.52173827,9.48543264 8.86239098,9.82608535 9.2826074,9.82608535 C9.70282382,9.82608535 10.0434765,9.48543264 10.0434765,9.06521622 C10.0434765,8.40487613 10.5787879,7.86956472 11.239128,7.86956472 Z M12.2173883,10.6956501 C9.8199984,10.6956501 7.86956472,12.6460838 7.86956472,15.0434737 C7.86956472,17.4408636 9.8199984,19.3912973 12.2173883,19.3912973 C14.6147783,19.3912973 16.565212,17.4408636 16.565212,15.0434737 C16.565212,12.6460838 14.6147783,10.6956501 12.2173883,10.6956501 Z M12.2173883,11.1304324 C14.3749958,11.1304324 16.1304296,12.8858662 16.1304296,15.0434737 C16.1304296,17.2010812 14.3749958,18.956515 12.2173883,18.956515 C10.0597809,18.956515 8.30434709,17.2010812 8.30434709,15.0434737 C8.30434709,12.8858662 10.0597809,11.1304324 12.2173883,11.1304324 Z M12.2173883,11.5652148 C10.296399,11.5652148 8.73912945,13.1224844 8.73912945,15.0434737 C8.73912945,16.964463 10.296399,18.5217326 12.2173883,18.5217326 C14.1374837,18.5195761 15.6934908,16.9635691 15.6956472,15.0434737 C15.6956472,13.1224844 14.1383777,11.5652148 12.2173883,11.5652148 Z M12.4347795,17.4347767 L12.4347795,18.0869502 L11.9999972,18.0869502 L11.9999972,17.4347767 L12.4347795,17.4347767 Z M10.8332097,17.0058775 L11.2097313,17.2232687 L10.8836445,17.7880509 L10.507123,17.5706598 L10.8332097,17.0058775 Z M13.6010425,17.0055704 L13.9271292,17.5703526 L13.5506077,17.7877438 L13.2245209,17.2229615 L13.6010425,17.0055704 Z M14.3967485,16.0509677 L14.9615308,16.3770545 L14.7441396,16.753576 L14.1793573,16.4274893 L14.3967485,16.0509677 Z M10.0376523,16.0505927 L10.2550435,16.4271142 L9.69026119,16.753201 L9.47287001,16.3766795 L10.0376523,16.0505927 Z M14.7445608,13.3334747 L14.961952,13.7099962 L12.8584749,14.9243705 C12.9089645,15.1948322 12.7844805,15.4679204 12.5472104,15.6072104 C12.3099404,15.7465003 12.010812,15.7220948 11.7992587,15.5461859 C11.5877053,15.370277 11.5091348,15.0806219 11.6027981,14.8219214 C11.6964613,14.5632209 11.9422545,14.3910025 12.2173883,14.3913002 C12.37277,14.3911726 12.5230447,14.446776 12.6409207,14.548012 L12.6409207,14.548012 L14.7445608,13.3334747 Z M15.2608649,14.8260825 L15.2608649,15.2608649 L14.6086913,15.2608649 L14.6086913,14.8260825 L15.2608649,14.8260825 Z M12.2173883,14.8260825 C12.0973265,14.8260825 11.9999972,14.9234119 11.9999972,15.0434737 C11.9999972,15.1635355 12.0973265,15.2608649 12.2173883,15.2608649 C12.3373943,15.2607301 12.4346447,15.1634797 12.4347795,15.0434737 C12.4347795,14.9234119 12.3374502,14.8260825 12.2173883,14.8260825 Z M9.82608535,14.8260825 L9.82608535,15.2608649 L9.17391181,15.2608649 L9.17391181,14.8260825 L9.82608535,14.8260825 Z M9.6901751,13.3335344 L10.2549574,13.6596212 L10.0375662,14.0361427 L9.47278392,13.7100559 L9.6901751,13.3335344 Z M13.5506974,12.2992769 L13.927219,12.5166681 L13.6011322,13.0814504 L13.2246107,12.8640592 L13.5506974,12.2992769 Z M10.8837478,12.2989825 L11.2098346,12.8637648 L10.833313,13.081156 L10.5072263,12.5163737 L10.8837478,12.2989825 Z M12.4347795,11.9999972 L12.4347795,12.6521707 L11.9999972,12.6521707 L11.9999972,11.9999972 L12.4347795,11.9999972 Z M8.73912945,11.0030684 L8.17698303,11.5652148 L8.56793389,11.9561385 C8.73952603,11.7536224 8.92753707,11.5656114 9.13005314,11.3940192 L9.13005314,11.3940192 L8.73912945,11.0030684 Z M15.6956472,11.0030684 L15.3047235,11.3940192 C15.5072396,11.5656114 15.6952507,11.7536224 15.8668428,11.9561385 L15.8668428,11.9561385 L16.2577937,11.5652148 L15.6956472,11.0030684 Z M12.6521707,9.60869417 L11.782606,9.60869417 L11.782606,10.2808405 C11.9258668,10.2678786 12.0708123,10.2608677 12.2173883,10.2608677 C12.3639643,10.2608677 12.5089099,10.2678786 12.6521707,10.2808405 L12.6521707,10.2808405 L12.6521707,9.60869417 Z M7.53524426,8.76550378 L7.84263539,9.07289491 L7.53524426,9.38028604 L7.22785313,9.07289491 L7.53524426,8.76550378 Z M9.07226991,8.76567835 L9.37966104,9.07306948 L9.07226991,9.38046061 L8.76487878,9.07306948 L9.07226991,8.76567835 Z M7.43478236,8.08695591 L7.43478236,8.52173827 L7,8.52173827 L7,8.08695591 L7.43478236,8.08695591 Z M9.60869417,8.08695591 L9.60869417,8.52173827 L9.17391181,8.52173827 L9.17391181,8.08695591 L9.60869417,8.08695591 Z M9.0724173,7.22867987 L9.37980843,7.536071 L9.0724173,7.84346213 L8.76502617,7.536071 L9.0724173,7.22867987 Z M7.53541883,7.22850531 L7.84280996,7.53589644 L7.53541883,7.84328757 L7.2280277,7.53589644 L7.53541883,7.22850531 Z M8.52173827,7 L8.52173827,7.43478236 L8.08695591,7.43478236 L8.08695591,7 L8.52173827,7 Z" id="path-4"></path>
    </defs>
    <g id="1.-atom-/-Icons-/-deadline" stroke="none" stroke-width="1" fill="none" fill-rule="evenodd">
        <g id="1.-atom-/-Hexagon" transform="translate(2.000000, 4.000000)" filter="url(#filter-1)">
            <g>
                <mask id="mask-3" fill="white">
                    <use xlink:href="#path-2"></use>
                </mask>
                <use id="Mask" fill="#A2DAF2" xlink:href="#path-2"></use>
                <g id="Group" mask="url(#mask-3)" fill="#DAE6FB">
                    <g id="4.-color-/-lightblue">
                        <rect id="Rectangle" x="0" y="0" width="20" height="20"></rect>
                    </g>
                </g>
            </g>
        </g>
        <mask id="mask-5" fill="white">
            <use xlink:href="#path-4"></use>
        </mask>
        <use id="Mask" fill="#000000" fill-rule="nonzero" xlink:href="#path-4"></use>
        <g id="Group" mask="url(#mask-5)" fill="#4D7CFF">
            <g id="4.-color-/-black">
                <rect id="Rectangle" x="0" y="0" width="24" height="24"></rect>
            </g>
        </g>
    </g>
</svg>