<?xml version="1.0" encoding="UTF-8"?>
<svg width="24px" height="24px" viewBox="0 0 24 24" version="1.1" xmlns="http://www.w3.org/2000/svg" xmlns:xlink="http://www.w3.org/1999/xlink">
    <title>1. atom / Icons / dentist</title>
    <defs>
        <filter id="filter-1">
            <feColorMatrix in="SourceGraphic" type="matrix" values="0 0 0 0 0.854968 0 0 0 0 0.900611 0 0 0 0 0.983639 0 0 0 1.000000 0"></feColorMatrix>
        </filter>
        <polygon id="path-2" points="10.0069726 19.9793217 1.36 14.9898734 1.36 5.01097696 10.0069726 0.0216049598 18.6538689 5.01097696 18.6538689 14.9898734"></polygon>
        <path d="M7.15832029,10.1529982 C7.36258633,9.95240176 7.68060112,9.94860617 7.88923353,10.1442746 L7.88923353,10.1442746 L11.3622449,13.2423914 L11.8031398,13.2423914 L11.8031398,12.7189725 C11.803971,12.0448197 12.3288714,11.4985266 12.9766244,11.4976615 L12.9766244,11.4976615 L13.144265,11.4976615 L13.144265,11.3231886 C13.144265,11.2268298 13.2193203,11.1487156 13.3119057,11.1487156 L13.3119057,11.1487156 L15.9941561,11.1487156 C16.0867415,11.1487156 16.1617967,11.2268298 16.1617967,11.3231886 L16.1617967,11.3231886 L16.1617967,12.3700265 C16.1617967,12.6591028 15.9366309,12.8934454 15.6588748,12.8934454 L15.6588748,12.8934454 L15.1559528,12.8934454 L15.1559528,13.2423914 L16.497078,13.2423914 C16.7748342,13.2423914 17,13.4767341 17,13.7658104 C17,14.0548867 16.7748342,14.2892293 16.497078,14.2892293 L16.497078,14.2892293 L16.097758,14.2892293 L15.977392,14.5416918 C15.873269,14.8202859 15.6105789,14.9992553 15.3235935,14.9871213 L15.3235935,14.9871213 L14.1501089,14.9871213 L14.1501089,15.1615943 C14.1501089,15.4506706 13.9249431,15.6850132 13.647187,15.6850132 L13.647187,15.6850132 L12.9766244,15.6850132 L12.9766244,17.7786891 L14.4853902,17.7786891 C14.7631464,17.7786891 14.9883122,18.0130317 14.9883122,18.3021081 L14.9883122,18.3021081 L14.9883122,19 L8.95324874,19 L8.95324874,18.3021081 C8.95324874,18.0130317 9.17841457,17.7786891 9.4561707,17.7786891 L9.4561707,17.7786891 L10.9649366,17.7786891 L10.9649366,17.0807971 L10.294374,17.0807971 C9.92403245,17.0807971 9.62381135,16.7683403 9.62381135,16.3829052 C9.62381135,15.9974701 9.92403245,15.6850132 10.294374,15.6850132 L10.294374,15.6850132 L10.294374,15.3360673 L10.9649366,15.3360673 L10.9649366,14.9871213 L10.6296553,14.9871213 C10.5904343,14.9870319 10.5524571,14.9727881 10.5221976,14.946818 L10.5221976,14.946818 L7.67498878,12.5061154 C7.54190699,12.3963563 7.4604737,12.2324428 7.45135615,12.0559751 C7.45005508,11.8638964 7.52618748,11.6800479 7.66124224,11.5491311 L7.66124224,11.5491311 L7.71069624,11.4976615 L7.15832029,10.923122 C7.05720763,10.8226758 7,10.6835371 7,10.5380601 C7,10.3925831 7.05720763,10.2534444 7.15832029,10.1529982 Z M14.4853902,18.1276351 L9.4561707,18.1276351 C9.36358532,18.1276351 9.28853005,18.2057493 9.28853005,18.3021081 L9.28853005,18.3021081 L9.28853005,18.651054 L14.6530309,18.651054 L14.6530309,18.3021081 C14.6530309,18.2057493 14.5779756,18.1276351 14.4853902,18.1276351 L14.4853902,18.1276351 Z M12.6413431,14.9871213 L11.3002179,14.9871213 L11.3002179,17.7786891 L12.6413431,17.7786891 L12.6413431,14.9871213 Z M12.1384211,17.0807971 L12.1384211,17.4297431 L11.8031398,17.4297431 L11.8031398,17.0807971 L12.1384211,17.0807971 Z M12.1384211,16.3829052 L12.1384211,16.7318512 L11.8031398,16.7318512 L11.8031398,16.3829052 L12.1384211,16.3829052 Z M10.294374,16.0339592 C10.1092032,16.0339592 9.95909265,16.1901877 9.95909265,16.3829052 C9.95909265,16.5756227 10.1092032,16.7318512 10.294374,16.7318512 L10.294374,16.7318512 L10.9649366,16.7318512 L10.9649366,16.3829052 L10.294374,16.3829052 Z M10.9649366,15.6850132 L10.6296553,15.6850132 L10.6296553,16.0339592 L10.9649366,16.0339592 L10.9649366,15.6850132 Z M13.8148276,14.9871213 L12.9766244,14.9871213 L12.9766244,15.3360673 L13.647187,15.3360673 C13.7397724,15.3360673 13.8148276,15.2579531 13.8148276,15.1615943 L13.8148276,15.1615943 L13.8148276,14.9871213 Z M15.7229135,14.2892293 L11.0685385,14.2892293 L10.9008978,14.6381753 L15.3235935,14.6381753 C15.483042,14.6493439 15.6288823,14.5447574 15.6756389,14.3857129 L15.6756389,14.3857129 L15.7229135,14.2892293 Z M9.13212132,12.7795146 L8.86624325,13.0562287 L10.5743338,14.5376789 L10.7550505,14.1615151 L9.13212132,12.7795146 Z M7.67079776,10.4087756 C7.59485333,10.332573 7.47578662,10.3286511 7.39536417,10.399703 C7.35787557,10.4351207 7.33649809,10.4853657 7.33649809,10.5380601 C7.33649809,10.5907545 7.35787557,10.6409995 7.39536417,10.6764172 L7.39536417,10.6764172 L11.0247843,13.9402834 L16.497078,13.9402834 C16.5896634,13.9402834 16.6647187,13.8621692 16.6647187,13.7658104 C16.6647187,13.6694516 16.5896634,13.5913374 16.497078,13.5913374 L16.497078,13.5913374 L11.3002179,13.5913374 C11.2602243,13.5913849 11.2215484,13.5764606 11.1912514,13.5492894 L11.1912514,13.5492894 Z M14.8206715,12.8934454 L14.1501089,12.8934454 L14.1501089,13.2423914 L14.8206715,13.2423914 L14.8206715,12.8934454 Z M13.1751109,12.5444995 L12.9766244,12.5444995 C12.884039,12.5444995 12.8089837,12.6226137 12.8089837,12.7189725 L12.8089837,12.7189725 L12.8089837,13.2423914 L13.8148276,13.2423914 L13.8148276,12.8934454 L13.647187,12.8934454 C13.4348222,12.8925292 13.2458979,12.7528814 13.1751109,12.5444995 L13.1751109,12.5444995 Z M13.144265,11.8466075 L12.9766244,11.8466075 C12.5139273,11.8471844 12.1389754,12.2374177 12.1384211,12.7189725 L12.1384211,12.7189725 L12.1384211,13.2423914 L12.4737024,13.2423914 L12.4737024,12.7189725 C12.4737024,12.4298961 12.6988682,12.1955535 12.9766244,12.1955535 L12.9766244,12.1955535 L13.144265,12.1955535 L13.144265,11.8466075 Z M7.95628979,11.7351193 L7.89828613,11.7954869 C7.82975567,11.8582478 7.78927343,11.9477549 7.78646981,12.0427152 C7.79226177,12.1198919 7.82947476,12.1908116 7.88873061,12.2376015 L7.88873061,12.2376015 L8.6062326,12.8342991 L8.87445764,12.5551423 L7.95628979,11.7351193 Z M15.8265154,11.4976615 L15.4912341,11.4976615 L15.4912341,12.3700265 C15.4912341,12.4663853 15.5662894,12.5444995 15.6588748,12.5444995 C15.7514602,12.5444995 15.8265154,12.4663853 15.8265154,12.3700265 L15.8265154,12.3700265 L15.8265154,11.4976615 Z M15.1559528,11.4976615 L13.4795463,11.4976615 L13.4795463,12.3700265 C13.4795463,12.4663853 13.5546016,12.5444995 13.647187,12.5444995 L13.647187,12.5444995 L15.1867987,12.5444995 C15.1669437,12.4886233 15.1565085,12.4295985 15.1559528,12.3700265 L15.1559528,12.3700265 L15.1559528,11.4976615 Z" id="path-4"></path>
    </defs>
    <g id="1.-atom-/-Icons-/-dentist" stroke="none" stroke-width="1" fill="none" fill-rule="evenodd">
        <g id="1.-atom-/-Hexagon" transform="translate(2.000000, 4.000000)" filter="url(#filter-1)">
            <g>
                <mask id="mask-3" fill="white">
                    <use xlink:href="#path-2"></use>
                </mask>
                <use id="Mask" fill="#A2DAF2" xlink:href="#path-2"></use>
                <g id="Group" mask="url(#mask-3)" fill="#DAE6FB">
                    <g id="4.-color-/-lightblue">
                        <rect id="Rectangle" x="0" y="0" width="20" height="20"></rect>
                    </g>
                </g>
            </g>
        </g>
        <mask id="mask-5" fill="white">
            <use xlink:href="#path-4"></use>
        </mask>
        <use id="Mask" fill="#000000" fill-rule="nonzero" xlink:href="#path-4"></use>
        <g id="Group" mask="url(#mask-5)" fill="#4D7CFF">
            <g id="4.-color-/-black">
                <rect id="Rectangle" x="0" y="0" width="24" height="24"></rect>
            </g>
        </g>
    </g>
</svg>