<?xml version="1.0" encoding="UTF-8"?>
<svg width="24px" height="24px" viewBox="0 0 24 24" version="1.1" xmlns="http://www.w3.org/2000/svg" xmlns:xlink="http://www.w3.org/1999/xlink">
    <title>1. atom / Icons / donate</title>
    <defs>
        <filter id="filter-1">
            <feColorMatrix in="SourceGraphic" type="matrix" values="0 0 0 0 0.854968 0 0 0 0 0.900611 0 0 0 0 0.983639 0 0 0 1.000000 0"></feColorMatrix>
        </filter>
        <polygon id="path-2" points="10.0069726 19.9793217 1.36 14.9898734 1.36 5.01097696 10.0069726 0.0216049598 18.6538689 5.01097696 18.6538689 14.9898734"></polygon>
        <path d="M16.1113281,11.3636951 C16.6013477,11.3636951 17,11.7623279 17,12.2523279 L17,12.2523279 L17,14.9609607 C17,15.5577185 16.7563672,16.1403943 16.331582,16.559574 L16.331582,16.559574 L15.6595313,17.2227381 L15.8085938,17.2227381 C15.9703906,17.2227381 16.1015625,17.3538904 16.1015625,17.5156873 L16.1015625,17.5156873 L16.1015625,18.7070154 C16.1015625,18.8688123 15.9703906,18.9999646 15.8085938,18.9999646 C15.6467969,18.9999646 15.515625,18.8688123 15.515625,18.7070154 L15.515625,18.7070154 L15.515625,17.8086365 L12.8789063,17.8086365 L12.8789063,18.7070154 C12.8789063,18.8688123 12.7477344,18.9999646 12.5859375,18.9999646 C12.4241406,18.9999646 12.2929688,18.8688123 12.2929688,18.7070154 L12.2929688,18.7070154 L12.2929688,17.5156873 C12.2929688,16.7185388 12.6290234,15.8690662 13.2465234,15.2568201 L13.2465234,15.2568201 L14.2733008,14.2387146 C14.5299609,13.9842029 14.903418,13.9163318 15.2226563,14.0343006 L15.2226563,14.0343006 L15.2226563,12.2523084 C15.2226563,11.7623279 15.6213086,11.3636951 16.1113281,11.3636951 Z M7.88869141,11.3637146 C8.37871094,11.3637146 8.77736328,11.7623474 8.77736328,12.2523279 L8.77736328,12.2523279 L8.77736328,14.0343006 C9.09658203,13.9163513 9.47005859,13.9842029 9.72671875,14.2387342 L9.72671875,14.2387342 L10.7534961,15.2568201 C11.3501758,15.8484607 11.6960547,16.6661951 11.706543,17.505824 L11.706543,17.505824 L11.7069702,17.5194916 C11.7069837,17.5218089 11.7069958,17.5246972 11.7070065,17.5283122 L11.7070313,18.7070349 C11.7070313,18.8688318 11.5758594,18.9999842 11.4140625,18.9999842 C11.2522656,18.9999842 11.1210938,18.8688318 11.1210938,18.7070349 L11.1210938,18.7070349 L11.1210938,17.808656 L8.484375,17.808656 L8.484375,18.7070349 C8.484375,18.8688318 8.35320313,18.9999842 8.19140625,18.9999842 C8.02960938,18.9999842 7.8984375,18.8688318 7.8984375,18.7070349 L7.8984375,18.7070349 L7.8984375,17.5157068 C7.8984375,17.3539099 8.02960938,17.2227576 8.19140625,17.2227576 L8.19140625,17.2227576 L8.34046875,17.2227576 L7.66841797,16.5595935 C7.24363281,16.1403943 7,15.5577185 7,14.9609607 L7,14.9609607 L7,12.2523279 C7,11.7623279 7.39867188,11.3637146 7.88869141,11.3637146 Z M16.1113281,11.9496326 C15.9443945,11.9496326 15.8085938,12.0854334 15.8085938,12.2523474 L15.8085938,12.2523474 L15.8089833,14.0660844 C15.8090059,14.1050063 15.809029,14.1420697 15.8090527,14.1773632 L15.8099496,14.8363023 C15.8099708,14.8418662 15.8099913,14.8467227 15.810011,14.8509601 L15.8102319,14.879165 L15.8102319,14.879165 L15.8025359,14.9981991 C15.7768772,15.1939777 15.6880697,15.3749158 15.5460938,15.5168592 L15.5460938,15.5168592 L14.6583398,16.404574 C14.5439258,16.5189881 14.358418,16.5189881 14.2440234,16.404574 C14.1296094,16.2901795 14.1296094,16.1046912 14.2440234,15.9902771 L14.2440234,15.9902771 L15.1317773,15.1025623 C15.2552734,14.9790467 15.2553125,14.779242 15.1317773,14.6557263 C15.009082,14.533031 14.8090625,14.5326209 14.6858594,14.6547693 L14.6858594,14.6547693 L13.659082,15.6728748 C13.24,16.0884021 12.9720117,16.6402381 12.8991016,17.2227381 L12.8991016,17.2227381 L14.9306641,17.2227381 C14.9354297,17.1515271 14.9657422,17.0842029 15.016875,17.0337537 L15.016875,17.0337537 L15.9200195,16.1425427 C16.2339844,15.8327185 16.4140625,15.4020349 16.4140625,14.9609607 L16.4140625,14.9609607 L16.4140625,12.2523474 C16.4140625,12.0854334 16.2782617,11.9496326 16.1113281,11.9496326 Z M7.88867188,11.9496131 C7.72173828,11.9496131 7.5859375,12.0854138 7.5859375,12.2523279 L7.5859375,12.2523279 L7.5859375,14.9609607 C7.5859375,15.4020349 7.76601563,15.8327185 8.07998047,16.1425623 L8.07998047,16.1425623 L8.983125,17.0337537 C9.03425781,17.0842029 9.06457031,17.1515271 9.06933594,17.2227576 L9.06933594,17.2227576 L11.100918,17.2227576 C11.0280078,16.6402771 10.7600195,16.0884217 10.3409375,15.6728943 L10.3409375,15.6728943 L9.31416016,14.6547888 C9.19095703,14.5326209 8.99091797,14.533031 8.86826172,14.6557068 C8.74472656,14.779242 8.74472656,14.9790662 8.86824219,15.1025623 L8.86824219,15.1025623 L9.75599609,15.9902771 C9.87041016,16.1046912 9.87041016,16.2901795 9.75599609,16.404574 C9.64158203,16.5189685 9.45607422,16.5189881 9.34167969,16.404574 L9.34167969,16.404574 L8.45392578,15.5168592 C8.27470703,15.3376599 8.17552734,15.0911756 8.19158203,14.8238904 L8.19140625,12.2523279 C8.19140625,12.0853943 8.05560547,11.9496131 7.88867188,11.9496131 Z M12,9.5517029 C13.0474609,8.37914431 14.992793,9.20383181 14.992793,10.8230115 C14.992793,11.5792615 14.5038867,12.378324 13.539668,13.1980115 C12.8502734,13.7840662 12.1703125,14.1621326 12.1416992,14.1779334 C12.0534961,14.2266638 11.9464844,14.2266443 11.8583008,14.1779334 C11.8296875,14.1621326 11.1497266,13.7840857 10.460332,13.1980115 C9.49611328,12.3783435 9.00720703,11.5792615 9.00720703,10.8230115 C9.00720703,9.20422243 10.9522656,8.37885134 12,9.5517029 Z M11.7432813,10.1990857 C11.4783203,9.7173279 11.0208594,9.49070681 10.5086914,9.62223025 C10.0529688,9.7392615 9.593125,10.1559412 9.593125,10.8230115 C9.593125,11.8921521 11.0894531,13.0333631 11.9999023,13.5821912 C12.9148242,13.0302576 14.4068555,11.8909021 14.4068555,10.8230115 C14.4068555,10.1559412 13.9470117,9.7392615 13.4912891,9.62223025 C12.9880273,9.4930115 12.5264453,9.70861696 12.2566992,10.1990857 C12.1455859,10.401156 11.8543945,10.4011756 11.7432813,10.1990857 Z" id="path-4"></path>
    </defs>
    <g id="1.-atom-/-Icons-/-donate" stroke="none" stroke-width="1" fill="none" fill-rule="evenodd">
        <g id="1.-atom-/-Hexagon" transform="translate(2.000000, 4.000000)" filter="url(#filter-1)">
            <g>
                <mask id="mask-3" fill="white">
                    <use xlink:href="#path-2"></use>
                </mask>
                <use id="Mask" fill="#A2DAF2" xlink:href="#path-2"></use>
                <g id="Group" mask="url(#mask-3)" fill="#DAE6FB">
                    <g id="4.-color-/-lightblue">
                        <rect id="Rectangle" x="0" y="0" width="20" height="20"></rect>
                    </g>
                </g>
            </g>
        </g>
        <mask id="mask-5" fill="white">
            <use xlink:href="#path-4"></use>
        </mask>
        <use id="Mask" fill="#000000" fill-rule="nonzero" xlink:href="#path-4"></use>
        <g id="Group" mask="url(#mask-5)" fill="#4D7CFF">
            <g id="4.-color-/-black">
                <rect id="Rectangle" x="0" y="0" width="24" height="24"></rect>
            </g>
        </g>
    </g>
</svg>