<?xml version="1.0" encoding="UTF-8"?>
<svg width="24px" height="24px" viewBox="0 0 24 24" version="1.1" xmlns="http://www.w3.org/2000/svg" xmlns:xlink="http://www.w3.org/1999/xlink">
    <title>1. atom / Icons / double coverage</title>
    <defs>
        <filter id="filter-1">
            <feColorMatrix in="SourceGraphic" type="matrix" values="0 0 0 0 0.854968 0 0 0 0 0.900611 0 0 0 0 0.983639 0 0 0 1.000000 0"></feColorMatrix>
        </filter>
        <polygon id="path-2" points="10.0069726 19.9793217 1.36 14.9898734 1.36 5.01097696 10.0069726 0.0216049598 18.6538689 5.01097696 18.6538689 14.9898734"></polygon>
        <path d="M12.4955492,11.8019996 C14.4337874,11.8019996 16.0104365,13.0099895 16.0104365,14.4937164 C16.0104365,14.6139094 15.9124641,14.7118818 15.7932811,14.7118818 C15.6882385,14.7118818 15.5953162,14.6330998 15.5791558,14.5290672 L15.5791558,14.5290672 L15.5741057,14.5038166 L15.5508751,14.4916963 C15.4640129,14.4502853 15.2731182,14.3816036 14.9691006,14.3816036 C14.6418525,14.3816036 14.4408575,14.4624056 14.3741959,14.5108868 L14.3741959,14.5108868 L14.3580355,14.5230071 L14.3519753,14.5522978 C14.3226846,14.64118 14.258043,14.6977414 14.1732009,14.7098617 C14.0782585,14.718952 13.9883663,14.6714808 13.9499853,14.5866387 L13.9499853,14.5866387 L13.9429152,14.5694682 L13.9257447,14.5623981 C13.8186821,14.5108868 13.4379026,14.4088743 12.7642159,14.3866537 L12.7642159,14.3866537 L12.7127046,14.3846337 L12.7127046,15.6623154 L13.6338475,15.2300246 C14.0378575,15.0391299 14.5145894,15.1512427 14.7933563,15.5027314 L14.7933563,15.5027314 L14.8186069,15.5340422 L15.8538826,15.0502402 C16.2407222,14.8694457 16.6992736,15.0088292 16.9204691,15.3734482 C17.0760129,15.6299946 16.9952109,15.9673429 16.7427047,16.1249069 L16.7427047,16.1249069 L13.370231,18.2217189 C12.9924816,18.4570548 12.5450405,18.5449269 12.1036595,18.4701851 L12.1036595,18.4701851 L10.0583587,18.1752578 C9.93008556,18.1520272 9.80484245,18.1520272 9.68666952,18.1752578 L9.68666952,18.1752578 L9.29679984,18.2459595 L9.34326099,18.5126061 C9.36346149,18.6307791 9.28467954,18.7439019 9.1665066,18.7641024 L9.1665066,18.7641024 L7.87367451,18.9964081 C7.86559431,18.9984282 7.85044393,18.9994382 7.83630358,18.9994382 C7.79186248,18.9974182 7.75146148,18.9842878 7.7161106,18.9610573 C7.66661937,18.9257064 7.63429857,18.8762152 7.62419832,18.8186437 L7.62419832,18.8186437 L7.0030329,15.2421449 C6.99293265,15.1855835 7.00606297,15.1280121 7.04040383,15.0805409 C7.07272463,15.0330698 7.12221586,15.002769 7.18079731,14.9916587 L7.18079731,14.9916587 L8.4695893,14.760363 C8.48170961,14.7583429 8.49382991,14.7573329 8.50595021,14.7573329 C8.55241136,14.7573329 8.59685246,14.7714733 8.63321337,14.7977339 C8.68068454,14.8300547 8.71199532,14.880556 8.72209557,14.9371174 L8.72209557,14.9371174 L8.79380735,15.3512277 L8.85541888,15.3168868 C9.52607553,14.9462076 10.3229853,14.9512577 10.9875818,15.3360773 L10.9875818,15.3360773 L11.8794339,15.85018 C11.9915467,15.9148216 12.12487,15.9249219 12.245063,15.8814908 L12.245063,15.8814908 L12.2783939,15.8693705 L12.2783939,14.3846337 L12.2258725,14.3866537 C11.5461257,14.4078642 11.1683763,14.5108868 11.0643437,14.5634081 L11.0643437,14.5634081 L11.0491933,14.5704783 L11.0411131,14.5866387 C10.9997021,14.6735008 10.9047598,14.7229921 10.8088074,14.7088517 C10.7168951,14.6926913 10.6461933,14.6209795 10.632053,14.5290672 L10.632053,14.5290672 L10.6280129,14.5038166 L10.6037723,14.4916963 C10.5340806,14.4583655 10.3381357,14.3816036 10.0219978,14.3816036 C9.63616826,14.3816036 9.45335372,14.4937164 9.43315322,14.5058367 L9.43315322,14.5058367 L9.41497277,14.517957 L9.41093267,14.5401775 C9.40285247,14.5846186 9.38164194,14.6260297 9.35033117,14.6553204 C9.30791011,14.6967314 9.26346901,14.7169319 9.20892766,14.7169319 C9.20488756,14.7169319 9.19983743,14.7159219 9.19478731,14.7159219 C9.07560435,14.7149119 8.97864194,14.6139094 8.97965197,14.4927063 C8.97965197,13.0099895 10.5563011,11.8019996 12.4955492,11.8019996 Z M8.33121587,15.2280046 L7.47067451,15.3825384 L8.00699782,18.4782653 L8.01608805,18.5277565 L8.87662941,18.3742327 L8.34030609,15.2785058 L8.33121587,15.2280046 Z M16.5477698,15.5996938 C16.4447473,15.4269795 16.2265819,15.3593079 16.0387172,15.44516 L16.0387172,15.44516 L14.984251,15.9380522 L14.9579904,15.9501725 L14.9549603,15.9774432 C14.9337498,16.1511675 14.8297172,16.3067114 14.6772034,16.3915535 L14.6772034,16.3915535 L12.8015868,17.4167289 C12.3854565,17.6449946 11.9046846,17.703576 11.4461332,17.582373 L11.4461332,17.582373 L9.75131112,17.1137214 L9.86645398,16.693551 L11.559256,17.1632126 C11.9117548,17.2551249 12.2773838,17.2076537 12.5925116,17.0349394 L12.5925116,17.0349394 L14.4681282,16.008754 C14.5226696,15.9794632 14.54186,15.9107815 14.5125693,15.8562402 C14.380256,15.607774 14.0772485,15.5067715 13.8186821,15.6229244 L13.8186821,15.6229244 L12.4632284,16.2602502 C12.2076921,16.3814532 11.9056946,16.3683229 11.6602585,16.2269194 L11.6602585,16.2269194 L10.7704264,15.7138267 C10.2038024,15.3855685 9.50991513,15.403749 8.96147151,15.7612978 L8.96147151,15.7612978 L8.87561938,15.8178592 L9.21296776,17.7661976 L9.22205798,17.8156888 L9.60889759,17.7470071 C9.7826219,17.7167064 9.95331614,17.7167064 10.1270404,17.7449871 L10.1270404,17.7449871 L12.1723412,18.0409244 C12.2501131,18.0540547 12.3278851,18.0611249 12.406667,18.0611249 C12.6642234,18.0611249 12.9177397,17.9894131 13.1399452,17.8510397 L13.1399452,17.8510397 L16.512419,15.7562477 C16.5649403,15.7229169 16.5800906,15.6532252 16.5477698,15.5996938 Z M12.4955492,12.2373204 C11.8228725,12.2373204 11.2340279,12.989789 11.0966645,14.0280948 L11.0966645,14.0280948 L11.0865643,14.1028367 L11.1592861,14.0836462 C11.5138049,13.9897139 11.8854941,13.9432527 12.285464,13.9483028 L12.285464,13.9483028 L12.6611934,13.9472928 C13.0641934,13.9371926 13.4550731,13.9836537 13.8308024,14.0836462 L13.8308024,14.0836462 L13.9035242,14.1028367 L13.8934239,14.0280948 C13.7560605,12.989789 13.1682259,12.2373204 12.4955492,12.2373204 Z M11.3229101,12.4059945 L11.1693863,12.4605359 C10.3472259,12.748393 9.74424095,13.2837063 9.51597528,13.9281023 L9.51597528,13.9281023 L9.4846645,14.0139545 L9.57455673,13.993754 C9.73414069,13.9584031 9.89877478,13.9503229 10.0240179,13.9472928 L10.0240179,13.9472928 L10.0583587,13.9462828 C10.2391532,13.9462828 10.4199477,13.9745635 10.5956921,14.0301149 L10.5956921,14.0301149 L10.6542735,14.0482953 L10.6603337,13.9866838 C10.7189151,13.4655108 10.91385,12.9635284 11.2269578,12.5383078 L11.2269578,12.5383078 L11.3229101,12.4059945 Z M13.6661683,12.4059945 L13.7631307,12.5383078 C14.0752285,12.9625184 14.2711733,13.4634908 14.3287447,13.9866838 L14.3287447,13.9866838 L14.3358149,14.0482953 L14.3943964,14.0301149 C14.5842811,13.9705234 14.7893162,13.9432527 14.9701107,13.9472928 C15.1004039,13.9503229 15.2559478,13.9584031 15.4165418,13.993754 L15.4165418,13.993754 L15.505424,14.0139545 L15.4751232,13.9281023 C15.2448375,13.2826963 14.6418525,12.748393 13.8207021,12.4605359 L13.8207021,12.4605359 L13.6661683,12.4059945 Z M12.4945392,9.00019 C13.9792761,9.00019 15.186256,9.92941307 15.186256,11.0757915 C15.1872661,11.0848817 15.185246,11.1000321 15.1771658,11.1212427 C15.1569653,11.216185 15.0761633,11.2848667 14.982231,11.2889068 C14.8822385,11.2878968 14.7973964,11.2323454 14.7670956,11.1475033 L14.7670956,11.1475033 L14.7610355,11.1293229 L14.742855,11.1202326 C14.6519528,11.0727614 14.5580204,11.0475108 14.4539879,11.0414507 L14.4539879,11.0414507 L14.2550129,11.0414507 C14.1479503,11.0485208 14.0499778,11.0737715 13.9610956,11.1182126 L13.9610956,11.1182126 L13.9429152,11.1273028 L13.935845,11.1454833 C13.9065543,11.2222452 13.8368625,11.2798166 13.7550505,11.2889068 C13.6772786,11.3010271 13.5934465,11.2616361 13.5479954,11.1899244 L13.5479954,11.1899244 L13.5378951,11.173764 L13.5207247,11.1687138 C13.3379102,11.1091224 13.1480254,11.0707414 12.9551106,11.053571 L12.9551106,11.053571 L12.7127046,11.0424607 L12.7127046,11.578784 L12.2773838,11.578784 L12.2773838,11.0444807 L12.2268826,11.0444807 C11.9673061,11.0475108 11.7127798,11.0889218 11.4693638,11.1687138 L11.4693638,11.1687138 L11.4521933,11.173764 L11.4420931,11.1899244 C11.398662,11.2596161 11.31786,11.295977 11.2330179,11.2889068 C11.1522159,11.2788066 11.0835342,11.2232552 11.0572735,11.1485133 L11.0572735,11.1485133 L11.0502034,11.1293229 L11.0320229,11.1202326 C10.9087999,11.0576111 10.7744665,11.0313504 10.6502334,11.0424607 C10.5007497,11.0293304 10.3674264,11.0596311 10.2472334,11.1202326 L10.2472334,11.1202326 L10.229053,11.1293229 L10.2229928,11.1475033 C10.1926921,11.2323454 10.1129001,11.2889068 10.0230079,11.2889068 C9.92099533,11.2889068 9.83413318,11.2192151 9.8109026,11.1131625 C9.80484245,11.1000321 9.8028224,11.0848817 9.80484245,11.0636712 C9.80383242,10.5172477 10.0825993,10.0011248 10.5886219,9.61024514 C11.0986846,9.21734539 11.7754014,9.00019 12.4945392,9.00019 Z M12.4945392,9.43450078 C12.042048,9.43450078 11.639048,9.92638299 11.5148149,10.6313805 L11.5148149,10.6313805 L11.5026946,10.7041023 L11.5744064,10.6889519 C11.8450931,10.6344106 12.1309302,10.6061299 12.4228274,10.6061299 C12.4480781,10.6061299 12.4723187,10.6071399 12.4965593,10.6071399 L12.7194276,10.6065718 C12.9429903,10.6130107 13.1770637,10.6404707 13.4156821,10.6889519 L13.4156821,10.6889519 L13.4884039,10.7041023 L13.4752736,10.6313805 C13.3510405,9.92638299 12.9480405,9.43450078 12.4945392,9.43450078 Z M13.5288049,9.61125517 L13.6085969,9.74760855 C13.7661608,10.0162752 13.8681733,10.3061524 13.9136244,10.61118 L13.9136244,10.61118 L13.9217046,10.6667314 L13.976246,10.652591 C14.0519979,10.6323905 14.1327999,10.6192602 14.2125919,10.61219 L14.2125919,10.61219 L14.3610656,10.6071399 C14.4307573,10.6071399 14.5044891,10.61219 14.580241,10.6233003 L14.580241,10.6233003 L14.6721533,10.6364306 L14.6337723,10.5515885 C14.4650981,10.1889895 14.1237097,9.87790179 13.6722285,9.67589677 L13.6722285,9.67589677 L13.5288049,9.61125517 Z M11.4622936,9.61125517 L11.31786,9.67589677 C10.8663788,9.87689176 10.5249903,10.1889895 10.3573262,10.5515885 L10.3573262,10.5515885 L10.3199552,10.6323905 L10.5239803,10.61118 L10.6552836,10.6071399 C10.7764866,10.6071399 10.8976896,10.6222903 11.0138425,10.652591 L11.0138425,10.652591 L11.0673738,10.6667314 L11.076464,10.61118 C11.1229252,10.3031223 11.2259477,10.0132451 11.3825016,9.74760855 L11.3825016,9.74760855 L11.4622936,9.61125517 Z" id="path-4"></path>
    </defs>
    <g id="1.-atom-/-Icons-/-double-coverage" stroke="none" stroke-width="1" fill="none" fill-rule="evenodd">
        <g id="1.-atom-/-Hexagon" transform="translate(2.000000, 4.000000)" filter="url(#filter-1)">
            <g>
                <mask id="mask-3" fill="white">
                    <use xlink:href="#path-2"></use>
                </mask>
                <use id="Mask" fill="#A2DAF2" xlink:href="#path-2"></use>
                <g id="Group" mask="url(#mask-3)" fill="#DAE6FB">
                    <g id="4.-color-/-lightblue">
                        <rect id="Rectangle" x="0" y="0" width="20" height="20"></rect>
                    </g>
                </g>
            </g>
        </g>
        <mask id="mask-5" fill="white">
            <use xlink:href="#path-4"></use>
        </mask>
        <use id="Mask" fill="#82C5A9" xlink:href="#path-4"></use>
        <g id="Group" mask="url(#mask-5)" fill="#4D7CFF">
            <g id="4.-color-/-black">
                <rect id="Rectangle" x="0" y="0" width="24" height="24"></rect>
            </g>
        </g>
    </g>
</svg>