<?xml version="1.0" encoding="UTF-8"?>
<svg width="24px" height="24px" viewBox="0 0 24 24" version="1.1" xmlns="http://www.w3.org/2000/svg" xmlns:xlink="http://www.w3.org/1999/xlink">
    <title>1. atom / Icons / Dienstleistungen / Gesundheit</title>
    <defs>
        <path d="M8.48492444,3 L8.48492444,3 C7.74457695,3 6.98336934,3.13587937 6.22253556,3.40387598 C4.57009971,3.98589999 3.2694448,5.16588176 2.56020058,6.72642904 C1.83854496,8.31434399 1.81334832,10.095308 2.48909672,11.741204 C3.00753435,13.0041002 3.80717244,14.1670418 5.00547069,15.401095 C6.52347463,16.9642241 8.37725928,18.3925066 10.6728449,19.7674553 C11.0887763,20.0165675 11.5334185,20.1428571 11.9945842,20.1428571 C12.461208,20.1428571 12.9137755,20.0133955 13.3398753,19.7580131 C15.3238301,18.5688842 16.981425,17.3327655 18.4073154,15.9790618 C19.6455394,14.8035798 20.514487,13.7064387 21.1419356,12.5263832 C22.0833328,10.7560417 22.2510362,8.97883985 21.6404851,7.24420174 C20.7506774,4.71627005 18.3112392,3.01785169 15.5703385,3.01785169 C14.275665,3.01785169 13.046413,3.39517144 11.9908459,4.11300106 C10.9104559,3.37377892 9.73526084,3 8.48492444,3 M8.48492444,4.47534605 C9.70258745,4.47534605 10.8279126,4.95822681 11.8425072,5.88658831 C11.8835546,5.92413586 11.9225832,5.9637489 11.9640043,6.00085386 C11.9720792,6.00808305 11.986958,6.00786175 12.0028834,6.01228779 C12.1970546,5.84498355 12.3856181,5.66720435 12.5898081,5.50904725 C13.4854476,4.81563461 14.5340614,4.49319773 15.5703385,4.49319773 C17.5630411,4.49319773 19.5090888,5.68616255 20.2279033,7.72818901 C20.7323594,9.16126639 20.5176272,10.524855 19.8177289,11.8409374 C19.1937944,13.0143539 18.3309778,14.0040898 17.3705149,14.9159274 C15.913596,16.2990643 14.2881512,17.4633337 12.5634899,18.4971086 C12.3753002,18.6098251 12.185017,18.6675111 11.9945842,18.6675111 C11.8120769,18.6675111 11.6294947,18.6144724 11.4488565,18.5063295 C9.49787412,17.3377817 7.66928611,16.0116669 6.08526249,14.3803768 C5.17070679,13.4386634 4.3772744,12.4106423 3.87498654,11.1872853 C2.81493335,8.60528223 4.06571836,5.73012786 6.72527203,4.79335689 C7.33066424,4.58009561 7.91781318,4.47534605 8.48492444,4.47534605" id="path-1"></path>
    </defs>
    <g id="1.-atom-/-Icons-/-Dienstleistungen-/-Gesundheit" stroke="none" stroke-width="1" fill="none" fill-rule="evenodd">
        <mask id="mask-2" fill="white">
            <use xlink:href="#path-1"></use>
        </mask>
        <use id="Mask" fill="#4D7CFF" xlink:href="#path-1"></use>
        <g id="Group" mask="url(#mask-2)" fill="#000000">
            <g id="4.-color-/-black">
                <rect id="Rectangle" x="0" y="0" width="24" height="24"></rect>
            </g>
        </g>
    </g>
</svg>