<?xml version="1.0" encoding="utf-8"?>
<!-- Generator: Adobe Illustrator 25.0.0, SVG Export Plug-In . SVG Version: 6.00 Build 0)  -->
<svg version="1.1" id="Ebene_1" xmlns="http://www.w3.org/2000/svg" xmlns:xlink="http://www.w3.org/1999/xlink" x="0px" y="0px"
	 viewBox="0 0 1000 1000" style="enable-background:new 0 0 1000 1000;" xml:space="preserve">
<style type="text/css">
	.st0{fill-rule:evenodd;clip-rule:evenodd;fill:#FFFFFF;}
	.st1{fill-rule:evenodd;clip-rule:evenodd;fill:#4D7CFF;}
</style>
<polygon class="st0" points="500,0 932.1,250 932.1,750 500,1000 67.9,750 67.9,250 "/>
<g id="Mask">
	<path id="path-1_1_" class="st1" d="M517.3,345.6c-43.7,0-80.3,14.3-110.1,42.8c-29.8,28.5-44.7,62.7-44.7,102.5
		c0,39.8,14.9,73.9,44.7,102.5c29.8,28.5,66.4,42.8,110.1,42.8c14.8,0,29.2-1.9,43.2-5.9c14-3.9,25.3-8.3,33.8-13.1
		c8.5-4.9,16.5-10.4,24-16.8c7.5-6.3,12.3-10.8,14.4-13.2c2.1-2.5,3.7-4.5,4.7-6l0,0l-51.7-54.8l-2.7,3.1c-2.2,2-5.2,4.6-9.1,7.7
		c-3.9,3.1-8.4,6.3-13.5,9.5c-5.1,3.2-11.4,5.8-18.9,7.9c-7.4,2-14.9,3.1-22.5,3.1c-19.6,0-36-6.4-49-19.2
		c-13.1-12.8-19.7-28.6-19.7-47.4c0-18.9,6.5-34.7,19.7-47.6c13.1-12.9,29.4-19.3,49-19.3c7.3,0,14.5,1.1,21.7,3.3
		c7.2,2.3,13.2,4.7,17.9,7.5c4.7,2.7,9.2,5.9,13.5,9.6c4.2,3.7,7,6.2,8.4,7.7c1.3,1.5,2.4,2.6,3.2,3.4l0,0l52.8-55.1l-4.2-5.5
		c-3.2-3.9-8.2-8.5-14.9-13.8c-6.8-5.4-14.6-10.7-23.5-16.1c-8.9-5.4-20.2-10-33.9-13.8C546.5,347.5,532.3,345.6,517.3,345.6z"/>
</g>
</svg>
