<?xml version="1.0" encoding="UTF-8"?>
<svg width="24px" height="24px" viewBox="0 0 24 24" version="1.1" xmlns="http://www.w3.org/2000/svg" xmlns:xlink="http://www.w3.org/1999/xlink">
    <title>1. atom / Icons / honestly</title>
    <defs>
        <filter id="filter-1">
            <feColorMatrix in="SourceGraphic" type="matrix" values="0 0 0 0 0.854968 0 0 0 0 0.900611 0 0 0 0 0.983639 0 0 0 1.000000 0"></feColorMatrix>
        </filter>
        <polygon id="path-2" points="10.0069726 19.9793217 1.36 14.9898734 1.36 5.01097696 10.0069726 0.0216049598 18.6538689 5.01097696 18.6538689 14.9898734"></polygon>
        <path d="M6.26500781,10.5003399 C6.78,10.530832 8.49349219,10.6623399 8.922,11.0683477 C8.9775,11.120332 9.00550781,11.195332 8.99899219,11.2713399 C8.99273424,11.343027 8.98420167,11.418801 8.97365824,11.4980118 L10.9740074,11.4993259 C11.6185033,10.9909781 12.2001568,10.8681687 13.1020078,11.2713164 C13.6301843,11.5077655 14.1589347,11.7165553 14.5370144,11.8597942 C14.5070899,11.8040773 14.5012908,11.7395056 14.5189922,11.6788477 C14.5389844,11.6103399 14.5875,11.553832 14.6524922,11.5233399 C14.6979844,11.5023399 15.7869844,10.9998399 17.7499922,10.9998399 C17.8879922,10.9998399 18,11.111332 18,11.2498242 L18,11.2498242 L18,15.7498242 C18,15.8878242 17.8879922,15.9998399 17.7499922,15.9998399 L17.7499922,15.9998399 L16.2499922,15.9998399 C16.1374922,15.9998399 16.0389844,15.924832 16.0089844,15.8163399 C15.9926292,15.757075 15.9702316,15.6816583 15.9427705,15.5930501 L15.5463559,15.8565693 C15.6000648,16.1371432 15.5034006,16.4189547 15.2749688,16.6143164 C15.1054688,16.7598164 14.9004844,16.8303164 14.7014766,16.8198164 C14.6294766,17.000332 14.4844922,17.154832 14.2839844,17.2558242 C14.079,17.3588086 13.8534844,17.3883164 13.6564922,17.3463164 C13.5504844,17.5613086 13.3635,17.7388008 13.1359922,17.8268086 C12.9435,17.9018086 12.7434844,17.9013164 12.5674922,17.8328086 C12.4360078,17.943293 12.2464922,17.9998008 12,17.9998008 C11.6929922,17.9998008 11.2965,17.8298086 11.1124922,17.7088008 C10.928858,17.5881666 10.1375454,16.9961723 9.34399247,16.3556206 L9.00552633,16.0793582 L9.00552633,16.0793582 L8.8395,15.9413086 C8.68448438,15.8113008 8.454,15.570293 8.23099219,15.3373008 C8.16585165,15.2694019 8.10311138,15.2036744 8.04624751,15.1449339 C8.01309228,15.2487939 7.99251266,15.3119542 7.9875,15.3273399 C7.95400781,15.4303477 7.85800781,15.4998399 7.75000781,15.4998399 L7.75000781,15.4998399 L6.25000781,15.4998399 C6.11200781,15.4998399 6,15.387832 6,15.249832 L6,15.249832 L6,10.749832 C6,10.680832 6.0285,10.614832 6.07851563,10.5678399 C6.12850781,10.520332 6.19401563,10.4968477 6.26500781,10.5003399 Z M10.423,11.999 L8.89034621,11.9991501 C8.72418522,12.8594977 8.42216647,13.9164981 8.21320443,14.6061139 C8.30526293,14.6922655 8.44363057,14.8358586 8.59249219,14.991293 L8.59249219,14.991293 L8.80088108,15.207832 C8.93965885,15.3506862 9.07199219,15.4828008 9.16099219,15.5578008 C10.1114766,16.3538086 11.2119844,17.1748008 11.3874844,17.2903008 C11.5339688,17.3873086 11.8334766,17.4998086 11.9999766,17.4998086 C12.0491064,17.4998086 12.0888696,17.4971637 12.1211214,17.4927531 C11.740366,17.1358081 11.2364683,16.6012624 11.0674922,16.4203477 C10.9734844,16.319332 10.9785,16.1613399 11.0794922,16.0668399 C11.1799922,15.9723399 11.3385,15.9778477 11.433,16.0788399 C11.5755,16.2313477 12.3049922,17.0078555 12.6615,17.3083477 C12.6636529,17.3101638 12.6657675,17.3120085 12.6678437,17.3138808 C12.7684688,17.4063164 12.8794688,17.3888086 12.9559688,17.3598164 C13.0768818,17.312903 13.1762601,17.2101276 13.2232575,17.0912211 C12.8076926,16.7199037 12.0741066,15.9279224 12.0659766,15.9193477 C11.9724844,15.8178399 11.9794687,15.659332 12.0809766,15.5658399 C12.1829766,15.4728399 12.3404766,15.4788399 12.4344844,15.5808399 C12.6045,15.765832 13.3569844,16.565332 13.6564922,16.8048399 C13.6597832,16.8074723 13.66299,16.8101717 13.6661119,16.8129347 C13.7329922,16.8753399 13.8999844,16.889332 14.0599922,16.808332 C14.1111589,16.7827487 14.2167441,16.7179129 14.2455001,16.6092793 C13.87281,16.2703344 12.9361059,15.2939406 12.8199844,15.1728633 C12.7244766,15.0733477 12.7274766,14.9148633 12.8274844,14.8193555 C12.927,14.7233555 13.0854844,14.7268477 13.1809922,14.8268555 C13.6759922,15.3428555 14.4765,16.1623477 14.6554922,16.3033477 L14.6472821,16.2978305 C14.7218481,16.3445372 14.8533138,16.3168397 14.9499844,16.233832 C15.0174844,16.1763399 15.117,16.050832 15.0244922,15.8583399 C14.8369922,15.4683399 14.0034844,14.7943242 13.2684844,14.199832 C12.8619844,13.871332 12.4759922,13.5588399 12.1899844,13.2903399 C12.1169766,13.3198477 12.0619688,13.3443399 12.0149766,13.3653399 C11.8849922,13.4238399 11.7984844,13.4598399 11.6394844,13.484332 C11.2544766,13.9953164 10.7374922,14.174332 10.1709844,13.9873242 C9.945,13.9128399 9.79298438,13.752832 9.74149219,13.536832 C9.62149219,13.0293164 10.086,12.3373242 10.428,11.9953242 L10.423,11.999 Z M17.5000078,11.5028555 C16.3105078,11.5308399 15.4909922,11.7533555 15.1095,11.8828477 C15.4999922,12.714832 16.2,14.727832 16.437,15.4998399 L16.437,15.4998399 L17.5000078,15.4998399 Z M12.8975156,11.7283242 C12.0125156,11.3328164 11.5935234,11.5363242 10.7810156,12.3493242 C10.4395313,12.690832 10.1760234,13.2018399 10.2285234,13.421332 C10.2360234,13.4533242 10.2500156,13.4868399 10.3280156,13.512832 C10.5725156,13.5948164 10.9385156,13.6398164 11.2920234,13.1113242 C11.3335313,13.049332 11.4005156,13.0093242 11.4750234,13.0018242 C11.6435391,12.984832 11.6855391,12.9658242 11.8105313,12.909832 C11.8925156,12.8733399 11.9965313,12.8263477 12.1650234,12.7653399 C12.2555156,12.732832 12.3580078,12.7548399 12.4265156,12.8238399 C12.7000078,13.097332 13.1290078,13.4443242 13.5830156,13.811332 C14.2717716,14.3685244 14.9809498,14.9421953 15.3255285,15.4029774 L15.7823131,15.0972259 C15.5383205,14.3653978 15.1674934,13.3258499 14.8792031,12.6117114 L14.83414,12.5027361 C14.5722357,12.4089525 13.7341758,12.1024844 12.8975156,11.7283242 Z M6.49999219,11.0178399 L6.49999219,14.9998477 L7.5675,14.9998477 C7.7535,14.412832 8.35300781,12.467332 8.4855,11.372332 C8.1705,11.219332 7.3035,11.081332 6.49999219,11.0178399 L6.49999219,11.0178399 Z" id="path-4"></path>
    </defs>
    <g id="1.-atom-/-Icons-/-honestly" stroke="none" stroke-width="1" fill="none" fill-rule="evenodd">
        <g id="1.-atom-/-Hexagon" transform="translate(2.000000, 4.000000)" filter="url(#filter-1)">
            <g>
                <mask id="mask-3" fill="white">
                    <use xlink:href="#path-2"></use>
                </mask>
                <use id="Mask" fill="#A2DAF2" xlink:href="#path-2"></use>
                <g id="Group" mask="url(#mask-3)" fill="#DAE6FB">
                    <g id="4.-color-/-lightblue">
                        <rect id="Rectangle" x="0" y="0" width="20" height="20"></rect>
                    </g>
                </g>
            </g>
        </g>
        <mask id="mask-5" fill="white">
            <use xlink:href="#path-4"></use>
        </mask>
        <use id="Mask" fill="#000000" fill-rule="nonzero" xlink:href="#path-4"></use>
        <g id="Group" mask="url(#mask-5)" fill="#4D7CFF">
            <g id="4.-color-/-black">
                <rect id="Rectangle" x="0" y="0" width="24" height="24"></rect>
            </g>
        </g>
    </g>
</svg>