<?xml version="1.0" encoding="UTF-8"?>
<svg width="24px" height="24px" viewBox="0 0 24 24" version="1.1" xmlns="http://www.w3.org/2000/svg" xmlns:xlink="http://www.w3.org/1999/xlink">
    <title>1. atom / Icons / Member</title>
    <defs>
        <path d="M18.5104297,14.9895703 C17.584627,14.0638008 16.4826816,13.3784551 15.2803965,12.963582 C16.5680801,12.0766934 17.4140625,10.5924141 17.4140625,8.9140625 C17.4140625,6.20445508 15.2096074,4 12.5,4 C9.79039258,4 7.5859375,6.20445508 7.5859375,8.9140625 C7.5859375,10.5924141 8.43191992,12.0766934 9.71963672,12.963582 C8.51735156,13.3784551 7.41540625,14.0638008 6.48960352,14.9895703 C4.88416602,16.595041 4,18.7295703 4,21 L5.328125,21 C5.328125,17.0454082 8.5454082,13.828125 12.5,13.828125 C16.4545918,13.828125 19.671875,17.0454082 19.671875,21 L21,21 C21,18.7295703 20.115834,16.595041 18.5104297,14.9895703 Z M12.5,12.5 C10.5227207,12.5 8.9140625,10.891375 8.9140625,8.9140625 C8.9140625,6.93675 10.5227207,5.328125 12.5,5.328125 C14.4772793,5.328125 16.0859375,6.93675 16.0859375,8.9140625 C16.0859375,10.891375 14.4772793,12.5 12.5,12.5 Z" id="path-1"></path>
    </defs>
    <g id="1.-atom-/-Icons-/-Member" stroke="none" stroke-width="1" fill="none" fill-rule="evenodd">
        <mask id="mask-2" fill="white">
            <use xlink:href="#path-1"></use>
        </mask>
        <use id="Mask" fill="#000000" fill-rule="nonzero" xlink:href="#path-1"></use>
        <g id="Group" mask="url(#mask-2)" fill="#000000">
            <g id="4.-color-/-black">
                <rect id="Rectangle" x="0" y="0" width="24" height="24"></rect>
            </g>
        </g>
    </g>
</svg>