<?xml version="1.0" encoding="UTF-8"?>
<svg width="24px" height="24px" viewBox="0 0 24 24" version="1.1" xmlns="http://www.w3.org/2000/svg" xmlns:xlink="http://www.w3.org/1999/xlink">
    <title>1. atom / Icons / Income</title>
    <defs>
        <path d="M4.70483926,13.2760252 C5.39195037,13.2763467 5.73203926,13.6123467 5.73603926,14.29288 L5.73612815,14.5009689 L5.73612815,14.5009689 C5.83417259,14.47368 5.91621704,14.4559022 5.9948837,14.4284356 C7.40092815,13.9363467 8.83381704,13.8423022 10.2808393,14.1925244 C11.4596837,14.4779467 12.6276837,14.8081689 13.8013726,15.1151022 C13.9873281,15.1637244 14.1777281,15.1957244 14.3664393,15.2334133 C15.2755059,15.4148356 15.6403948,15.8886133 15.5697281,16.8565244 C16.0265281,16.7502133 16.468217,16.6463022 16.9103504,16.5447911 C17.7288393,16.3570578 18.3729281,15.8547467 19.0395948,15.3853244 C19.3948837,15.1351022 19.7753281,14.9145689 20.1639504,14.7198133 C20.3693726,14.61688 20.6148837,14.5590133 20.8455504,14.5477244 C21.5444837,14.5135911 22.0301726,15.1293244 21.8957726,15.8692356 C21.7436837,16.7070133 21.2917726,17.3795467 20.6557726,17.9190133 C19.7107059,18.7207022 18.615417,19.2835467 17.5013726,19.8069244 C15.8237726,20.5951911 14.0397726,20.8483467 12.2055504,20.8337689 C10.0843059,20.81688 8.02741704,20.4190133 6.01186148,19.7791911 C5.92821704,19.7526133 5.84350592,19.7291467 5.73417259,19.69688 C5.73417259,19.8130578 5.73879481,19.9081689 5.73337259,20.0027467 C5.70643926,20.4734133 5.36101704,20.8294133 4.88963926,20.8382133 C4.2084837,20.8509244 3.52670592,20.8516356 2.84555037,20.8379467 C2.34732815,20.8279022 2.00643926,20.4543911 2.00306148,19.9332356 C1.99737259,19.0443467 2.00137259,18.1553689 2.0012837,17.2663911 L2.00155037,14.2885244 L2.00155037,14.2885244 C2.00217259,13.6190133 2.34297259,13.28008 3.01603926,13.2781244 C3.57897259,13.2765244 4.14190592,13.2758133 4.70483926,13.2760252 Z M5.97755037,15.2886133 C5.81186148,15.3511911 5.7428837,15.4356356 5.7444837,15.6070133 C5.74919481,16.1180356 5.74617259,16.6290578 5.74617259,17.14008 L5.73612815,17.14008 C5.73612815,17.6438133 5.74066148,18.1475467 5.73294521,18.6511022 C5.73097259,18.7849689 5.77221704,18.8465689 5.90279481,18.8830133 C6.1804837,18.9605244 6.4516837,19.0607911 6.72803926,19.1433689 C8.35941704,19.6308356 10.0235948,19.93368 11.7256393,20.0115467 C12.9147059,20.0658578 14.0952393,19.9796356 15.256217,19.7141244 C16.9361281,19.3300356 18.4195948,18.5195467 19.8232393,17.5497689 C20.3847504,17.1617689 20.8012837,16.6471911 21.0350615,15.9995467 C21.105017,15.8057689 21.1996837,15.5508356 21.0091059,15.4241689 C20.8911504,15.34568 20.6545281,15.44168 20.4721281,15.4668356 C20.4229726,15.4735911 20.3741726,15.5026578 20.3310615,15.5303911 C19.9579059,15.77048 19.5659059,15.9871022 19.217817,16.2596356 C18.5355948,16.7941244 17.7828837,17.1620356 16.9453726,17.3786578 C15.3958615,17.7795467 13.8283948,17.9262133 12.2344393,17.7602578 C11.8662615,17.7219467 11.4977281,17.6836356 11.1312393,17.6323467 C10.8793281,17.5971467 10.7379948,17.4174133 10.7573726,17.1903911 C10.7765726,16.9663911 10.9523948,16.8212356 11.2053726,16.8278133 C11.3011948,16.8302133 11.3963948,16.8506578 11.4923059,16.8566133 C12.3262615,16.9093244 13.160217,16.9655022 13.9947059,17.0077244 C14.1376393,17.0149244 14.2915948,16.9822133 14.4264393,16.9311911 C14.6508837,16.8463911 14.8093726,16.6159022 14.7805726,16.4426578 C14.741817,16.2098578 14.5637726,16.1212356 14.3591504,16.0729689 C14.1288393,16.0186578 13.8951504,15.9775911 13.666617,15.9167911 C12.6228837,15.6386578 11.5812837,15.3519911 10.5371948,15.0751022 C8.99559481,14.6661244 7.47577259,14.7230133 5.97755037,15.2886133 Z M3.8820837,14.5316356 C3.51630592,14.5265689 3.20981704,14.8268356 3.21123433,15.1885244 C3.21266148,15.5429244 3.50919481,15.8342133 3.86857259,15.8343022 C4.22626148,15.8343911 4.52492815,15.5429244 4.52883926,15.1897689 C4.53266148,14.8382133 4.23612815,14.5363467 3.8820837,14.5316356 Z M13.3225015,4 C15.7141459,4 17.6529015,5.93875556 17.6529015,8.3304 C17.6529015,10.7220444 15.7141459,12.6608889 13.3225015,12.6608889 C10.930857,12.6608889 8.99210148,10.7220444 8.99210148,8.3304 C8.99210148,5.93875556 10.930857,4 13.3225015,4 Z" id="path-1"></path>
    </defs>
    <g id="1.-atom-/-Icons-/-Income" stroke="none" stroke-width="1" fill="none" fill-rule="evenodd">
        <mask id="mask-2" fill="white">
            <use xlink:href="#path-1"></use>
        </mask>
        <use id="Mask" fill="#000000" xlink:href="#path-1"></use>
        <g id="Group" mask="url(#mask-2)" fill="#000000">
            <g id="4.-color-/-black">
                <rect id="Rectangle" x="0" y="0" width="24" height="24"></rect>
            </g>
        </g>
    </g>
</svg>