<?xml version="1.0" encoding="UTF-8"?>
<svg width="31px" height="30px" viewBox="0 0 31 30" version="1.1" xmlns="http://www.w3.org/2000/svg" xmlns:xlink="http://www.w3.org/1999/xlink">
    <title>2. molecule / Icon SoMe / Footer</title>
    <defs>
        <path d="M15,0 C6.71699525,0 0,6.71699525 0,15 C0,23.2830047 6.71699525,30 15,30 C23.2830047,30 30,23.2830047 30,15 C30,6.71699525 23.2830047,0 15,0 Z" id="path-1"></path>
        <path d="M12.978002,3.95833333 C14.1159053,3.95833333 15.0416667,4.88409473 15.0416667,6.02201969 L15.0416667,6.02201969 L15.0416667,12.9779803 C15.0416667,14.1159053 14.1159053,15.0416667 12.978002,15.0416667 L12.978002,15.0416667 L6.02204134,15.0416667 C4.88411637,15.0416667 3.95833333,14.1159053 3.95833333,12.9779803 L3.95833333,12.9779803 L3.95833333,6.02201969 C3.95833333,4.88409473 4.88411637,3.95833333 6.02204134,3.95833333 L6.02204134,3.95833333 Z M9.5,7.08850911 C8.17028141,7.08850911 7.08850911,8.17032471 7.08850911,9.5 C7.08850911,10.8296753 8.17028141,11.9114909 9.5,11.9114909 C10.8297186,11.9114909 11.9114909,10.8296969 11.9114909,9.5 C11.9114909,8.17030306 10.8297186,7.08850911 9.5,7.08850911 Z M9.5,7.73792318 C10.4716317,7.73792318 11.2620768,8.52838997 11.2620768,9.5 C11.2620768,10.47161 10.47161,11.2620768 9.5,11.2620768 C8.52838997,11.2620768 7.73792318,10.47161 7.73792318,9.5 C7.73792318,8.52838997 8.52836833,7.73792318 9.5,7.73792318 Z M12.6302407,6.04509554 C12.5447345,6.04509554 12.4609601,6.07970931 12.4005646,6.14034294 C12.3401691,6.2007168 12.3055337,6.28431803 12.3055337,6.36980257 C12.3055337,6.45530876 12.3401691,6.53908317 12.4005646,6.59947868 C12.4609601,6.65987419 12.5447345,6.6945096 12.6302407,6.6945096 C12.7157686,6.6945096 12.7993265,6.65987419 12.8597004,6.59947868 C12.920334,6.53908317 12.9549478,6.45530876 12.9549478,6.36980257 C12.9549478,6.28429639 12.920334,6.2007168 12.8597004,6.14034294 C12.7993265,6.07973096 12.7155304,6.04509554 12.6302407,6.04509554 Z" id="path-3"></path>
    </defs>
    <g id="3.-Symbole---Organismus" stroke="none" stroke-width="1" fill="none" fill-rule="evenodd">
        <g id="3.-organism-/-footer" transform="translate(-942.000000, -169.000000)">
            <g id="SoMe-Icons-+-Newsletter" transform="translate(727.000000, 169.000000)">
                <g id="2.-molecule-/-Icon-SoMe-/-Footer" transform="translate(213.250000, 0.000000)">
                    <g id="4.-color-/-white" transform="translate(1.875000, 0.000000)">
                        <mask id="mask-2" fill="white">
                            <use xlink:href="#path-1"></use>
                        </mask>
                        <use id="Mask" fill="#FFFFFF" fill-rule="nonzero" xlink:href="#path-1"></use>
                        <g id="Group" mask="url(#mask-2)" stroke="#FFFFFF" stroke-width="2">
                            <g id="4.-color-/-white-secondary">
                                <rect id="Rectangle" x="0" y="0" width="30" height="30"></rect>
                            </g>
                        </g>
                    </g>
                    <g id="1.-atom-/-Icons-/-soMe-/-linkedin" transform="translate(7.937500, 6.000000)">
                        <mask id="mask-4" fill="white">
                            <use xlink:href="#path-3"></use>
                        </mask>
                        <use id="Mask" fill="#000000" fill-rule="nonzero" xlink:href="#path-3"></use>
                        <g id="Group" mask="url(#mask-4)" fill="#000000">
                            <g id="4.-color-/-black">
                                <rect id="Rectangle" x="0" y="0" width="19" height="19"></rect>
                            </g>
                        </g>
                    </g>
                </g>
            </g>
        </g>
    </g>
</svg>