<?xml version="1.0" encoding="UTF-8"?>
<svg width="24px" height="24px" viewBox="0 0 24 24" version="1.1" xmlns="http://www.w3.org/2000/svg" xmlns:xlink="http://www.w3.org/1999/xlink">
    <title>1. atom / Icons / Dienstleistungen / Versicherungen</title>
    <defs>
        <path d="M10.9981745,2.49296639 C11.7309738,1.83755873 12.2750443,1.8359019 13.0051338,2.48668787 L13.0051338,2.48668787 L13.1744565,2.63789555 C13.8912588,3.27969975 14.5683748,3.88583848 15.4378911,4.22522733 C16.4714851,4.62862221 17.6051693,4.68748333 18.8073867,4.40041547 C19.0913104,4.33274698 19.3400932,4.36457558 19.5270738,4.49250042 C19.6514652,4.57769644 19.8091617,4.7492221 19.8539182,5.08303005 C19.9206158,5.58138752 19.9635365,6.12788032 19.9887994,6.80308276 C20.004097,7.21197133 20.0004256,7.6259176 19.9968416,8.02608601 C19.9953555,8.20188456 19.993782,8.3776831 19.993782,8.55330724 C20.0360035,10.8660696 19.8377464,12.7656705 19.3699017,14.5311553 C18.9320404,16.1837139 17.9515946,17.4749961 17.1464158,18.4153788 C15.9949864,19.7599411 14.5647908,21.0412823 12.7740087,22.3327389 C12.4587031,22.5601608 12.2338719,22.6736974 12.0101771,22.6736974 C11.7884054,22.6736974 11.5675954,22.5621664 11.2605941,22.3394534 C8.94925616,20.6628271 7.27324984,19.0507301 5.98623992,17.2660609 C5.26847599,16.2709156 4.7823616,15.1514207 4.50009882,13.8436574 C3.8463226,10.814359 3.95550384,7.78436302 4.14860341,5.21984945 C4.17334183,4.89153521 4.28182375,4.65347468 4.47116448,4.5123824 C4.65831983,4.37285974 4.91287208,4.33640945 5.22800288,4.40425234 C6.97472788,4.78000428 8.40081493,4.5388045 9.58782217,3.66670071 C10.0935175,3.29504725 10.5809431,2.86601509 10.9981745,2.49296639 Z M11.9977642,3.76977307 C11.9491615,3.80186328 11.8511694,3.89813391 11.7835976,3.96440718 C10.0855627,5.63152848 8.08988005,6.37126014 5.85118387,6.16354579 C5.76027235,6.15517444 5.72224686,6.16241217 5.71000877,6.16598744 C5.70458904,6.17767246 5.69200129,6.21420996 5.68719347,6.30664372 C5.56883367,8.60562823 5.60362481,10.3531495 5.79987131,11.9730075 C5.96517293,13.3378878 6.23720817,14.7750584 7.10078019,16.0379128 C8.22301298,17.679048 9.70189865,19.1517968 11.8961881,20.8131628 C11.9791448,20.8758608 12.0294084,20.9022829 12.1808985,20.7684283 C12.5247888,20.4643561 12.8786444,20.1605456 13.2208738,19.8668504 C13.9382007,19.2511195 14.6799163,18.614373 15.3628891,17.9458851 C16.7155476,16.6218151 17.5131214,15.3375963 17.873096,13.9042626 C18.3430386,12.0330894 18.3805396,10.1481384 18.3552767,8.5511272 L18.3552767,8.5511272 C18.3551893,8.33382067 18.3546648,8.1200022 18.3540529,7.90618373 C18.3526543,7.37477683 18.3511682,6.82523198 18.3589482,6.28397128 C18.3598223,6.21909325 18.3530914,6.18918308 18.3494199,6.17775966 C18.3356958,6.17244036 18.2968836,6.16249937 18.1976676,6.16040653 L18.1976676,6.16040653 L17.8713477,6.15465123 C17.2009627,6.14357661 16.5077623,6.132066 15.8344926,6.01966306 C14.4079685,5.78151533 13.31467,4.90932434 12.2281899,3.95969829 L12.2281899,3.95969829 L12.2073852,3.94147314 C12.1254774,3.86979338 12.041122,3.79602077 11.9977642,3.76977307 Z M14.8521641,9.72506256 C15.1600821,9.66439786 15.4536783,9.72606603 15.7252338,9.90742155 C15.9409903,10.0516484 15.9935344,10.2721395 15.8623136,10.4829608 C15.7698731,10.631384 15.6595769,10.7577308 15.5432358,10.8483173 C14.981618,11.2856505 14.5328073,11.8139351 14.1678813,12.2730711 C13.7318115,12.8216077 13.3655834,13.4018906 12.966062,14.0489503 C12.8055466,14.3086682 12.6243856,14.5057144 12.412163,14.6512185 C12.1774349,14.8122308 11.9577725,14.8909581 11.7372731,14.8909581 C11.6502265,14.8909581 11.5630869,14.8787339 11.4748314,14.854468 C11.1968589,14.7780214 11.0412725,14.5692071 10.9173055,14.3795501 C10.6001807,13.8942325 10.2473445,13.3818211 9.81713352,12.9227763 C9.73706183,12.8373896 9.64666731,12.7605781 9.55097187,12.6792965 C9.50614661,12.6412556 9.46132134,12.6031235 9.41742606,12.5640792 C9.34851419,12.5025935 9.13880262,12.3157645 9.19934463,12.0319631 C9.22984813,11.8889222 9.33028649,11.7000862 9.63550749,11.6124189 C10.0493507,11.4933701 10.4557541,11.5782094 10.8439297,11.8640177 C11.191186,12.1196305 11.495663,12.4514162 11.8007911,12.9068119 L11.8007911,12.9068119 L11.8103699,12.8923984 C11.8957425,12.763771 11.9779532,12.6399785 12.0627678,12.5179193 C12.5893251,11.7600211 13.1658227,10.9630785 13.9106475,10.2808059 C14.1714153,10.0419786 14.4588736,9.80233022 14.8521641,9.72506256 Z" id="path-1"></path>
    </defs>
    <g id="1.-atom-/-Icons-/-Dienstleistungen-/-Versicherungen" stroke="none" stroke-width="1" fill="none" fill-rule="evenodd">
        <mask id="mask-2" fill="white">
            <use xlink:href="#path-1"></use>
        </mask>
        <use id="Mask" fill="#4D7CFF" xlink:href="#path-1"></use>
        <g id="Group" mask="url(#mask-2)" fill="#2E4A8C">
            <g id="4.-color-/-black">
                <rect id="Rectangle" x="0" y="0" width="24" height="24"></rect>
            </g>
        </g>
    </g>
</svg>