<?xml version="1.0" encoding="UTF-8"?>
<svg width="24px" height="24px" viewBox="0 0 24 24" version="1.1" xmlns="http://www.w3.org/2000/svg" xmlns:xlink="http://www.w3.org/1999/xlink">
    <title>1. atom / Icons / knowhow</title>
    <defs>
        <filter id="filter-1">
            <feColorMatrix in="SourceGraphic" type="matrix" values="0 0 0 0 0.854968 0 0 0 0 0.900611 0 0 0 0 0.983639 0 0 0 1.000000 0"></feColorMatrix>
        </filter>
        <polygon id="path-2" points="10.0069726 19.9793217 1.36 14.9898734 1.36 5.01097696 10.0069726 0.0216049598 18.6538689 5.01097696 18.6538689 14.9898734"></polygon>
        <path d="M12.0030224,9.00541188 C12.1961532,8.99542255 12.3897512,8.9992656 12.5823333,9.0169116 C12.6417562,9.02244908 12.693711,9.0592681 12.718627,9.11349929 C12.7435429,9.16773048 12.7376345,9.23113483 12.7031276,9.27982854 C12.6686206,9.32852225 12.6107574,9.35510759 12.5513345,9.3495701 C12.3749071,9.33290441 12.1974997,9.32911669 12.0205217,9.33823705 C11.4945294,9.37518169 10.9719374,9.45049126 10.4569156,9.56356485 C9.7836083,9.69722824 9.28196104,9.93588905 8.96330671,10.2733808 C8.70010194,10.5552904 8.49669099,10.887567 8.36532984,11.2501901 C8.30362662,11.4305768 8.25352625,11.6147261 8.21533565,11.8015099 C8.17477784,11.9572324 8.118954,12.1085729 8.04867543,12.2533322 C8.01734331,12.3234971 7.98584453,12.3934954 7.95867891,12.464827 C7.94236484,12.5022955 7.93320754,12.5424865 7.93167996,12.5833241 C7.93884635,12.6324895 8.00267721,12.6908214 8.0701746,12.7528199 C8.20805468,12.8498456 8.29721081,13.0017839 8.31466514,13.1694764 C8.31155237,13.24865 8.28949144,13.3259215 8.25033429,13.3948042 C8.04174257,13.8342116 7.78608959,14.2496885 7.4878638,14.6339404 C7.36103537,14.7884366 7.33386976,14.8496018 7.33386976,14.8749345 C7.36468121,14.9049052 7.3981507,14.9320159 7.43386589,14.9559325 C7.47736694,14.986277 7.52329896,15.0129781 7.57119391,15.0357639 C7.71335507,15.1084288 7.90818087,15.208093 7.94801266,15.4114214 C7.97198035,15.5372961 7.95649796,15.6675013 7.90368104,15.7842455 C7.87468216,15.8454107 7.84468332,15.8994094 7.81851767,15.9454082 C7.810018,15.9597412 7.80135167,15.9757408 7.79335198,15.9902405 C7.86334927,16.0459058 7.95684565,16.1165707 7.99667744,16.1459033 C8.03303437,16.1726594 8.05698295,16.2130192 8.06304562,16.2577516 C8.06910829,16.3024841 8.05676642,16.3477625 8.02884286,16.3832308 C8.00402602,16.4154561 7.98247631,16.4500701 7.96451202,16.4865616 L7.96451202,16.4865616 L8.00034397,16.5070611 C8.14735117,16.5704942 8.25959792,16.6945997 8.30799873,16.8472195 C8.33253135,16.9663398 8.32680125,17.0897105 8.29133271,17.206044 C8.28366634,17.2400431 8.27583331,17.2750423 8.27100016,17.3083748 C8.26224805,17.4086623 8.27632175,17.5096297 8.31216524,17.6037009 C8.34935497,17.7572146 8.50025272,17.8547135 8.65548528,17.8255288 C9.1408471,17.7087526 9.61906763,17.5640713 10.0877632,17.3922061 L10.0877632,17.3922061 C10.2622564,17.3333742 10.4192504,17.2783755 10.5430789,17.2352099 C10.6582411,17.1947109 10.7462377,17.1642117 10.7915693,17.149712 C11.4843758,16.9290508 11.6248704,16.6793902 11.6208705,16.5088944 C11.6187283,16.4169033 11.6915421,16.340582 11.7835309,16.3383986 C11.8277347,16.3366392 11.8707679,16.3528501 11.9028246,16.3833374 C11.9348812,16.4138246 11.9532304,16.4559909 11.953691,16.500228 C11.9635239,16.9143845 11.6065378,17.2393765 10.8928987,17.4668709 C10.8492337,17.4815372 10.764737,17.5110365 10.6527413,17.5502022 L10.6527413,17.5502022 L10.5027471,17.6023676 C10.7779284,17.9070503 10.978783,18.2713433 11.0895578,18.6666748 L11.0895578,18.6666748 L14.8697448,18.6553417 L14.8585786,18.6386755 C14.8105716,18.5695254 14.7674144,18.4971315 14.7294169,18.4220141 C14.6465116,18.2538807 14.5773442,18.0793156 14.5225916,17.9000269 C14.4212041,17.558574 14.3508655,17.2086609 14.3124331,16.8545526 C14.2467108,16.2969873 14.3310572,15.7319853 14.5567569,15.2179261 C14.6898198,14.9397355 14.8543917,14.6777476 15.047238,14.4371119 C15.1440675,14.3067818 15.2440637,14.1721184 15.3305603,14.0352885 C15.4704743,13.8181543 15.5719532,13.5785479 15.6305487,13.3269725 C15.6525157,13.2386412 15.7412874,13.184272 15.8299524,13.2048454 C15.9186174,13.2254189 15.9743772,13.3133247 15.9552028,13.402304 C15.8882034,13.6905555 15.7720664,13.9651165 15.6118828,14.2139507 C15.5187197,14.3607805 15.4148904,14.5006104 15.3148943,14.6356071 C15.1373133,14.8561253 14.9854498,15.0961692 14.8622451,15.3510895 C14.6603475,15.8107393 14.5847502,16.3159365 14.6432536,16.8145536 C14.6793634,17.1484458 14.7453474,17.4784264 14.8404126,17.8005294 C14.8902889,17.9634885 14.9532122,18.1221645 15.028572,18.2750177 C15.0604534,18.3373925 15.096535,18.3975295 15.1365678,18.4550133 C15.2073497,18.5521674 15.2641772,18.6587554 15.3053946,18.7716722 C15.3212989,18.8222449 15.3121943,18.8773676 15.2808724,18.9201398 C15.2495504,18.962912 15.1997479,18.9882308 15.1467341,18.9883336 L15.1467341,18.9883336 L10.9635626,19 C10.8870084,19 10.8202617,18.9479496 10.8017356,18.8736697 C10.7399046,18.6221759 10.5025805,17.9521923 10.1272617,17.7318644 C9.66742764,17.8991164 9.19826668,18.0395161 8.72214937,18.1523541 C8.67736215,18.1617142 8.63174247,18.1665163 8.58598797,18.1666871 C8.31030144,18.1620146 8.07030802,17.977089 7.99551082,17.7116982 C7.94195232,17.5684823 7.92266066,17.4147176 7.93917967,17.2627093 C7.9453461,17.218377 7.95484573,17.1752114 7.96467868,17.1318791 C7.9857122,17.0668014 7.99197494,16.9978533 7.9830113,16.9300508 C7.96934517,16.878552 7.93101332,16.8525527 7.83301711,16.7967207 C7.79401862,16.7742212 7.75385351,16.7508885 7.71635496,16.7242225 C7.66266634,16.6855549 7.62727971,16.6264759 7.61852541,16.5608931 C7.61216805,16.4770981 7.63109416,16.3933228 7.67285664,16.320399 C7.61602551,16.2769001 7.55386124,16.2287346 7.51786264,16.1954021 C7.3638686,16.0694052 7.46586465,15.8889096 7.52702895,15.7812456 C7.54936142,15.7415799 7.57552707,15.6957477 7.60035944,15.6424157 C7.62367039,15.5894345 7.63046586,15.5306557 7.61985869,15.4737532 C7.61135902,15.4304209 7.49069702,15.3687557 7.41853315,15.3319233 C7.35823733,15.303366 7.30037977,15.2699219 7.24553984,15.2319258 C7.12623726,15.1645047 7.03903863,15.0519616 7.0035492,14.9196001 C6.97705023,14.7479376 7.103712,14.5764418 7.22437399,14.4292788 C7.50961198,14.0617655 7.75414392,13.6643955 7.95367911,13.2441412 C7.9664109,13.2214514 7.97594521,13.1971105 7.98201134,13.1718096 C7.9813447,13.1258108 7.92751345,13.0731454 7.84584995,12.9983139 C7.72296814,12.9076528 7.63650116,12.7760887 7.60202605,12.627323 C7.59385621,12.5317374 7.60942812,12.4356139 7.64735763,12.3474965 C7.67735647,12.2686651 7.71168847,12.1928337 7.74502051,12.1170022 C7.80451853,11.9951129 7.85239509,11.8678867 7.88801498,11.7370115 C7.92980301,11.5329357 7.98463564,11.33175 8.0521753,11.134693 C8.19908922,10.7297579 8.42654806,10.3587997 8.72081609,10.0442197 C9.09346834,9.65022939 9.63961387,9.38673586 10.3910848,9.23673954 C10.9220244,9.12035312 11.4607801,9.0430368 12.0030224,9.00541188 Z M14.9900735,9.00024345 C15.1338174,8.99978521 15.2576854,9.1013556 15.2853954,9.24240607 L15.2853954,9.24240607 L15.3607258,9.61956348 C15.4270087,9.64209439 15.4917068,9.66904302 15.554385,9.70022817 L15.554385,9.70022817 L15.8760392,9.48523344 C15.9956748,9.40700567 16.153739,9.42320158 16.2550246,9.52406582 L16.2550246,9.52406582 L16.4766826,9.74572705 C16.5766773,9.84540548 16.5939998,10.0011722 16.5183477,10.1203845 L16.5183477,10.1203845 L16.3000228,10.4458765 C16.3311604,10.508534 16.3579991,10.5732374 16.380353,10.6395384 L16.380353,10.6395384 L16.7591717,10.7150366 C16.8996282,10.7432922 17.0005013,10.8669246 16.9999979,11.010196 L16.9999979,11.010196 L16.9999979,11.3235217 C17.0005359,11.4673302 16.8989487,11.5912921 16.7578384,11.6190144 L16.7578384,11.6190144 L16.3806864,11.6941792 C16.3581558,11.760463 16.3312075,11.825162 16.3000228,11.8878411 L16.3000228,11.8878411 L16.5150145,12.2094999 C16.5931754,12.3291532 16.5769843,12.4871746 16.4761827,12.5884906 L16.4761827,12.5884906 L16.2545246,12.8101519 C16.198198,12.8668154 16.1215953,12.8986686 16.0416995,12.8986497 C15.9844249,12.8985785 15.9283331,12.8823457 15.8798724,12.8518175 L15.8798724,12.8518175 L15.6287155,12.6834883 C15.5825888,12.7732475 15.4981397,12.8371526 15.3992243,12.8571507 L15.3992243,12.8571507 L14.9012436,12.9571482 C14.8695888,13.0535466 14.8305871,13.147375 14.7845815,13.237808 L14.7845815,13.237808 L15.0665705,13.6589644 C15.1551549,13.7921138 15.1366907,13.9694147 15.0225722,14.081454 L15.0225722,14.081454 L14.7460829,14.3579472 C14.6344927,14.4698662 14.4596474,14.4880331 14.3274325,14.4014461 L14.3274325,14.4014461 L13.9042822,14.1181198 C13.8138505,14.164126 13.7200234,14.2031283 13.6236264,14.2347836 L13.6236264,14.2347836 L13.5236302,14.733438 C13.4919344,14.8887176 13.3552889,15.0002097 13.1968096,15.0000982 L13.1968096,15.0000982 L12.8034914,15.0000982 C12.6446934,15.0002088 12.5078667,14.8882771 12.4765041,14.7326047 L12.4765041,14.7326047 L12.376508,14.2346169 C12.280111,14.2029617 12.1862839,14.1639593 12.0958522,14.1179531 L12.0958522,14.1179531 L11.6747018,14.3999462 C11.5415279,14.4880746 11.3646219,14.4697135 11.2523848,14.3561139 L11.2523848,14.3561139 L10.9757288,14.079454 C10.8638114,13.9678622 10.8456448,13.7930145 10.9322305,13.6607976 L10.9322305,13.6607976 L11.2155529,13.2376414 C11.1695473,13.1472084 11.1305455,13.0533799 11.0988907,12.9569816 L11.0988907,12.9569816 L10.6002434,12.856984 C10.4449659,12.8252877 10.3334754,12.6886403 10.3335869,12.5301587 L10.3335869,12.5301587 L10.3335869,12.136835 C10.3334604,11.9780861 10.4453061,11.8412753 10.60091,11.8098431 L10.60091,11.8098431 L11.0988907,11.7098455 C11.1305455,11.6134471 11.1695473,11.5196187 11.2155529,11.4291857 L11.2155529,11.4291857 L10.9335638,11.0080294 C10.8449794,10.8748799 10.8634436,10.6975791 10.9775621,10.5855398 L10.9775621,10.5855398 L11.2542181,10.3090466 C11.3658083,10.1971275 11.5406536,10.1789606 11.6728685,10.2655476 L11.6728685,10.2655476 L12.0960188,10.548874 C12.1864505,10.5028678 12.2802776,10.4638654 12.3766746,10.4322102 L12.3766746,10.4322102 L12.4766708,9.93355577 C12.5083666,9.77827612 12.6450121,9.66678407 12.8034914,9.66689565 L12.8034914,9.66689565 L13.1968096,9.66689565 C13.218822,9.6671677 13.2407566,9.6695677 13.262307,9.67406214 L13.262307,9.67406214 L13.4123012,9.52406582 C13.5120358,9.42418936 13.6677128,9.40687628 13.7869534,9.48240018 L13.7869534,9.48240018 L14.1124408,9.70072815 C14.1750843,9.66941967 14.239787,9.64241341 14.3061,9.6198968 L14.3061,9.6198968 L14.381597,9.24107277 C14.4098522,9.1006143 14.5334829,8.99973976 14.6767523,9.00024345 L14.6767523,9.00024345 Z M13.1968096,10.0002208 L12.8034914,10.0002208 L12.6834961,10.5963728 C12.6711476,10.6581255 12.6250468,10.7076443 12.564334,10.7243697 C12.4266353,10.7614912 12.2943603,10.8163965 12.1708493,10.887699 C12.1158109,10.9196243 12.0473978,10.9174257 11.9945227,10.8820325 L11.9945227,10.8820325 L11.4897089,10.5437075 L11.2118864,10.8230339 L11.5492066,11.3273549 C11.5845994,11.3802307 11.5867979,11.4486448 11.5548731,11.5036839 C11.4835716,11.6271967 11.428667,11.7594736 11.3915461,11.8971743 C11.3750371,11.9581465 11.325477,12.0045453 11.263551,12.0170046 L11.263551,12.0170046 L10.6669075,12.136835 L10.6669075,12.5301587 L11.2630511,12.6494891 C11.324977,12.6619485 11.3745371,12.7083472 11.3910461,12.7693195 C11.4281671,12.9070202 11.4830716,13.039297 11.5543731,13.1628099 C11.5862979,13.217849 11.5840994,13.2862631 11.5487067,13.3391389 L11.5487067,13.3391389 L11.2103864,13.8439598 L11.4897089,14.1217863 L11.9940228,13.7844613 C12.0468978,13.7490681 12.1153109,13.7468695 12.1703493,13.7787947 C12.2938603,13.8500973 12.4261354,13.9050026 12.5638341,13.9421241 C12.6248055,13.9586333 12.6712035,14.0081941 12.6836627,14.0701209 L12.6836627,14.0701209 L12.8034914,14.666773 L13.1968096,14.666773 L13.3161383,14.0706209 C13.3285975,14.0086941 13.3749956,13.9591333 13.435967,13.9426241 C13.5736657,13.9055026 13.7059407,13.8505973 13.8294517,13.7792947 C13.8844901,13.7473695 13.9529032,13.749568 14.0057783,13.7849613 L14.0057783,13.7849613 L14.5105921,14.1232863 L14.7884146,13.8439598 L14.4510944,13.3396389 C14.4157016,13.2867631 14.4135031,13.218349 14.4454279,13.1633099 C14.5167295,13.039797 14.571634,12.9075201 14.6087549,12.7698195 C14.6252639,12.7088472 14.674824,12.6624485 14.73675,12.6499891 L14.73675,12.6499891 L15.3333936,12.5301587 L15.3333936,12.1366684 L14.73725,12.0175046 C14.675324,12.0050452 14.6257639,11.9586465 14.6092549,11.8976742 C14.5721339,11.7599736 14.5172294,11.6276967 14.4459279,11.5041839 C14.4140031,11.4491448 14.4162016,11.3807307 14.4515943,11.3278549 L14.4515943,11.3278549 L14.7899146,10.8230339 L14.5105921,10.5452074 L14.0062782,10.8825325 C13.9534032,10.9179257 13.8849901,10.9201243 13.8299517,10.888199 C13.7064407,10.8168965 13.5741656,10.7619912 13.436467,10.7248697 C13.3754955,10.7083605 13.3290975,10.6587997 13.3166383,10.5968728 L13.3166383,10.5968728 L13.1968096,10.0002208 Z M13.0001505,11.1668588 C13.6444578,11.1668588 14.166772,11.6891805 14.166772,12.3334969 C14.166772,12.9778133 13.6444578,13.5001349 13.0001505,13.5001349 C12.3561478,13.4994002 11.8342637,12.9775087 11.833529,12.3334969 C11.833529,11.6891805 12.3558432,11.1668588 13.0001505,11.1668588 Z M13.0001505,11.500184 C12.5401594,11.500735 12.1674004,11.8734993 12.1668494,12.3334969 C12.1668494,12.7937229 12.539931,13.1668098 13.0001505,13.1668098 C13.46037,13.1668098 13.8334516,12.7937229 13.8334516,12.3334969 C13.8334516,11.8732709 13.46037,11.500184 13.0001505,11.500184 Z M14.9637412,9.3335705 L14.7030846,9.3335705 L14.6135881,9.78255948 C14.6012148,9.84465797 14.5547211,9.89438102 14.4935927,9.91088966 C14.386613,9.93934447 14.2840073,9.98223763 14.1886045,10.0383865 C14.1333126,10.0712614 14.0640378,10.0693803 14.0106114,10.0335533 L14.0106114,10.0335533 L13.6296261,9.7775596 L13.5122974,9.89489006 C13.5170061,9.90772884 13.5208479,9.92086915 13.5237969,9.93422242 L13.5237969,9.93422242 L13.623793,10.4322102 C13.72019,10.4638654 13.8140171,10.5028678 13.9044488,10.548874 L13.9044488,10.548874 L14.3252659,10.2668809 C14.3941985,10.2219365 14.4771599,10.2036848 14.5585902,10.2155489 C14.6542706,10.1839379 14.7543138,10.1675168 14.8550787,10.1668834 C15.2624893,10.1657252 15.6296689,10.4124191 15.7825953,10.7900462 C15.9355217,11.1676734 15.8434638,11.6003484 15.5500518,11.8830079 C15.6241178,11.9465372 15.666732,12.0392549 15.666714,12.136835 L15.666714,12.136835 L15.666714,12.3071642 L16.0381996,12.5556581 L16.2231925,12.3706626 L15.9675357,11.989672 C15.9317092,11.9362448 15.9298282,11.866969 15.9627025,11.8116764 C16.0188506,11.7162722 16.0617432,11.613665 16.0901976,11.5066838 C16.106706,11.4455546 16.1564284,11.3990603 16.218526,11.3866868 L16.218526,11.3866868 L16.6676753,11.297189 L16.6676753,11.0365287 L16.2176927,10.9470309 C16.1555951,10.9346574 16.1058727,10.8881631 16.0893643,10.8270338 C16.0609099,10.7200527 16.0180173,10.6174455 15.9618692,10.5220413 C15.9289949,10.4667487 15.9308759,10.3974729 15.9667024,10.3440457 L15.9667024,10.3440457 L16.2221925,9.96288839 L16.0371997,9.77789293 L15.6562144,10.0335533 C15.6029832,10.0696925 15.5337044,10.0719629 15.4782213,10.0393865 C15.3828185,9.98323761 15.2802128,9.94034444 15.1732331,9.91188964 C15.1121047,9.895381 15.065611,9.84565794 15.0532377,9.78355945 L15.0532377,9.78355945 L14.9637412,9.3335705 Z M10.524413,9.88989018 C10.614708,9.87198739 10.7024195,9.93067396 10.7203221,10.0209703 C10.7382246,10.1112666 10.6795388,10.1989794 10.5892438,10.2168822 C10.0535979,10.3233795 9.66944605,10.496542 9.44728798,10.7317029 C9.24588734,10.9483391 9.09033624,11.2034374 8.98997234,11.4816844 C8.93921822,11.6343092 8.89775503,11.7898679 8.86581048,11.9475064 L8.86581048,11.9475064 L8.54032307,11.8753415 C8.5753497,11.7031735 8.6210472,11.53335 8.67715111,11.3668539 C8.792964,11.0459479 8.97256715,10.7518209 9.20513068,10.5022085 C9.47578688,10.2162155 9.91960304,10.0102206 10.524413,9.88989018 Z M14.9467418,10.5090417 L15.0245722,10.5868731 C15.1365052,10.6991414 15.1544693,10.874189 15.0675705,11.0063628 L15.0675705,11.0063628 L14.7842481,11.4295191 C14.8302537,11.519952 14.8692555,11.6137805 14.9009103,11.7101788 L14.9009103,11.7101788 L15.1539005,11.7601776 C15.4148925,11.6304604 15.5605995,11.3455393 15.5129899,11.0580004 C15.4653802,10.7704616 15.2356149,10.5477116 14.9467418,10.5090417 L14.9467418,10.5090417 Z" id="path-4"></path>
    </defs>
    <g id="1.-atom-/-Icons-/-knowhow" stroke="none" stroke-width="1" fill="none" fill-rule="evenodd">
        <g id="1.-atom-/-Hexagon" transform="translate(2.000000, 4.000000)" filter="url(#filter-1)">
            <g>
                <mask id="mask-3" fill="white">
                    <use xlink:href="#path-2"></use>
                </mask>
                <use id="Mask" fill="#A2DAF2" xlink:href="#path-2"></use>
                <g id="Group" mask="url(#mask-3)" fill="#DAE6FB">
                    <g id="4.-color-/-lightblue">
                        <rect id="Rectangle" x="0" y="0" width="20" height="20"></rect>
                    </g>
                </g>
            </g>
        </g>
        <mask id="mask-5" fill="white">
            <use xlink:href="#path-4"></use>
        </mask>
        <use id="Mask" fill="#000000" fill-rule="nonzero" xlink:href="#path-4"></use>
        <g id="Group" mask="url(#mask-5)" fill="#4D7CFF">
            <g id="4.-color-/-black">
                <rect id="Rectangle" x="0" y="0" width="24" height="24"></rect>
            </g>
        </g>
    </g>
</svg>