<?xml version="1.0" encoding="UTF-8"?>
<svg width="24px" height="24px" viewBox="0 0 24 24" version="1.1" xmlns="http://www.w3.org/2000/svg" xmlns:xlink="http://www.w3.org/1999/xlink">
    <title>1. atom / Icons / Know-How</title>
    <defs>
        <path d="M18.75,12 C18.75,8.26890625 15.7305938,5.25 12,5.25 C8.26890625,5.25 5.25,8.26940625 5.25,12 C5.25,15.7310937 8.26940625,18.75 12,18.75 C15.7310937,18.75 18.75,15.7305938 18.75,12 M20,12 C20,16.422 16.421375,20 12,20 C7.578,20 4,16.421375 4,12 C4,7.578 7.578625,4 12,4 C16.422,4 20,7.578625 20,12 M15.536375,9.4615625 C15.7805312,9.7056875 15.7805312,10.1014375 15.536375,10.3454688 L11.3435,14.5384375 C11.099375,14.7824687 10.70375,14.7824687 10.4595938,14.5384375 L8.463625,12.5423438 C8.21946875,12.2983438 8.21946875,11.9025937 8.463625,11.6585625 C8.70765625,11.4144375 9.10340625,11.4144375 9.34740625,11.6585625 L10.9015,13.2126563 L14.6524688,9.4615625 C14.8965938,9.21753125 15.2923438,9.21753125 15.536375,9.4615625" id="path-1"></path>
    </defs>
    <g id="1.-atom-/-Icons-/-Know-How" stroke="none" stroke-width="1" fill="none" fill-rule="evenodd">
        <mask id="mask-2" fill="white">
            <use xlink:href="#path-1"></use>
        </mask>
        <use id="Fill-1" fill="#000000" xlink:href="#path-1"></use>
        <g id="Group" mask="url(#mask-2)" fill="#000000">
            <g id="4.-color-/-black">
                <rect id="Rectangle" x="0" y="0" width="24" height="24"></rect>
            </g>
        </g>
    </g>
</svg>