<?xml version="1.0" encoding="UTF-8"?>
<svg width="24px" height="24px" viewBox="0 0 24 24" version="1.1" xmlns="http://www.w3.org/2000/svg" xmlns:xlink="http://www.w3.org/1999/xlink">
    <title>1. atom / Icons / law</title>
    <defs>
        <filter id="filter-1">
            <feColorMatrix in="SourceGraphic" type="matrix" values="0 0 0 0 0.854968 0 0 0 0 0.900611 0 0 0 0 0.983639 0 0 0 1.000000 0"></feColorMatrix>
        </filter>
        <polygon id="path-2" points="10.0069726 19.9793217 1.36 14.9898734 1.36 5.01097696 10.0069726 0.0216049598 18.6538689 5.01097696 18.6538689 14.9898734"></polygon>
        <path d="M16.8515193,15.4163468 L15.7108607,12.8447733 L16.2032496,12.9934361 C16.3113874,13.0261001 16.4242199,12.9603534 16.4551733,12.8464484 C16.4862062,12.7326271 16.4237425,12.6139482 16.3156047,12.5812842 L12.8919577,11.5471773 C12.8926739,11.5317666 12.8930717,11.5163559 12.8930717,11.5008615 C12.8931513,11.0729639 12.6187089,10.6990036 12.225307,10.5912126 C11.8319051,10.4833379 11.4190081,10.6688523 11.2207953,11.0423938 L7.79683007,10.0083706 C7.68869228,9.9757067 7.57585976,10.0415371 7.54482686,10.1553584 C7.51387349,10.2691796 7.5763372,10.3878587 7.68447497,10.4205226 L8.36019688,10.6246304 L7.13646549,13.3834771 C7.05482503,13.4135447 7.00000011,13.4946183 7.00000011,13.5857423 C6.9997615,14.2818193 7.39833557,14.9093019 8.00952491,15.1750524 C8.62071424,15.4408867 9.32388832,15.2924751 9.79049609,14.7992496 C10.1013823,14.4802318 10.2769968,14.0427862 10.2777925,13.5857423 C10.2777925,13.4897606 10.2170794,13.4055043 10.1293119,13.3794569 L8.99199524,10.815505 L11.108122,11.4545457 C11.1074058,11.4699564 11.107008,11.4853671 11.107008,11.5009453 C11.1076445,11.9372183 11.3929087,12.3158687 11.7963366,12.4158706 L11.7963366,16.6629369 L11.2340838,16.6629369 C10.7848226,16.6629369 10.4111544,17.0424248 10.4111544,17.515382 L10.4111544,17.63984 C10.0331099,17.7235937 9.76169119,18.0735166 9.75930403,18.4802245 L9.75930403,18.7803978 C9.76272561,18.9014219 9.85606308,18.9982412 9.9711236,19 L14.0289561,19 C14.1440166,18.9982412 14.2373541,18.9014219 14.2407756,18.7803978 L14.2407756,18.4802245 C14.2383885,18.0735166 13.9669698,17.7235937 13.5889252,17.63984 L13.5889252,17.515382 C13.5889252,17.0424248 13.2151775,16.6629369 12.7659959,16.6629369 L12.2037431,16.6629369 L12.2037431,12.4158706 C12.4478687,12.3551492 12.656585,12.1894844 12.7792844,11.9592455 L15.0849506,12.6556575 L13.8586729,15.420367 C13.7769529,15.4504346 13.7222076,15.5315082 13.7221281,15.6225484 C13.7219689,16.3186254 14.120543,16.9461081 14.7317323,17.2118586 C15.3429217,17.4776928 16.0460162,17.329365 16.5126239,16.8361395 C16.8235101,16.5170379 16.9992042,16.0795923 17.0000001,15.6225484 C17.0000001,15.5265667 16.9392868,15.4423942 16.8515193,15.4163468 Z M8.63376398,11.0111536 L9.67607216,13.3610311 L7.59153536,13.3610311 L8.63376398,11.0111536 Z M8.63376398,14.8661688 C8.03379423,14.869854 7.52063709,14.4132288 7.42435547,13.7898501 L9.85248236,13.7898501 C9.74880058,14.4127263 9.23460901,14.8669226 8.63376398,14.8661688 Z M13.8333691,18.4802245 L13.8333691,18.5711811 L10.1667105,18.5711811 L10.1667105,18.4802245 C10.1667105,18.2437879 10.3576823,18.0565984 10.5822334,18.0565984 L13.4178463,18.0565984 C13.6423973,18.0565984 13.8333691,18.2437879 13.8333691,18.4802245 Z M13.1815187,17.515382 L13.1815187,17.6277794 L10.818561,17.6277794 L10.818561,17.515382 C10.818561,17.2789453 11.0095328,17.0917558 11.2340838,17.0917558 L12.7659959,17.0917558 C12.9905469,17.0917558 13.1815187,17.2789453 13.1815187,17.515382 Z M12.0000398,12.0120105 C11.792915,12.0121778 11.6084681,11.8741517 11.5405935,11.6682014 C11.4727189,11.4622511 11.5362966,11.2336872 11.698941,11.09876 C11.8616648,10.9638328 12.0877277,10.9522748 12.2620691,11.0700325 C12.4364104,11.1877064 12.5206767,11.4087325 12.4720585,11.6206293 C12.4668863,11.6341974 12.4630669,11.6481843 12.4606002,11.6625062 C12.394317,11.8710529 12.2089153,12.0117591 12.0000398,12.0120105 Z M16.3982796,15.397921 L14.3137428,15.397921 L15.3559714,13.0480435 L16.3982796,15.397921 Z M15.3559714,16.9030587 C14.7560017,16.9067438 14.2428445,16.4501187 14.1465629,15.8267399 L16.5746898,15.8267399 C16.471008,16.4496162 15.9568164,16.9038125 15.3559714,16.9030587 Z" id="path-4"></path>
    </defs>
    <g id="1.-atom-/-Icons-/-law" stroke="none" stroke-width="1" fill="none" fill-rule="evenodd">
        <g id="1.-atom-/-Hexagon" transform="translate(2.000000, 4.000000)" filter="url(#filter-1)">
            <g>
                <mask id="mask-3" fill="white">
                    <use xlink:href="#path-2"></use>
                </mask>
                <use id="Mask" fill="#A2DAF2" xlink:href="#path-2"></use>
                <g id="Group" mask="url(#mask-3)" fill="#DAE6FB">
                    <g id="4.-color-/-lightblue">
                        <rect id="Rectangle" x="0" y="0" width="20" height="20"></rect>
                    </g>
                </g>
            </g>
        </g>
        <mask id="mask-5" fill="white">
            <use xlink:href="#path-4"></use>
        </mask>
        <use id="Mask" fill="#000000" fill-rule="nonzero" xlink:href="#path-4"></use>
        <g id="Group" mask="url(#mask-5)" fill="#4D7CFF">
            <g id="4.-color-/-black">
                <rect id="Rectangle" x="0" y="0" width="24" height="24"></rect>
            </g>
        </g>
    </g>
</svg>