<?xml version="1.0" encoding="UTF-8"?>
<svg width="102px" height="60px" viewBox="0 0 102 60" version="1.1" xmlns="http://www.w3.org/2000/svg" xmlns:xlink="http://www.w3.org/1999/xlink">
    <title>1. atom / Logo</title>
    <defs>
        <path d="M14.0753526,-5.32907052e-15 C15.2947003,-5.32907052e-15 16.4762388,0.496987654 17.3277342,1.29975309 L16.7180603,2.07723457 C16.0311926,1.37639506 15.0662695,0.955259259 14.0879557,0.955259259 C12.0809157,0.955259259 10.4677218,2.51022222 10.4677218,4.47288889 C10.4677218,6.42291358 12.0809157,7.99051852 14.0879557,7.99051852 C15.0662695,7.99051852 16.0185895,7.58281481 16.7180603,6.91990123 L17.3403372,7.62074074 C16.4636357,8.44879012 15.2694942,8.9971358 14.0375434,8.9971358 C11.4704542,8.9971358 9.438208,6.99575309 9.438208,4.47288889 C9.438208,1.97530864 11.496448,-5.32907052e-15 14.0753526,-5.32907052e-15 Z M32.2400886,0.025837037 C34.8315963,0.025837037 36.8134302,1.94978765 36.8134302,4.48608395 C36.8134302,7.02159012 34.8189932,8.94633086 32.2022794,8.94633086 L28.6442732,8.94633086 L28.6442732,0.025837037 L32.2400886,0.025837037 Z M44.9434388,0.0256 L44.9434388,1.00693333 L39.9250511,1.00693333 L39.9250511,3.93750123 L44.4093834,3.93750123 L44.4093834,4.91883457 L39.9250511,4.91883457 L39.9250511,7.97740247 L45.1088542,7.97740247 L45.1088542,8.94609383 L38.9081403,8.94609383 L38.9081403,0.0256 L44.9434388,0.0256 Z M5.04359385,0.0252839506 L9.01986462,8.94577778 L7.91473231,8.94577778 L6.92381538,6.68997531 L2.07084308,6.68997531 L1.07992615,8.94577778 L-1.95399252e-14,8.94577778 L3.98887385,0.0252839506 L5.04359385,0.0252839506 Z M23.0308628,0.0252839506 L27.0071335,8.94577778 L25.9020012,8.94577778 L24.9110843,6.68997531 L20.058112,6.68997531 L19.0671951,8.94577778 L17.9872689,8.94577778 L21.9761428,0.0252839506 L23.0308628,0.0252839506 Z M48.6769428,0.0254419753 L51.9293243,6.44835556 L55.1691028,0.0254419753 L56.4136566,0.0254419753 L56.4136566,8.9459358 L55.4739397,8.9459358 L55.4613366,1.59304691 L52.2215582,8.00331852 L51.6118843,8.00331852 L48.3847089,1.59304691 L48.3847089,8.9459358 L47.4189982,8.9459358 L47.4189982,0.0254419753 L48.6769428,0.0254419753 Z M59.1189858,0.0254419753 L62.0027274,4.67689877 L64.8486597,0.0254419753 L65.8907766,0.0254419753 L62.5115766,5.8873679 L62.5115766,8.9459358 L61.5080566,8.9459358 L61.5080566,5.92608395 L58.0642658,0.0254419753 L59.1189858,0.0254419753 Z M32.2148825,1.00717037 L29.661184,1.00717037 L29.661184,7.97763951 L32.2526917,7.97763951 C34.2345255,7.97763951 35.784704,6.48667654 35.784704,4.49872593 C35.784704,2.49734321 34.2093194,1.00717037 32.2148825,1.00717037 Z M4.48433231,1.18518519 L2.50249846,5.7094321 L6.49137231,5.7094321 L4.48433231,1.18518519 Z M22.4716012,1.18518519 L20.4897674,5.7094321 L24.4786412,5.7094321 L22.4716012,1.18518519 Z" id="path-1"></path>
        <path d="M74.5371175,26.3300741 C77.1979422,26.3300741 79.5633822,27.1541728 81.4026437,28.3733333 L79.2349145,32.2291358 C78.2495114,31.405037 76.4094622,30.5817284 74.5694129,30.5817284 C73.7155545,30.5817284 73.0909145,30.9112099 73.0909145,31.2730864 C73.0909145,32.5910123 82.0934498,30.9436049 82.0934498,37.5672099 C82.0934498,40.7308642 79.2672098,43.0380247 74.5694129,43.0380247 C71.6454991,43.0380247 68.4915791,42.0156049 66.7838622,40.5989136 L69.1485145,36.6119506 C70.3970068,37.6003951 73.0909145,38.6220247 74.8655852,38.6220247 C76.0809945,38.6220247 76.4417575,38.3257284 76.4417575,37.9298765 C76.4417575,36.4144198 67.4400098,38.3581235 67.4400098,31.7677037 C67.4400098,28.9003457 69.9369945,26.3300741 74.5371175,26.3300741 Z M57.8486745,26.3302321 C62.514176,26.3302321 66.0942375,29.6914173 66.0942375,35.2933926 L66.0942375,36.5125531 L55.3193945,36.5125531 C55.6478622,37.5341827 56.7978929,38.5234173 58.735616,38.5234173 C59.6233452,38.5234173 61.5941514,38.0951704 62.3826314,37.4022321 L64.8134498,41.0605037 C63.2372775,42.4116148 60.4118252,43.0373926 58.0455975,43.0373926 C53.0854991,43.0373926 49.2084775,39.9069235 49.2084775,34.6676148 C49.2084775,30.054084 52.7239483,26.3302321 57.8486745,26.3302321 Z M91.3555298,22.3755852 L91.3555298,26.7260049 L94.575616,26.7260049 L94.575616,31.8665481 L91.3555298,31.8665481 L91.3555298,36.3157333 C91.3555298,37.1398321 91.8817083,37.7980049 92.6694006,37.7980049 C93.1955791,37.7980049 93.7209698,37.6336593 93.8525145,37.5017086 L94.9040837,41.9832889 C94.2794437,42.5434864 92.8994068,43.0373136 90.8963052,43.0373136 C87.3808345,43.0373136 85.4423237,41.3575111 85.4423237,38.028721 L85.4423237,31.8665481 L82.8137945,31.8665481 L82.8137945,26.7260049 L85.4423237,26.7260049 L85.4423237,22.3755852 L91.3555298,22.3755852 Z M24.1446597,26.3303901 C27.8247582,26.3303901 29.4348012,28.5711802 29.4348012,31.3389827 L29.4348012,42.6424889 L23.5208074,42.6424889 L23.5208074,33.8436741 C23.5208074,32.1962667 22.6338658,31.5696988 21.2215335,31.5696988 C19.8745797,31.5696988 19.1845612,32.2618469 18.6914658,32.8220444 L18.6914658,42.6424889 L12.7782597,42.6424889 L12.7782597,26.7254519 L18.6914658,26.7254519 L18.6914658,28.5379951 C19.6114905,27.4831802 21.3522905,26.3303901 24.1446597,26.3303901 Z M36.8248517,26.7254519 L39.8472271,35.8213531 L42.9026855,26.7254519 L49.1443594,26.7254519 L43.0011471,42.6424889 L36.7263902,42.6424889 L30.5831778,26.7254519 L36.8248517,26.7254519 Z M9.6,26.4357136 L9.6,42.4357136 L3.84,42.4357136 L3.84,26.4357136 L9.6,26.4357136 Z M57.8486745,30.8449975 C56.0417083,30.8449975 55.4509391,32.031763 55.254016,32.7563062 L60.4772037,32.7563062 C60.3133637,32.064158 59.7548898,30.8449975 57.8486745,30.8449975 Z M99.3647852,21.0464395 C99.859456,21.0464395 100.306865,21.1617975 100.709376,21.3925136 C101.111887,21.6224395 101.426964,21.9400691 101.65697,22.3430321 C101.886976,22.7459951 102.001191,23.1932049 102.001191,23.6846617 C102.001191,24.1753284 101.883825,24.6249086 101.649093,25.0334025 C101.414361,25.4418963 101.095345,25.7642667 100.690471,25.9997235 C100.286385,26.2343901 99.838976,26.3521185 99.3490314,26.3521185 C98.8598745,26.3521185 98.4140406,26.2343901 98.0123175,25.9997235 C97.6098068,25.7642667 97.2931545,25.4426864 97.0607852,25.0373531 C96.828416,24.6312296 96.7126252,24.1856 96.7126252,23.6996741 C96.7126252,23.2137481 96.828416,22.7673284 97.0607852,22.3619951 C97.2931545,21.9558716 97.6113822,21.6358716 98.016256,21.3996247 C98.4211298,21.1641679 98.8701145,21.0464395 99.3647852,21.0464395 Z M99.3647852,21.5355259 C98.9599114,21.5355259 98.5952098,21.6303407 98.2706806,21.8207605 C97.9461514,22.0111802 97.6909391,22.271921 97.5058314,22.6021926 C97.3215114,22.9332543 97.2293514,23.2990815 97.2293514,23.6996741 C97.2293514,24.1002667 97.3215114,24.4660938 97.5058314,24.7971556 C97.6909391,25.1274272 97.944576,25.3881679 98.2667422,25.5785877 C98.5889083,25.7690074 98.9496714,25.8638222 99.3490314,25.8638222 C99.7491791,25.8638222 100.112305,25.7674272 100.439198,25.574637 C100.766878,25.3818469 101.023665,25.1187358 101.211924,24.7853037 C101.398607,24.4526617 101.492342,24.0852543 101.492342,23.6846617 C101.492342,23.2785383 101.40097,22.9127111 101.218225,22.5871802 C101.036268,22.2616494 100.783419,22.0048593 100.458102,21.8168099 C100.133573,21.6287605 99.7688714,21.5355259 99.3647852,21.5355259 Z M99.4766375,22.2418963 C99.8712714,22.2418963 100.180834,22.3351309 100.406114,22.5231802 C100.630607,22.7112296 100.743247,22.963279 100.743247,23.2785383 C100.743247,23.4887111 100.696773,23.6704395 100.604613,23.8237235 C100.511665,23.9762173 100.376182,24.0955259 100.195801,24.1808593 L100.833044,25.1574519 L100.054016,25.1574519 L99.5065698,24.3159704 L98.9898437,24.3159704 L98.9898437,25.1574519 L98.210816,25.1574519 L98.210816,22.2418963 L99.4766375,22.2418963 Z M99.4246498,22.8202667 L98.9819668,22.8202667 L98.9819668,23.7296988 L99.4246498,23.7296988 C99.5995175,23.7296988 99.7357883,23.6909827 99.8326745,23.6135506 C99.9303483,23.5353284 99.9783975,23.423921 99.9783975,23.2785383 C99.9783975,23.1339457 99.9303483,23.020958 99.8326745,22.9403654 C99.7357883,22.860563 99.5995175,22.8202667 99.4246498,22.8202667 Z" id="path-3"></path>
        <path d="M8.90328615,5.66818765 C12.5164308,5.66818765 14.7511138,7.31638519 15.6380554,8.6674963 L11.8272,12.2593975 C11.3341046,11.500879 10.41408,10.9074963 9.16558769,10.9074963 C7.49016615,10.9074963 6.04475077,11.9623111 6.04475077,14.0055704 C6.04475077,16.0488296 7.49016615,17.1360395 9.16558769,17.1360395 C10.41408,17.1360395 11.3341046,16.4770765 11.8272,15.7525333 L15.6380554,19.3776198 C14.7511138,20.6955457 12.5164308,22.3761383 8.90328615,22.3761383 C3.87623385,22.3761383 5.24025268e-14,19.0805333 5.24025268e-14,14.0055704 C5.24025268e-14,8.96379259 3.87623385,5.66818765 8.90328615,5.66818765 Z M25.3933095,5.66818765 C31.0442142,5.66818765 34.3288911,9.55717531 34.3288911,14.0055704 C34.3288911,18.4547556 31.0442142,22.3761383 25.3933095,22.3761383 C19.775488,22.3761383 16.4908111,18.4547556 16.4908111,14.0055704 C16.4908111,9.55717531 19.775488,5.66818765 25.3933095,5.66818765 Z M71.909376,2.84217094e-14 L71.909376,7.744 C73.1570806,6.22775309 74.7671237,5.66834568 76.3771668,5.66834568 C80.2864837,5.66834568 83.3734498,8.73323457 83.3734498,14.0057284 C83.3734498,19.4757531 80.2211052,22.3755062 76.3771668,22.3755062 C74.7671237,22.3755062 73.2555422,21.8153086 71.909376,20.2998519 L71.909376,21.9804444 L65.9953822,21.9804444 L65.9953822,2.84217094e-14 L71.909376,2.84217094e-14 Z M57.8169305,5.66834568 C60.7408443,5.66834568 62.7124382,7.15061728 62.7124382,10.4462222 L62.7124382,21.9804444 L56.799232,21.9804444 L56.799232,12.6870123 C56.799232,11.7317531 56.3061366,10.9076543 54.9922658,10.9076543 C53.6783951,10.9076543 52.9552935,11.6985679 52.5614474,12.16 L52.5614474,21.9804444 L46.6474535,21.9804444 L46.6474535,12.6870123 C46.6474535,11.7317531 46.1882289,10.9076543 44.8404874,10.9076543 C43.558912,10.9076543 42.8365982,11.6985679 42.442752,12.16 L42.442752,21.9804444 L36.5287582,21.9804444 L36.5287582,6.06340741 L42.442752,6.06340741 L42.442752,7.87595062 C43.1319828,6.9862716 45.1366597,5.66834568 47.6990228,5.66834568 C49.9329182,5.66834568 51.5429612,6.49244444 52.2652751,8.46854321 C53.1852997,7.08503704 55.2545674,5.66834568 57.8169305,5.66834568 Z M25.3933095,10.9074963 C23.5871311,10.9074963 22.5686449,12.2593975 22.5686449,14.0055704 C22.5686449,15.7849284 23.5871311,17.1360395 25.3933095,17.1360395 C27.2341465,17.1360395 28.2518449,15.7849284 28.2518449,14.0055704 C28.2518449,12.2593975 27.2341465,10.9074963 25.3933095,10.9074963 Z M74.3732775,10.9076543 C73.5840098,10.9076543 72.4670622,11.3035062 71.909376,11.9956543 L71.909376,16.0813827 C72.4670622,16.7735309 73.5840098,17.1361975 74.3732775,17.1361975 C75.9833206,17.1361975 77.3294868,16.0158025 77.3294868,14.0057284 C77.3294868,12.0280494 75.9833206,10.9076543 74.3732775,10.9076543 Z" id="path-5"></path>
    </defs>
    <g id="1.-atom-/-Logo" stroke="none" stroke-width="1" fill="none" fill-rule="evenodd">
        <g id="Group" transform="translate(2.000000, 51.000000)">
            <mask id="mask-2" fill="white">
                <use xlink:href="#path-1"></use>
            </mask>
            <use id="academy" fill="#000000" xlink:href="#path-1"></use>
            <g mask="url(#mask-2)" fill="#000000" id="4.-color-/-black">
                <g>
                    <rect id="Rectangle" x="0" y="0" width="66" height="9"></rect>
                </g>
            </g>
        </g>
        <mask id="mask-4" fill="white">
            <use xlink:href="#path-3"></use>
        </mask>
        <use id="invest" fill="#2E4A8C" xlink:href="#path-3"></use>
        <g id="Group" mask="url(#mask-4)">
            <g transform="translate(2.000000, 19.000000)" id="4.-color-/-darkblue">
                <rect id="Rectangle" fill="#2E4A8C" x="0" y="0" width="100" height="24"></rect>
            </g>
        </g>
        <mask id="mask-6" fill="white">
            <use xlink:href="#path-5"></use>
        </mask>
        <use id="comb" fill="#000000" xlink:href="#path-5"></use>
        <g id="Group" mask="url(#mask-6)" fill="#000000">
            <g id="4.-color-/-black">
                <rect id="Rectangle" x="0" y="0" width="85" height="24"></rect>
            </g>
        </g>
    </g>
</svg>