<?xml version="1.0" encoding="UTF-8"?>
<svg width="24px" height="24px" viewBox="0 0 24 24" version="1.1" xmlns="http://www.w3.org/2000/svg" xmlns:xlink="http://www.w3.org/1999/xlink">
    <title>1. atom / Icons / luggage</title>
    <defs>
        <filter id="filter-1">
            <feColorMatrix in="SourceGraphic" type="matrix" values="0 0 0 0 0.854968 0 0 0 0 0.900611 0 0 0 0 0.983639 0 0 0 1.000000 0"></feColorMatrix>
        </filter>
        <polygon id="path-2" points="10.0069726 19.9793217 1.36 14.9898734 1.36 5.01097696 10.0069726 0.0216049598 18.6538689 5.01097696 18.6538689 14.9898734"></polygon>
        <path d="M13.4117647,9 C13.5092199,9 13.5882353,9.07462565 13.5882353,9.16666667 L13.5882353,9.16666667 L13.5882353,9.66666667 C13.5882353,9.75870769 13.5092199,9.83333333 13.4117647,9.83333333 L13.4117647,9.83333333 L13.0588235,9.83333333 L13.0588235,11.6666667 L14.1176471,11.6666667 C14.6047507,11.6672363 14.9993968,12.0399577 15,12.5 L15,12.5 L15,17.6666667 C14.9993968,18.126709 14.6047507,18.4994303 14.1176471,18.5 L14.1176471,18.5 L14.1176471,18.8333333 C14.1176471,18.9253744 14.0386317,19 13.9411765,19 L13.9411765,19 L13.2352941,19 C13.1378389,19 13.0588235,18.9253744 13.0588235,18.8333333 L13.0588235,18.8333333 L13.0588235,18.5 L10.9411765,18.5 L10.9411765,18.8333333 C10.9411765,18.9253744 10.8621611,19 10.7647059,19 L10.7647059,19 L10.0588235,19 C9.96136833,19 9.88235294,18.9253744 9.88235294,18.8333333 L9.88235294,18.8333333 L9.88235294,18.5 C9.39524932,18.4994303 9.00060317,18.126709 9,17.6666667 L9,17.6666667 L9,12.5 C9.00060317,12.0399577 9.39524932,11.6672363 9.88235294,11.6666667 L9.88235294,11.6666667 L10.9411765,11.6666667 L10.9411765,9.83333333 L10.5882353,9.83333333 C10.4907801,9.83333333 10.4117647,9.75870769 10.4117647,9.66666667 L10.4117647,9.66666667 L10.4117647,9.16666667 C10.4117647,9.07462565 10.4907801,9 10.5882353,9 L10.5882353,9 Z M14.1176471,12 L9.88235294,12 C9.58998737,12 9.35294118,12.223877 9.35294118,12.5 L9.35294118,12.5 L9.35294118,17.6666667 C9.35294118,17.9427897 9.58998737,18.1666667 9.88235294,18.1666667 L9.88235294,18.1666667 L14.1176471,18.1666667 C14.4100126,18.1666667 14.6470588,17.9427897 14.6470588,17.6666667 L14.6470588,17.6666667 L14.6470588,12.5 C14.6470588,12.223877 14.4100126,12 14.1176471,12 L14.1176471,12 Z M12,12.3333333 C12.0974552,12.3333333 12.1764706,12.407959 12.1764706,12.5 L12.1764706,12.5 L12.1764706,17.6666667 C12.1764706,17.7587077 12.0974552,17.8333333 12,17.8333333 C11.9025448,17.8333333 11.8235294,17.7587077 11.8235294,17.6666667 L11.8235294,17.6666667 L11.8235294,12.5 C11.8235294,12.407959 11.9025448,12.3333333 12,12.3333333 Z M13.4117647,12.6666667 C13.5092199,12.6666667 13.5882353,12.7412923 13.5882353,12.8333333 L13.5882353,12.8333333 L13.5882353,17.3333333 C13.5882353,17.4253744 13.5092199,17.5 13.4117647,17.5 C13.3143095,17.5 13.2352941,17.4253744 13.2352941,17.3333333 L13.2352941,17.3333333 L13.2352941,12.8333333 C13.2352941,12.7412923 13.3143095,12.6666667 13.4117647,12.6666667 Z M10.5882353,12.6666667 C10.6856905,12.6666667 10.7647059,12.7412923 10.7647059,12.8333333 L10.7647059,12.8333333 L10.7647059,17.3333333 C10.7647059,17.4253744 10.6856905,17.5 10.5882353,17.5 C10.4907801,17.5 10.4117647,17.4253744 10.4117647,17.3333333 L10.4117647,17.3333333 L10.4117647,12.8333333 C10.4117647,12.7412923 10.4907801,12.6666667 10.5882353,12.6666667 Z M12.7058824,9.83333333 L11.2941176,9.83333333 L11.2941176,11.6666667 L12.7058824,11.6666667 L12.7058824,9.83333333 Z M13.2352941,9.33333333 L10.7647059,9.33333333 L10.7647059,9.5 L13.2352941,9.5 L13.2352941,9.33333333 Z" id="path-4"></path>
    </defs>
    <g id="1.-atom-/-Icons-/-luggage" stroke="none" stroke-width="1" fill="none" fill-rule="evenodd">
        <g id="1.-atom-/-Hexagon" transform="translate(2.000000, 4.000000)" filter="url(#filter-1)">
            <g>
                <mask id="mask-3" fill="white">
                    <use xlink:href="#path-2"></use>
                </mask>
                <use id="Mask" fill="#A2DAF2" xlink:href="#path-2"></use>
                <g id="Group" mask="url(#mask-3)" fill="#DAE6FB">
                    <g id="4.-color-/-lightblue">
                        <rect id="Rectangle" x="0" y="0" width="20" height="20"></rect>
                    </g>
                </g>
            </g>
        </g>
        <mask id="mask-5" fill="white">
            <use xlink:href="#path-4"></use>
        </mask>
        <use id="Mask" fill="#000000" fill-rule="nonzero" xlink:href="#path-4"></use>
        <g id="Group" mask="url(#mask-5)" fill="#4D7CFF">
            <g id="4.-color-/-black">
                <rect id="Rectangle" x="0" y="0" width="24" height="24"></rect>
            </g>
        </g>
    </g>
</svg>