<?xml version="1.0" encoding="UTF-8"?>
<svg width="24px" height="24px" viewBox="0 0 24 24" version="1.1" xmlns="http://www.w3.org/2000/svg" xmlns:xlink="http://www.w3.org/1999/xlink">
    <title>1. atom / Icons / monthly payment</title>
    <defs>
        <filter id="filter-1">
            <feColorMatrix in="SourceGraphic" type="matrix" values="0 0 0 0 0.854968 0 0 0 0 0.900611 0 0 0 0 0.983639 0 0 0 1.000000 0"></feColorMatrix>
        </filter>
        <polygon id="path-2" points="10.0069726 19.9793217 1.36 14.9898734 1.36 5.01097696 10.0069726 0.0216049598 18.6538689 5.01097696 18.6538689 14.9898734"></polygon>
        <path d="M14.0567089,10 C14.1812658,10 14.2886076,10.0850633 14.3149367,10.1994937 L14.3149367,10.1994937 L14.323038,10.2663291 L14.323038,10.6329114 L14.7848101,10.6329114 C15.4106329,10.6329114 15.9311392,11.1027848 15.9939241,11.721519 L15.9939241,11.721519 L16,13.6526582 C16,13.798481 15.8805063,13.9179747 15.7336709,13.9179747 C15.6121519,13.9179747 15.5037975,13.8318987 15.4774684,13.7194937 L15.4774684,13.7194937 L15.4683544,13.6526582 L15.4683544,11.8481013 C15.4683544,11.5118987 15.2182278,11.2212658 14.883038,11.1716456 L14.883038,11.1716456 L14.7848101,11.1655696 L14.323038,11.1655696 L14.323038,11.5321519 C14.323038,11.6779747 14.2035443,11.798481 14.0567089,11.798481 C13.9351899,11.798481 13.8268354,11.7124051 13.7994937,11.5989873 L13.7994937,11.5989873 L13.7913924,11.5321519 L13.7913924,11.1655696 L12.2511392,11.1655696 L12.2511392,11.5321519 C12.2511392,11.6779747 12.1306329,11.798481 11.9848101,11.798481 C11.8602532,11.798481 11.7539241,11.7134177 11.7265823,11.5989873 L11.7265823,11.5989873 L11.718481,11.5321519 L11.718481,11.1655696 L10.1934177,11.1655696 L10.1934177,11.5321519 C10.1934177,11.6779747 10.0739241,11.798481 9.92810127,11.798481 C9.8035443,11.798481 9.69721519,11.7134177 9.66987342,11.5989873 L9.66987342,11.5989873 L9.66177215,11.5321519 L9.66177215,11.1655696 L9.21518987,11.1655696 C8.87898734,11.1655696 8.58835443,11.4156962 8.53873418,11.7518987 L8.53873418,11.7518987 L8.53265823,11.8481013 L8.53265823,16.7848101 C8.53265823,17.1210127 8.78278481,17.4126582 9.11898734,17.4622785 L9.11898734,17.4622785 L11.6364557,17.4683544 C11.7832911,17.4683544 11.9027848,17.5878481 11.9027848,17.7336709 C11.9027848,17.8582278 11.8177215,17.9655696 11.7032911,17.9918987 L11.7032911,17.9918987 L11.6364557,18 L9.21518987,18 C8.58936709,18 8.06987342,17.5311392 8.00708861,16.9113924 L8.00708861,16.9113924 L8,16.7848101 L8,11.8481013 C8,11.2222785 8.46987342,10.7027848 9.08860759,10.64 L9.08860759,10.64 L9.21518987,10.6329114 L9.66177215,10.6329114 L9.66177215,10.2663291 C9.66177215,10.1194937 9.78126582,10 9.92810127,10 C10.0516456,10 10.1579747,10.0850633 10.1853165,10.1994937 L10.1853165,10.1994937 L10.1934177,10.2663291 L10.1934177,10.6329114 L11.718481,10.6329114 L11.718481,10.2663291 C11.718481,10.1194937 11.8379747,10 11.9848101,10 C12.1083544,10 12.2146835,10.0850633 12.2420253,10.1994937 L12.2420253,10.1994937 L12.2511392,10.2663291 L12.2511392,10.6329114 L13.7913924,10.6329114 L13.7913924,10.2663291 C13.7913924,10.1194937 13.9108861,10 14.0567089,10 Z M14.0253165,14.1016709 C15.0865823,14.1016709 15.9493671,14.9644557 15.9493671,16.0257215 C15.9493671,17.0859747 15.0865823,17.9497722 14.0253165,17.9497722 C12.9650633,17.9497722 12.1012658,17.0859747 12.1012658,16.0257215 C12.1012658,14.9644557 12.9650633,14.1016709 14.0253165,14.1016709 Z M14.0253165,14.569519 C13.2222785,14.569519 12.5691139,15.2226835 12.5691139,16.0257215 C12.5691139,16.8277468 13.2222785,17.4819241 14.0253165,17.4819241 C14.8283544,17.4819241 15.481519,16.8277468 15.481519,16.0257215 C15.481519,15.2226835 14.8283544,14.569519 14.0253165,14.569519 Z M14.1799494,15.3161519 L14.1799494,15.8589367 L14.7338734,15.8589367 L14.7338734,16.1475443 L14.1799494,16.1475443 L14.1799494,16.6893165 L13.8690633,16.6893165 L13.8690633,16.1475443 L13.3161519,16.1475443 L13.3161519,15.8589367 L13.8690633,15.8589367 L13.8690633,15.3161519 L14.1799494,15.3161519 Z M9.72202532,16.0760506 C9.83341772,16.0760506 9.92455696,16.1661772 9.92455696,16.2785823 C9.92455696,16.3899747 9.83341772,16.4811139 9.72202532,16.4811139 C9.61063291,16.4811139 9.51949367,16.3899747 9.51949367,16.2785823 C9.51949367,16.1661772 9.61063291,16.0760506 9.72202532,16.0760506 Z M11.2410127,16.0760506 C11.3524051,16.0760506 11.4435443,16.1661772 11.4435443,16.2785823 C11.4435443,16.3899747 11.3524051,16.4811139 11.2410127,16.4811139 C11.1296203,16.4811139 11.038481,16.3899747 11.038481,16.2785823 C11.038481,16.1661772 11.1296203,16.0760506 11.2410127,16.0760506 Z M9.72202532,14.5571646 C9.83341772,14.5571646 9.92455696,14.6483038 9.92455696,14.7596962 C9.92455696,14.8721013 9.83341772,14.9622278 9.72202532,14.9622278 C9.61063291,14.9622278 9.51949367,14.8721013 9.51949367,14.7596962 C9.51949367,14.6483038 9.61063291,14.5571646 9.72202532,14.5571646 Z M11.2410127,14.5571646 C11.3524051,14.5571646 11.4435443,14.6483038 11.4435443,14.7596962 C11.4435443,14.8721013 11.3524051,14.9622278 11.2410127,14.9622278 C11.1296203,14.9622278 11.038481,14.8721013 11.038481,14.7596962 C11.038481,14.6483038 11.1296203,14.5571646 11.2410127,14.5571646 Z M11.2410127,13.0381772 C11.3524051,13.0381772 11.4435443,13.1293165 11.4435443,13.2407089 C11.4435443,13.3531139 11.3524051,13.4432405 11.2410127,13.4432405 C11.1296203,13.4432405 11.038481,13.3531139 11.038481,13.2407089 C11.038481,13.1293165 11.1296203,13.0381772 11.2410127,13.0381772 Z M12.76,13.0385823 C12.8713924,13.0385823 12.9625316,13.1287089 12.9625316,13.2411139 C12.9625316,13.3525063 12.8713924,13.4436456 12.76,13.4436456 C12.6486076,13.4436456 12.5574684,13.3525063 12.5574684,13.2411139 C12.5574684,13.1287089 12.6486076,13.0385823 12.76,13.0385823 Z M9.72202532,13.0381772 C9.83341772,13.0381772 9.92455696,13.1293165 9.92455696,13.2407089 C9.92455696,13.3531139 9.83341772,13.4432405 9.72202532,13.4432405 C9.61063291,13.4432405 9.51949367,13.3531139 9.51949367,13.2407089 C9.51949367,13.1293165 9.61063291,13.0381772 9.72202532,13.0381772 Z M14.278481,13.0381772 C14.3898734,13.0381772 14.4810127,13.1293165 14.4810127,13.2407089 C14.4810127,13.3531139 14.3898734,13.4432405 14.278481,13.4432405 C14.1670886,13.4432405 14.0759494,13.3531139 14.0759494,13.2407089 C14.0759494,13.1293165 14.1670886,13.0381772 14.278481,13.0381772 Z" id="path-4"></path>
    </defs>
    <g id="1.-atom-/-Icons-/-monthly-payment" stroke="none" stroke-width="1" fill="none" fill-rule="evenodd">
        <g id="1.-atom-/-Hexagon" transform="translate(2.000000, 4.000000)" filter="url(#filter-1)">
            <g>
                <mask id="mask-3" fill="white">
                    <use xlink:href="#path-2"></use>
                </mask>
                <use id="Mask" fill="#A2DAF2" xlink:href="#path-2"></use>
                <g id="Group" mask="url(#mask-3)" fill="#DAE6FB">
                    <g id="4.-color-/-lightblue">
                        <rect id="Rectangle" x="0" y="0" width="20" height="20"></rect>
                    </g>
                </g>
            </g>
        </g>
        <mask id="mask-5" fill="white">
            <use xlink:href="#path-4"></use>
        </mask>
        <use id="Mask" fill="#1D1D1B" xlink:href="#path-4"></use>
        <g id="Group" mask="url(#mask-5)" fill="#4D7CFF">
            <g id="4.-color-/-black">
                <rect id="Rectangle" x="0" y="0" width="24" height="24"></rect>
            </g>
        </g>
    </g>
</svg>