<?xml version="1.0" encoding="UTF-8"?>
<svg width="24px" height="24px" viewBox="0 0 24 24" version="1.1" xmlns="http://www.w3.org/2000/svg" xmlns:xlink="http://www.w3.org/1999/xlink">
    <title>1. atom / Icons / Place</title>
    <defs>
        <path d="M12.4682751,3 C14.9530467,3 17.1867126,4.17010817 18.5960996,6.20989183 C19.9985635,8.23936298 20.3223977,10.808726 19.4623496,13.0828486 C19.2346813,13.6977764 18.8702102,14.299399 18.3804746,14.8670192 L18.3804746,14.8670192 L12.9597053,21.2343029 C12.8370731,21.3784976 12.6573977,21.4615385 12.4682751,21.4615385 C12.2791525,21.4615385 12.099477,21.3784615 11.9768448,21.2343029 L11.9768448,21.2343029 L6.55456112,14.8652885 C6.066989,14.3009135 5.7020491,13.6986418 5.47246977,13.078738 C4.61415246,10.808726 4.9379866,8.23936298 6.34045054,6.20989183 C7.74983756,4.17010817 9.98350343,3 12.4682751,3 Z M12.4682751,4.29100962 C10.4138159,4.29100962 8.56722939,5.25800481 7.40231352,6.9440625 C6.24103948,8.6247476 5.97165246,10.7491226 6.6814842,12.6264663 C6.85877987,13.1054567 7.14540246,13.5744952 7.53442891,14.0252885 L7.53442891,14.0252885 L12.4682751,19.8204447 L17.3990924,14.0289303 L17.3990924,14.0289303 C17.791364,13.5742788 18.0779866,13.1052043 18.2535515,12.6307572 C18.965114,10.7491226 18.6955106,8.6247476 17.5340203,6.9440625 C16.3690683,5.25796875 14.5226981,4.29100962 12.4682751,4.29100962 Z M12.4682751,6.83001202 C14.4614001,6.83001202 16.0831308,8.45174279 16.0831308,10.4448678 C16.0831308,12.4382091 14.4616164,14.0597236 12.4682751,14.0597236 C10.4749337,14.0597236 8.85341929,12.4382091 8.85341929,10.4448678 C8.85341929,8.45152644 10.4751501,6.83001202 12.4682751,6.83001202 Z M12.4682751,8.12098558 C11.1869289,8.12098558 10.1444289,9.16348558 10.1444289,10.4448317 C10.1444289,11.7261779 11.1869289,12.7686779 12.4682751,12.7686779 C13.7496212,12.7686779 14.7921212,11.7261779 14.7921212,10.4448317 C14.7921212,9.16348558 13.7496212,8.12098558 12.4682751,8.12098558 Z" id="path-1"></path>
    </defs>
    <g id="1.-atom-/-Icons-/-Place" stroke="none" stroke-width="1" fill="none" fill-rule="evenodd">
        <mask id="mask-2" fill="white">
            <use xlink:href="#path-1"></use>
        </mask>
        <use id="Mask" fill="#000000" fill-rule="nonzero" xlink:href="#path-1"></use>
        <g id="Group" mask="url(#mask-2)" fill="#000000">
            <g id="4.-color-/-black">
                <rect id="Rectangle" x="0" y="0" width="24" height="24"></rect>
            </g>
        </g>
    </g>
</svg>