<?xml version="1.0" encoding="UTF-8"?>
<svg width="24px" height="24px" viewBox="0 0 24 24" version="1.1" xmlns="http://www.w3.org/2000/svg" xmlns:xlink="http://www.w3.org/1999/xlink">
    <title>1. atom / Icons / Dienstleistungen / Immobilien</title>
    <defs>
        <path d="M18.4341314,19.7142393 L15.2169327,19.7142393 L15.2169327,13.928316 C15.2169327,13.5731469 14.9288896,13.2853544 14.5734929,13.2853544 L9.42597483,13.2853544 C9.07057808,13.2853544 8.78253508,13.5731469 8.78253508,13.928316 L8.78253508,19.7142393 L5.56525494,19.7142393 L5.56525494,10.9800065 L11.9996525,4.55112159 L18.4341314,10.9800065 L18.4341314,19.7142393 Z M10.0694146,19.7142393 L13.9300531,19.7142393 L13.9300531,14.5711151 L10.0694146,14.5711151 L10.0694146,19.7142393 Z M20.8194139,11.545026 L19.5331851,10.2599155 L12.4552664,3.18823147 C12.2039914,2.93725618 11.7966965,2.93725618 11.5454215,3.18823147 L4.46758413,10.2599155 L3.18062327,11.5457575 C2.93374089,11.8011216 2.94081791,12.2081437 3.19648557,12.4547302 C3.44580831,12.6953836 3.8411455,12.6953836 4.09046824,12.4547302 L4.27837543,12.2657672 L4.27837543,20.3571196 C4.27837543,20.7121261 4.56649978,21 4.92181519,21 L19.0775712,21 C19.432968,21 19.721011,20.7121261 19.721011,20.3571196 L19.721011,12.2657672 L19.9095689,12.45408 C20.1651552,12.700829 20.5725315,12.6936769 20.8194139,12.438394 C21.0601954,12.1892068 21.0601954,11.7942133 20.8194139,11.545026 L20.8194139,11.545026 Z" id="path-1"></path>
    </defs>
    <g id="1.-atom-/-Icons-/-Dienstleistungen-/-Immobilien" stroke="none" stroke-width="1" fill="none" fill-rule="evenodd">
        <mask id="mask-2" fill="white">
            <use xlink:href="#path-1"></use>
        </mask>
        <use id="Mask" fill="#4D7CFF" xlink:href="#path-1"></use>
        <g id="Group" mask="url(#mask-2)" fill="#2E4A8C">
            <g id="4.-color-/-black">
                <rect id="Rectangle" x="0" y="0" width="24" height="24"></rect>
            </g>
        </g>
    </g>
</svg>