<?xml version="1.0" encoding="UTF-8"?>
<svg width="24px" height="24px" viewBox="0 0 24 24" version="1.1" xmlns="http://www.w3.org/2000/svg" xmlns:xlink="http://www.w3.org/1999/xlink">
    <title>1. atom / Icons / Dienstleistungen / Vorsorge</title>
    <defs>
        <path d="M18.7679683,9.46879735 L17.2315675,3.80910885 L19.1428385,3.30353548 L20.6791583,8.9633039 L18.7679683,9.46879735 Z M17.4164117,9.0174896 L12.9901102,10.1881565 C12.7068121,10.0003447 12.3661903,9.89061465 11.9999025,9.89061465 C11.3001179,9.89061465 10.6933627,10.291413 10.4025347,10.8725107 L8.81577336,11.2921702 C8.74679078,11.3103919 8.69213908,11.2878545 8.66566337,11.2726697 C8.6391067,11.2575649 8.59190383,11.2220804 8.5734437,11.1540686 L7.54923047,7.38096954 C7.52097352,7.27699373 7.58372176,7.16966129 7.6891388,7.14176924 L16.2896962,4.86700874 L17.4164117,9.0174896 Z M12.5935414,11.6483732 C12.5935414,11.9714894 12.3272459,12.234346 11.9999025,12.234346 C11.6726401,12.234346 11.4063446,11.9714894 11.4063446,11.6483732 C11.4063446,11.3253369 11.6726401,11.0624803 11.9999025,11.0624803 C12.3272459,11.0624803 12.5935414,11.3253369 12.5935414,11.6483732 L12.5935414,11.6483732 Z M6.31750273,11.1442384 C6.21208568,11.1720505 6.10334905,11.1101126 6.07501114,11.0060569 L5.46056416,8.74224542 C5.44210404,8.67423357 5.46501726,8.62012779 5.48031974,8.59399398 C5.49562221,8.56794009 5.53157088,8.52126686 5.6004725,8.50304512 L6.55610798,8.25025843 L7.27297627,10.8914517 L6.31750273,11.1442384 Z M3.62791068,11.0466562 L3.32072768,9.91475047 L4.46744167,9.6114544 L4.62103318,10.1774472 L4.77470564,10.7433601 L3.62791068,11.0466562 Z M21.9796257,9.22592074 L20.1359609,2.43424658 C20.0952353,2.28415699 19.9957287,2.1562052 19.8593019,2.07852305 C19.723118,2.00084089 19.5610251,1.97974204 19.408972,2.01994175 L16.3509061,2.82881119 C16.0342501,2.91248734 15.8464102,3.2337654 15.931262,3.5464121 L15.9825132,3.73502309 L7.38179387,6.00978358 C6.84928395,6.15060247 6.47271354,6.5813708 6.37855069,7.08398714 L5.29320853,7.37097955 C4.93582693,7.46552481 4.63722627,7.69177808 4.45222016,8.00802118 C4.37157855,8.14588303 4.31684589,8.29357503 4.28858894,8.4455827 L2.4401472,8.93445281 C2.12349123,9.01820888 1.93557037,9.33948693 2.02034122,9.65205371 L2.63486916,11.916025 C2.67559479,12.0661146 2.77518232,12.1941463 2.91144722,12.2717486 C3.00253337,12.3236965 3.10503566,12.3503098 3.20826664,12.3503098 C3.25967971,12.3503098 3.31141665,12.3437564 3.36193911,12.3303298 L5.21151437,11.8411401 C5.47214223,12.142598 5.85810464,12.3228973 6.26665641,12.3228973 C6.38502793,12.3228973 6.50518069,12.3077125 6.62484766,12.2761441 L7.70970403,11.9891517 C7.81107281,12.1067939 7.93260198,12.2080524 8.07210549,12.2876526 C8.28553048,12.4092108 8.52235449,12.4713086 8.76241711,12.4713086 C8.88265084,12.4713086 9.00377519,12.4557242 9.12311829,12.4241558 L10.2840012,12.1171834 C10.3668289,12.4124076 10.5256022,12.6768626 10.7387033,12.888011 L6.71601479,21.1603614 C6.57424424,21.4519892 6.69885011,21.8020384 6.99437408,21.942138 C7.07712079,21.9813787 7.16464447,22 7.25079173,22 C7.47190844,22 7.68428088,21.8774029 7.78637834,21.6673733 L11.4063446,14.2229133 L11.4063446,21.4140272 C11.4063446,21.7376229 11.6720733,22 11.9999025,22 C12.3278127,22 12.5935414,21.7376229 12.5935414,21.4140272 L12.5935414,14.2229932 L16.2135886,21.6674532 C16.3156861,21.8774029 16.5280585,22 16.7491752,22 C16.8353225,22 16.9227652,21.9812987 17.0055929,21.942138 C17.3011978,21.8021183 17.4258037,21.4520691 17.2839522,21.1603614 L13.2612636,12.888011 C13.5820488,12.5699297 13.7807381,12.1316489 13.7807381,11.6483732 C13.7807381,11.4961258 13.7609825,11.3483539 13.7239003,11.2072952 L17.7236756,10.1493953 L17.7748458,10.3380862 C17.8155715,10.4881758 17.915078,10.6161276 18.0514239,10.6938098 C18.1424291,10.7457577 18.2449314,10.7723711 18.3481623,10.7723711 C18.3996564,10.7723711 18.4513124,10.7658176 18.5018348,10.752471 L21.5598198,9.94360156 C21.8765567,9.85984549 22.0644775,9.53848752 21.9796257,9.22592074 L21.9796257,9.22592074 Z" id="path-1"></path>
    </defs>
    <g id="1.-atom-/-Icons-/-Dienstleistungen-/-Vorsorge" stroke="none" stroke-width="1" fill="none" fill-rule="evenodd">
        <mask id="mask-2" fill="white">
            <use xlink:href="#path-1"></use>
        </mask>
        <use id="Mask" fill="#4D7CFF" xlink:href="#path-1"></use>
        <g id="Group" mask="url(#mask-2)" fill="#2E4A8C">
            <g id="4.-color-/-black">
                <rect id="Rectangle" x="0" y="0" width="24" height="24"></rect>
            </g>
        </g>
    </g>
</svg>