<?xml version="1.0" encoding="UTF-8"?>
<svg width="24px" height="24px" viewBox="0 0 24 24" version="1.1" xmlns="http://www.w3.org/2000/svg" xmlns:xlink="http://www.w3.org/1999/xlink">
    <title>1. atom / Icons / retirement</title>
    <defs>
        <filter id="filter-1">
            <feColorMatrix in="SourceGraphic" type="matrix" values="0 0 0 0 0.854968 0 0 0 0 0.900611 0 0 0 0 0.983639 0 0 0 1.000000 0"></feColorMatrix>
        </filter>
        <polygon id="path-2" points="10.0069726 19.9793217 1.36 14.9898734 1.36 5.01097696 10.0069726 0.0216049598 18.6538689 5.01097696 18.6538689 14.9898734"></polygon>
        <path d="M9.74193548,9 C10.3643548,9 10.8709677,9.5066129 10.8709677,10.1290323 C10.8709677,10.4448387 10.7403226,10.7303226 10.5304839,10.9354839 L10.5304839,10.9354839 L12.8064516,10.9354839 C13.1622581,10.9354839 13.4516129,11.2248387 13.4516129,11.5806452 C13.4516129,11.8198387 13.3193548,12.0264516 13.1256452,12.1379032 L13.1256452,12.1379032 L12.9730645,16.7419355 L13.2903226,16.7419355 C13.3669355,16.7419355 13.4385484,16.7614516 13.5030645,16.7933871 C13.471129,16.728871 13.4516129,16.6572581 13.4516129,16.5806452 L13.4516129,16.5806452 L13.4516129,16.2580645 C13.4516129,15.9912903 13.6687097,15.7741935 13.9354839,15.7741935 L13.9354839,15.7741935 L14.208871,15.7741935 C13.7517742,15.4529032 13.4516129,14.9225806 13.4516129,14.3225806 C13.4516129,13.3443548 14.2475806,12.5483871 15.2258065,12.5483871 C16.2040323,12.5483871 17,13.3443548 17,14.3225806 C17,14.9225806 16.6998387,15.4529032 16.2427419,15.7741935 L16.2427419,15.7741935 L16.516129,15.7741935 C16.7829032,15.7741935 17,15.9912903 17,16.2580645 L17,16.2580645 L17,16.5806452 C17,16.705 16.9516129,16.8174194 16.8741935,16.9032258 C16.9514516,16.9890323 17,17.1014516 17,17.2258065 L17,17.2258065 L17,17.5483871 C17,17.6727419 16.9516129,17.7851613 16.8741935,17.8709677 C16.9514516,17.9567742 17,18.0691935 17,18.1935484 L17,18.1935484 L17,18.516129 C17,18.7829032 16.7829032,19 16.516129,19 L16.516129,19 L13.9354839,19 C13.811129,19 13.6987097,18.9516129 13.6129032,18.8741935 C13.5270968,18.9514516 13.4146774,19 13.2903226,19 L13.2903226,19 L10.7096774,19 C10.5853226,19 10.4729032,18.9516129 10.3870968,18.8741935 C10.3012903,18.9514516 10.188871,19 10.0645161,19 L10.0645161,19 L7.48387097,19 C7.21709677,19 7,18.7829032 7,18.516129 L7,18.516129 L7,18.1935484 C7,17.9267742 7.21709677,17.7096774 7.48387097,17.7096774 L7.48387097,17.7096774 L8.70258065,17.7096774 C8.64709677,17.6143548 8.61290323,17.5051613 8.61290323,17.3870968 L8.61290323,17.3870968 L8.61290323,14.74 C8.3583871,14.591129 7.64516129,14.1070968 7.64516129,13.3548387 C7.64516129,12.7598387 7.82145161,12.1987097 8.16903226,11.6874194 C8.38370968,11.3717742 8.69903226,11.1441935 9.06,11.0266129 C8.78887097,10.8201613 8.61290323,10.4951613 8.61290323,10.1290323 C8.61290323,9.5066129 9.11951613,9 9.74193548,9 Z M14.0967742,18.0322581 L13.9354839,18.0322581 C13.8464516,18.0322581 13.7741935,18.1045161 13.7741935,18.1935484 L13.7741935,18.1935484 L13.7741935,18.516129 C13.7741935,18.6051613 13.8464516,18.6774194 13.9354839,18.6774194 L13.9354839,18.6774194 L16.516129,18.6774194 C16.6051613,18.6774194 16.6774194,18.6051613 16.6774194,18.516129 L16.6774194,18.516129 L16.6774194,18.1935484 C16.6774194,18.1045161 16.6051613,18.0322581 16.516129,18.0322581 L16.516129,18.0322581 L16.3548387,18.0322581 L16.3548387,18.3548387 L16.0322581,18.3548387 L16.0322581,18.0322581 L15.7096774,18.0322581 L15.7096774,18.3548387 L15.3870968,18.3548387 L15.3870968,18.0322581 L15.0645161,18.0322581 L15.0645161,18.3548387 L14.7419355,18.3548387 L14.7419355,18.0322581 L14.4193548,18.0322581 L14.4193548,18.3548387 L14.0967742,18.3548387 L14.0967742,18.0322581 Z M10.8709677,18.0322581 L10.7096774,18.0322581 C10.6206452,18.0322581 10.5483871,18.1045161 10.5483871,18.1935484 L10.5483871,18.1935484 L10.5483871,18.516129 C10.5483871,18.6051613 10.6206452,18.6774194 10.7096774,18.6774194 L10.7096774,18.6774194 L13.2903226,18.6774194 C13.3793548,18.6774194 13.4516129,18.6051613 13.4516129,18.516129 L13.4516129,18.516129 L13.4516129,18.1935484 C13.4516129,18.1045161 13.3793548,18.0322581 13.2903226,18.0322581 L13.2903226,18.0322581 L13.1290323,18.0322581 L13.1290323,18.3548387 L12.8064516,18.3548387 L12.8064516,18.0322581 L12.483871,18.0322581 L12.483871,18.3548387 L12.1612903,18.3548387 L12.1612903,18.0322581 L11.8387097,18.0322581 L11.8387097,18.3548387 L11.516129,18.3548387 L11.516129,18.0322581 L11.1935484,18.0322581 L11.1935484,18.3548387 L10.8709677,18.3548387 L10.8709677,18.0322581 Z M7.64516129,18.0322581 L7.48387097,18.0322581 C7.39483871,18.0322581 7.32258065,18.1045161 7.32258065,18.1935484 L7.32258065,18.1935484 L7.32258065,18.516129 C7.32258065,18.6051613 7.39483871,18.6774194 7.48387097,18.6774194 L7.48387097,18.6774194 L10.0645161,18.6774194 C10.1535484,18.6774194 10.2258065,18.6051613 10.2258065,18.516129 L10.2258065,18.516129 L10.2258065,18.1935484 C10.2258065,18.1045161 10.1535484,18.0322581 10.0645161,18.0322581 L10.0645161,18.0322581 L9.90322581,18.0322581 L9.90322581,18.3548387 L9.58064516,18.3548387 L9.58064516,18.0322581 L9.25806452,18.0322581 L9.25806452,18.3548387 L8.93548387,18.3548387 L8.93548387,18.0322581 L8.61290323,18.0322581 L8.61290323,18.3548387 L8.29032258,18.3548387 L8.29032258,18.0322581 L7.96774194,18.0322581 L7.96774194,18.3548387 L7.64516129,18.3548387 L7.64516129,18.0322581 Z M9.90322581,14.5290323 L9.90322581,17.3870968 C9.90322581,17.5051613 9.86903226,17.6143548 9.81354839,17.7096774 L9.81354839,17.7096774 L10.0645161,17.7096774 C10.141129,17.7096774 10.2127419,17.7291935 10.2772581,17.761129 C10.2453226,17.6966129 10.2258065,17.625 10.2258065,17.5483871 L10.2258065,17.5483871 L10.2258065,17.2258065 C10.2258065,16.9822581 10.4072581,16.7820968 10.6417742,16.748871 C10.583871,16.6520968 10.5483871,16.5401613 10.5483871,16.4193548 L10.5483871,16.4193548 L10.5483871,15.0451613 L9.90322581,14.5290323 Z M14.0967742,17.0645161 L13.9354839,17.0645161 C13.8464516,17.0645161 13.7741935,17.1367742 13.7741935,17.2258065 L13.7741935,17.2258065 L13.7741935,17.5483871 C13.7741935,17.6374194 13.8464516,17.7096774 13.9354839,17.7096774 L13.9354839,17.7096774 L16.516129,17.7096774 C16.6051613,17.7096774 16.6774194,17.6374194 16.6774194,17.5483871 L16.6774194,17.5483871 L16.6774194,17.2258065 C16.6774194,17.1367742 16.6051613,17.0645161 16.516129,17.0645161 L16.516129,17.0645161 L16.3548387,17.0645161 L16.3548387,17.3870968 L16.0322581,17.3870968 L16.0322581,17.0645161 L15.7096774,17.0645161 L15.7096774,17.3870968 L15.3870968,17.3870968 L15.3870968,17.0645161 L15.0645161,17.0645161 L15.0645161,17.3870968 L14.7419355,17.3870968 L14.7419355,17.0645161 L14.4193548,17.0645161 L14.4193548,17.3870968 L14.0967742,17.3870968 L14.0967742,17.0645161 Z M12.8064516,11.2580645 L9.61919355,11.2580645 C9.1383871,11.2580645 8.69596774,11.4864516 8.43580645,11.868871 C8.12532258,12.3256452 7.96774194,12.8256452 7.96774194,13.3548387 C7.96774194,13.8179032 8.35258065,14.1693548 8.61290323,14.3546774 L8.61290323,14.3546774 L8.61290323,12.2258065 L8.93548387,12.2258065 L8.93548387,17.3870968 C8.93548387,17.565 9.08016129,17.7096774 9.25806452,17.7096774 C9.43596774,17.7096774 9.58064516,17.565 9.58064516,17.3870968 L9.58064516,17.3870968 L9.58064516,14.1612903 L9.95983871,14.1612903 L10.7498387,14.7932258 C10.8267742,14.8546774 10.8708065,14.9466129 10.8708065,15.0451613 L10.8708065,15.0451613 L10.8708065,16.4193548 C10.8708065,16.5972581 11.0154839,16.7419355 11.1933871,16.7419355 C11.3712903,16.7419355 11.5159677,16.5972581 11.5159677,16.4193548 L11.5159677,16.4193548 L11.5159677,14.68 C11.5159677,14.5120968 11.4309677,14.3587097 11.2885484,14.2696774 L11.2885484,14.2696774 L10.3014516,13.6527419 L10.4725806,13.3793548 L10.7096774,13.5275806 L10.7096774,11.9032258 L12.8064516,11.9032258 C12.9843548,11.9032258 13.1290323,11.7585484 13.1290323,11.5806452 C13.1290323,11.4027419 12.9843548,11.2580645 12.8064516,11.2580645 L12.8064516,11.2580645 Z M10.8709677,17.0645161 L10.7096774,17.0645161 C10.6206452,17.0645161 10.5483871,17.1367742 10.5483871,17.2258065 L10.5483871,17.2258065 L10.5483871,17.5483871 C10.5483871,17.6374194 10.6206452,17.7096774 10.7096774,17.7096774 L10.7096774,17.7096774 L13.2903226,17.7096774 C13.3793548,17.7096774 13.4516129,17.6374194 13.4516129,17.5483871 L13.4516129,17.5483871 L13.4516129,17.2258065 C13.4516129,17.1367742 13.3793548,17.0645161 13.2903226,17.0645161 L13.2903226,17.0645161 L13.1290323,17.0645161 L13.1290323,17.3870968 L12.8064516,17.3870968 L12.8064516,17.0645161 L12.483871,17.0645161 L12.483871,17.3870968 L12.1612903,17.3870968 L12.1612903,17.0645161 L11.8387097,17.0645161 L11.8387097,17.3870968 L11.516129,17.3870968 L11.516129,17.0645161 L11.1935484,17.0645161 L11.1935484,17.3870968 L10.8709677,17.3870968 L10.8709677,17.0645161 Z M12.1666129,12.2258065 L11.0322581,12.2258065 L11.0322581,13.7291935 L11.4596774,13.9964516 C11.6969355,14.1445161 11.8387097,14.4001613 11.8387097,14.6801613 L11.8387097,14.6801613 L11.8387097,16.4193548 C11.8387097,16.5374194 11.8045161,16.6466129 11.748871,16.7419355 L11.748871,16.7419355 L12.3170968,16.7419355 L12.1666129,12.2258065 Z M12.8003226,12.2258065 L12.4893548,12.2258065 L12.6398387,16.7419355 L12.6506452,16.7419355 L12.8003226,12.2258065 Z M14.0967742,16.0967742 L13.9354839,16.0967742 C13.8464516,16.0967742 13.7741935,16.1690323 13.7741935,16.2580645 L13.7741935,16.2580645 L13.7741935,16.5806452 C13.7741935,16.6696774 13.8464516,16.7419355 13.9354839,16.7419355 L13.9354839,16.7419355 L16.516129,16.7419355 C16.6051613,16.7419355 16.6774194,16.6696774 16.6774194,16.5806452 L16.6774194,16.5806452 L16.6774194,16.2580645 C16.6774194,16.1690323 16.6051613,16.0967742 16.516129,16.0967742 L16.516129,16.0967742 L16.3548387,16.0967742 L16.3548387,16.4193548 L16.0322581,16.4193548 L16.0322581,16.0967742 L15.7096774,16.0967742 L15.7096774,16.4193548 L15.3870968,16.4193548 L15.3870968,16.0967742 L15.0645161,16.0967742 L15.0645161,16.4193548 L14.7419355,16.4193548 L14.7419355,16.0967742 L14.4193548,16.0967742 L14.4193548,16.4193548 L14.0967742,16.4193548 L14.0967742,16.0967742 Z M15.2258065,12.8709677 C14.4253226,12.8709677 13.7741935,13.5220968 13.7741935,14.3225806 C13.7741935,15.1230645 14.4253226,15.7741935 15.2258065,15.7741935 C16.0262903,15.7741935 16.6774194,15.1230645 16.6774194,14.3225806 C16.6774194,13.5220968 16.0262903,12.8709677 15.2258065,12.8709677 Z M16.2540323,13.9395161 L16.2540323,14.0849366 L15.9188921,14.0849366 L15.9188921,14.2313076 L16.21393,14.2313076 L16.21393,14.3767281 L15.9188921,14.3767281 L15.9188921,14.6048387 L15.7298387,14.6048387 L15.7298387,13.9395161 L16.2540323,13.9395161 Z M14.5999835,13.9193548 C14.6601735,13.9193548 14.7144072,13.9300263 14.7626846,13.9513692 C14.8109619,13.9727121 14.8510886,14.003471 14.8830645,14.0436459 L14.8830645,14.0436459 L14.7645655,14.1509881 L14.7189005,14.1080931 C14.686437,14.0852157 14.6499329,14.073777 14.6093882,14.073777 C14.5736504,14.073777 14.5418312,14.0816237 14.5139307,14.097317 C14.4860301,14.1130103 14.4643994,14.1351379 14.4490384,14.1636997 C14.4336774,14.1922615 14.4259969,14.2250606 14.4259969,14.2620968 C14.4259969,14.299133 14.4336774,14.331932 14.4490384,14.3604938 C14.4643994,14.3890557 14.4860301,14.4111832 14.5139307,14.4268766 C14.5418312,14.4425699 14.5736504,14.4504165 14.6093882,14.4504165 C14.6702052,14.4504165 14.7219309,14.4246795 14.7645655,14.3732054 L14.7645655,14.3732054 L14.8830645,14.4805477 L14.8483717,14.5175839 C14.8234319,14.5401823 14.7948695,14.5585958 14.7626846,14.5728244 C14.7144072,14.5941673 14.6601735,14.6048387 14.5999835,14.6048387 C14.5310159,14.6048387 14.4691017,14.5902439 14.414241,14.5610544 C14.3593804,14.5318648 14.3162756,14.4912191 14.2849266,14.4391173 C14.2535777,14.3870155 14.2379032,14.3280087 14.2379032,14.2620968 C14.2379032,14.1961849 14.2535777,14.137178 14.2849266,14.0850762 C14.3162756,14.0329744 14.3593804,13.9923287 14.414241,13.9631392 C14.4691017,13.9339496 14.5310159,13.9193548 14.5999835,13.9193548 Z M15.1495205,13.9395161 L15.1495205,14.1894873 L15.4028989,14.1894873 L15.4028989,13.9395161 L15.5887097,13.9395161 L15.5887097,14.6048387 L15.4028989,14.6048387 L15.4028989,14.3453629 L15.1495205,14.3453629 L15.1495205,14.6048387 L14.9637097,14.6048387 L14.9637097,13.9395161 L15.1495205,13.9395161 Z M9.74193548,9.32258065 C9.29725806,9.32258065 8.93548387,9.68435484 8.93548387,10.1290323 C8.93548387,10.5737097 9.29725806,10.9354839 9.74193548,10.9354839 C10.1866129,10.9354839 10.5483871,10.5737097 10.5483871,10.1290323 C10.5483871,9.68435484 10.1866129,9.32258065 9.74193548,9.32258065 Z" id="path-4"></path>
    </defs>
    <g id="1.-atom-/-Icons-/-retirement" stroke="none" stroke-width="1" fill="none" fill-rule="evenodd">
        <g id="1.-atom-/-Hexagon" transform="translate(2.000000, 4.000000)" filter="url(#filter-1)">
            <g>
                <mask id="mask-3" fill="white">
                    <use xlink:href="#path-2"></use>
                </mask>
                <use id="Mask" fill="#A2DAF2" xlink:href="#path-2"></use>
                <g id="Group" mask="url(#mask-3)" fill="#DAE6FB">
                    <g id="4.-color-/-lightblue">
                        <rect id="Rectangle" x="0" y="0" width="20" height="20"></rect>
                    </g>
                </g>
            </g>
        </g>
        <mask id="mask-5" fill="white">
            <use xlink:href="#path-4"></use>
        </mask>
        <use id="Mask" fill="#000000" fill-rule="nonzero" xlink:href="#path-4"></use>
        <g id="Group" mask="url(#mask-5)" fill="#4D7CFF">
            <g id="4.-color-/-black">
                <rect id="Rectangle" x="0" y="0" width="24" height="24"></rect>
            </g>
        </g>
    </g>
</svg>