<?xml version="1.0" encoding="UTF-8"?>
<svg width="24px" height="24px" viewBox="0 0 24 24" version="1.1" xmlns="http://www.w3.org/2000/svg" xmlns:xlink="http://www.w3.org/1999/xlink">
    <title>1. atom / Icons / Dienstleistungen / Sparen</title>
    <defs>
        <path d="M20.3333659,11.9251832 L20.3333659,10.3439457 C20.7297338,10.2071361 21.0670251,10.0555551 21.3333776,9.88943468 L21.3333776,11.2563707 C21.3330654,11.4422894 20.9817268,11.684123 20.3333659,11.9251832 L20.3333659,11.9251832 Z M20.3289956,16.2386686 C20.2927067,16.462328 19.7806826,16.7589163 18.8703395,17.0377171 C17.6910686,17.3987275 15.8457216,17.7294989 13.5070022,17.8318161 C13.387366,17.8367657 13.268042,17.8417926 13.1459866,17.8457368 C13.0463288,17.8490623 12.9463588,17.8520011 12.844672,17.8546306 C12.5686425,17.8605855 12.288711,17.8649164 12.000039,17.8649164 C11.711367,17.8649164 11.4310453,17.8605855 11.1547037,17.8543212 C11.0543435,17.8520011 10.9553881,17.8487529 10.8563546,17.8454274 C10.7333627,17.8414059 10.6133364,17.8365337 10.4929978,17.8315067 C8.15435642,17.7291122 6.30900939,17.3984181 5.12966048,17.0374078 C4.2480363,16.7675008 3.73866558,16.4808116 3.67467233,16.2594723 C3.77401796,16.2938101 3.87703149,16.3272198 3.98262037,16.3599334 C3.99331192,16.3632589 4.00400348,16.3665071 4.01469504,16.3695233 C4.1046758,16.3969007 4.19668562,16.42335 4.29103665,16.4491033 C4.32670119,16.4590025 4.36267788,16.4689016 4.39896674,16.4784915 C4.45234648,16.4927215 4.50697487,16.5061782 4.56168131,16.5200989 C5.77568022,16.8282879 7.32533157,17.0466883 8.99836505,17.1447519 C8.99898937,17.1447519 8.99937958,17.1450613 9.0000039,17.1450613 C9.00031606,17.1450613 9.00070627,17.1447519 9.00101843,17.1447519 C9.51772496,17.1751454 10.0453572,17.1940157 10.5786863,17.2002801 C10.7207202,17.2029095 10.8616614,17.2042243 11.0000273,17.2042243 C11.1836567,17.2042243 11.3717345,17.2019041 11.5619974,17.198656 C12.0483461,17.1906902 12.5283736,17.1728253 12.9977095,17.1450613 C12.998724,17.1450613 12.9993484,17.1457573 13.0003629,17.1457573 C13.0020017,17.1457573 13.0030163,17.1447519 13.0046551,17.1447519 C13.5763802,17.1107235 14.1296878,17.0621557 14.6613781,17.0017553 C14.6633291,17.0017553 14.665046,17.0026834 14.6670751,17.0026834 C14.6743329,17.0026834 14.680342,16.9990485 14.6876778,16.9984298 C15.2796935,16.9307597 15.8410392,16.8474675 16.362038,16.7507186 C16.4693437,16.7312296 16.5750106,16.7110446 16.6797411,16.6902409 C16.7029971,16.6856006 16.7263313,16.6809604 16.7497434,16.6760881 C17.733991,16.475862 18.5860378,16.2165502 19.1707176,15.8951365 C19.2027143,15.8778903 19.2326818,15.8601028 19.2630396,15.8425472 C19.3000308,15.8208154 19.3353832,15.798697 19.369721,15.7761918 C19.4017177,15.7556975 19.4387089,15.7358991 19.4680521,15.7150954 C20.1260121,15.9476485 20.3073783,16.1557631 20.3289956,16.2386686 L20.3289956,16.2386686 Z M19.3333541,19.1924877 L19.3333541,17.6111729 C19.7297221,17.4744406 20.0670134,17.3227823 20.3333659,17.1566618 L20.3333659,18.5235205 C20.3330537,18.7095939 19.9817151,18.9513502 19.3333541,19.1924877 L19.3333541,19.1924877 Z M3.66671219,18.5242165 L3.66671219,17.1563525 C3.93298657,17.3224729 4.2703559,17.4741313 4.6667239,17.6108635 L4.6667239,19.1924877 C4.0182849,18.9516595 3.66733651,18.7101353 3.66671219,18.5242165 L3.66671219,18.5242165 Z M2.66670048,14.8906029 L2.66670048,13.5226616 C2.93297487,13.6888593 3.2703442,13.8405177 3.66671219,13.97725 L3.66671219,15.5525325 L3.47637127,15.4792168 L3.47231316,15.4832383 C2.94897318,15.2681634 2.66732481,15.0570327 2.66670048,14.8906029 L2.66670048,14.8906029 Z M4.28135962,11.8644735 C4.28635422,11.8697324 4.29400219,11.8743727 4.29899679,11.8796316 C4.75529993,12.3360761 5.70037108,12.6948436 6.87667641,12.9624305 C6.90367844,12.9686948 6.93231933,12.9746498 6.95963352,12.9809141 C7.04602442,13.0000937 7.13366397,13.018964 7.22231804,13.0371383 C8.30263348,13.2650512 9.59233173,13.4298569 10.9973739,13.5114477 C10.9983104,13.5114477 10.9990128,13.5118344 10.9996371,13.5118344 C11.0003395,13.5118344 11.0007297,13.5114477 11.0010418,13.5114477 C11.4523504,13.5375877 11.9140383,13.5557619 12.3853253,13.5637277 C12.5940057,13.5679039 12.7993304,13.5705333 13.0000507,13.5705333 C13.2300362,13.5705333 13.4660309,13.5679039 13.7060056,13.5623356 C14.1420182,13.5534418 14.5717095,13.5355769 14.9953917,13.5111383 C14.9970306,13.5111383 14.9983572,13.5121437 14.9999961,13.5121437 C15.0030397,13.5121437 15.0053809,13.5104423 15.0083464,13.5104423 C16.4170565,13.4282328 17.7386734,13.2617257 18.8563703,13.0222895 C18.6143665,13.1478079 18.2830843,13.2775798 17.8703278,13.4041036 C16.6253468,13.7852989 14.6370295,14.1324658 12.1099982,14.2130512 C12.0350012,14.2153714 11.9610187,14.2180008 11.8850072,14.2200116 C11.8033768,14.2220224 11.7203417,14.2233371 11.6373845,14.2249612 C11.4276896,14.2282867 11.2166679,14.2312255 11.0000273,14.2312255 C10.7113553,14.2312255 10.4313458,14.226972 10.1553944,14.2207076 C10.0540197,14.2183102 9.95397168,14.215062 9.85400172,14.2117365 C9.73163413,14.208179 9.61238816,14.2028427 9.4929861,14.1978931 C7.15434471,14.0954213 5.30868552,13.7648045 4.12964878,13.4037942 C3.21298439,13.1229826 2.7000238,12.8243835 2.67029035,12.6001055 C2.70735961,12.4759018 3.04433874,12.1650834 4.28135962,11.8644735 L4.28135962,11.8644735 Z M2.66670048,7.29299102 L2.66670048,5.92512699 C2.93297487,6.09124741 3.2703442,6.24290577 3.66671219,6.37963804 L3.66671219,7.96126224 C3.01835124,7.72043403 2.66732481,7.47898712 2.66670048,7.29299102 L2.66670048,7.29299102 Z M11.0000273,3.66069217 C16.4963458,3.66069217 19.2763845,4.51820765 19.3283595,5.01038194 C19.2880126,5.23373193 18.7763787,5.52869622 17.8703278,5.80618229 C16.6910569,6.1671926 14.8457099,6.4978867 12.5069905,6.60028123 C12.3873543,6.60523081 12.2680303,6.6101804 12.1459749,6.61420193 C12.0463951,6.6174501 11.9463471,6.62046625 11.8447383,6.62309572 C11.5687089,6.62936003 11.2886993,6.63369092 11.0000273,6.63369092 C10.7113553,6.63369092 10.4313458,6.62936003 10.1553944,6.62309572 C10.0540197,6.6207756 9.95397168,6.6174501 9.85400172,6.61420193 C9.73163413,6.61056708 9.61238816,6.60523081 9.4929861,6.60028123 C7.15434471,6.4978867 5.30868552,6.1671926 4.12964878,5.80618229 C3.22328574,5.52869622 2.71204205,5.23373193 2.67169508,5.01038194 C2.72367009,4.51820765 5.50370888,3.66069217 11.0000273,3.66069217 L11.0000273,3.66069217 Z M21.3297097,8.96741992 C21.2990397,9.19169796 20.7860011,9.49006509 19.8703512,9.77048998 C18.6910804,10.1315776 16.8457333,10.4621944 14.5070139,10.5645889 C14.3873777,10.5695385 14.2680537,10.5744881 14.1459983,10.5784323 C14.0463405,10.5817578 13.9463705,10.5847739 13.8446837,10.5874034 C13.5686542,10.593281 13.2886447,10.5976119 13.0000507,10.5976119 C12.7113787,10.5976119 12.4313692,10.593281 12.1553397,10.5870167 C12.0540431,10.5847739 11.9539951,10.5814484 11.8540251,10.5781229 C11.7316575,10.5744881 11.6123335,10.5692291 11.4930095,10.5642022 C9.15436813,10.461885 7.30870894,10.1311909 6.12967219,9.77018063 C5.22135814,9.49199852 4.70933404,9.19602885 4.67132829,8.97275619 C4.67304518,8.96649188 4.67304518,8.96115561 4.67702525,8.95326721 C4.69965701,8.95883549 4.72502019,8.96347572 4.74804216,8.96912134 C4.87829185,8.99982423 5.01197532,9.02952174 5.14800002,9.05798185 C5.81033023,9.19935435 6.54437971,9.3152829 7.3263461,9.40375672 C7.32899948,9.40375672 7.33102854,9.40514879 7.33329171,9.40514879 C7.33399408,9.40514879 7.33469644,9.4047621 7.3350086,9.4047621 C7.86771345,9.46493048 8.42031864,9.51218355 8.98767349,9.5455159 C8.99204377,9.5455159 8.99571167,9.54783602 9.0000039,9.54783602 C9.00234512,9.54783602 9.00398397,9.54652129 9.00632519,9.54652129 C9.41471143,9.57034116 9.82832638,9.58774205 10.247014,9.59702252 C10.5033772,9.60336417 10.755058,9.60668967 11.0000273,9.60668967 C11.1749942,9.60668967 11.3543314,9.60460157 11.5353855,9.6013534 C13.9573742,9.56438619 16.2020548,9.27893439 17.7640366,8.83664263 C17.836068,8.8164576 17.9063825,8.79565388 17.9756826,8.77485016 C18.0180586,8.76201217 18.0613711,8.7494062 18.1023424,8.73656822 C18.2229931,8.69820894 18.3386492,8.65892161 18.4504033,8.61793287 C18.4696793,8.61066317 18.4880188,8.60339347 18.5073729,8.5962011 C18.6017239,8.56085797 18.692407,8.52412278 18.7790321,8.48684622 C18.804005,8.47586433 18.8296804,8.46534647 18.854029,8.45444191 C18.946351,8.41314382 19.0357075,8.37091768 19.1183524,8.32691278 C19.1557338,8.30742379 19.1880426,8.2873161 19.2230048,8.26751777 C19.2630396,8.24470328 19.3029964,8.22157944 19.3399876,8.19814625 C19.3610585,8.18492158 19.3860315,8.17231561 19.4060099,8.15909094 C20.8983795,8.47988587 21.2917039,8.83068766 21.3297097,8.96741992 L21.3297097,8.96741992 Z M19.5213538,12.1818656 C19.3553616,12.2278039 19.1796923,12.2707261 19.0003551,12.3127202 C18.9173199,12.3318999 18.832724,12.3510022 18.7460209,12.3694858 C18.7203456,12.3751314 18.6930314,12.380081 18.6670439,12.3857266 L18.6670439,10.7740182 C19.0210358,10.7050334 19.3556737,10.6290108 19.6670556,10.5457186 L19.6670556,12.1415729 C19.6190606,12.1547975 19.5707535,12.1684089 19.5213538,12.1818656 L19.5213538,12.1818656 Z M15.7120381,12.8012597 C15.5876415,12.8114682 15.4593428,12.8181192 15.3333854,12.827013 L15.3333854,11.1825909 C15.671379,11.1604725 16.0053926,11.1341005 16.3333971,11.1023148 L16.3333971,12.7411686 C16.1397004,12.7613536 15.9463939,12.781384 15.7473905,12.7979342 C15.7353723,12.7989395 15.7240564,12.8002543 15.7120381,12.8012597 L15.7120381,12.8012597 Z M17.9690491,12.5192107 C17.8227231,12.544268 17.6750703,12.5690159 17.5233595,12.5918304 C17.4363443,12.605055 17.347378,12.6175837 17.2580216,12.6301123 C17.1737378,12.6420996 17.0860202,12.6522308 17.0004097,12.6632127 L17.0004097,11.0310099 C17.3440223,10.9900212 17.6777237,10.9435415 18.0003434,10.8916482 L18.0003434,12.5134877 C17.9897299,12.5154985 17.9793505,12.5175093 17.9690491,12.5192107 L17.9690491,12.5192107 Z M13.6613664,11.2516531 C13.9970189,11.2453888 14.3326713,11.2351802 14.6666849,11.2199448 L14.6666849,12.8676924 C14.2286432,12.8891148 13.7833438,12.9010247 13.3333619,12.905665 L13.3333619,11.2566027 C13.4250596,11.2556746 13.5166792,11.2542826 13.6083769,11.2526585 C13.626014,11.2523491 13.6436512,11.2520398 13.6613664,11.2516531 L13.6613664,11.2516531 Z M5.66665756,10.3436364 L5.66665756,11.9130413 C5.14269326,11.7125058 4.8046996,11.5077167 4.69466242,11.3253555 L4.67234282,11.2883883 C4.67031376,11.2781024 4.66695802,11.2671979 4.6667239,11.256912 L4.6667239,9.88904799 C4.93299828,10.0551684 5.27036761,10.2068268 5.66665756,10.3436364 L5.66665756,10.3436364 Z M7.33329171,10.7736315 L7.33329171,12.3834065 C6.96501832,12.3050638 6.63100473,12.2218489 6.33335805,12.1353086 L6.33335805,10.5454093 C6.64466183,10.6286242 6.97929974,10.7050334 7.33329171,10.7736315 L7.33329171,10.7736315 Z M8.38168856,12.5769816 C8.24972198,12.5561006 8.12571553,12.5336728 7.9999922,12.5118637 L7.9999922,10.8919575 C8.3226899,10.9438508 8.65639133,10.9904078 9.0000039,11.0313192 L9.0000039,12.6651461 C8.79600588,12.6384647 8.59637814,12.6106233 8.40463249,12.5809258 C8.39698451,12.5793017 8.38933654,12.5779097 8.38168856,12.5769816 L8.38168856,12.5769816 Z M10.5839931,12.8236875 C10.5390417,12.820362 10.4937002,12.8171138 10.4489829,12.8137883 C10.2356981,12.7972381 10.0273298,12.7791412 9.82403415,12.7589562 C9.78033144,12.7547026 9.73670677,12.7500624 9.69339426,12.7457315 C9.68434155,12.7448035 9.67567905,12.7434114 9.66670439,12.7427927 L9.66670439,11.1023148 C9.99463081,11.1337911 10.3286444,11.1604725 10.6667161,11.1825909 L10.6667161,12.8290237 C10.6397141,12.827013 10.6109951,12.8256982 10.5839931,12.8236875 L10.5839931,12.8236875 Z M6.99998049,7.0670889 L6.99998049,8.69921432 C6.93403622,8.69062989 6.86536053,8.68366954 6.79996254,8.67477575 C6.7573524,8.66882078 6.71669327,8.66255646 6.6746294,8.6566015 C6.48202531,8.62914677 6.29371344,8.59975861 6.10899144,8.56905572 C6.07200022,8.56279141 6.03633568,8.5561404 5.99996878,8.54987608 L5.99996878,6.92795918 C6.32266649,6.97954312 6.65636791,7.0264095 6.99998049,7.0670889 L6.99998049,7.0670889 Z M7.66668097,8.77747963 L7.66668097,7.13839385 C7.99468544,7.16979277 8.32869902,7.19655146 8.66669268,7.21866992 L8.66669268,8.86309197 C8.32737234,8.83896274 7.99265638,8.81150802 7.66668097,8.77747963 L7.66668097,8.77747963 Z M14.3333737,7.13839385 L14.3333737,8.77686093 C14.0113783,8.81057997 13.6779891,8.83989079 13.3333619,8.8644067 L13.3333619,7.21866992 C13.6713556,7.19655146 14.0053692,7.16979277 14.3333737,7.13839385 L14.3333737,7.13839385 Z M16.6667083,8.41971748 L16.6667083,6.81001986 C17.0207003,6.74103503 17.3553382,6.66501251 17.66672,6.58179762 L17.66672,8.17401703 C17.3679807,8.26017073 17.031704,8.34245757 16.6667083,8.41971748 L16.6667083,8.41971748 Z M14.9999961,8.69890497 L14.9999961,7.0670889 C15.3436867,7.02610015 15.6773881,6.97954312 16.0000078,6.92764983 L16.0000078,8.54693727 C15.6840216,8.60246542 15.3513347,8.65327599 14.9999961,8.69890497 L14.9999961,8.69890497 Z M19.2570305,7.45354316 L19.2476656,7.45153239 L19.1263906,7.54503313 C18.9503311,7.68083735 18.6799986,7.81826565 18.3334205,7.95097638 L18.3334205,6.37963804 C18.7297104,6.24290577 19.0670017,6.09124741 19.3333541,5.92512699 L19.3333541,7.29198563 C19.3333541,7.34225485 19.3067423,7.39639093 19.2570305,7.45354316 L19.2570305,7.45354316 Z M11.661343,7.28773209 C11.9969954,7.28146777 12.3326479,7.27118191 12.6666615,7.25594647 L12.6666615,8.90400337 C12.610004,8.90663284 12.5556878,8.91065438 12.4986401,8.91328385 C12.4940358,8.91359319 12.4893533,8.91359319 12.4843587,8.91390254 C12.2606945,8.92380171 12.03266,8.93114875 11.8016599,8.93640768 C11.7656832,8.93741307 11.7297065,8.93772242 11.6936518,8.9387278 C11.5750301,8.94104792 11.4536771,8.94135727 11.3333385,8.942672 L11.3333385,7.29268167 C11.4250362,7.29167628 11.5166558,7.29036155 11.6083535,7.28866013 C11.6259906,7.28835078 11.6437058,7.28804143 11.661343,7.28773209 L11.661343,7.28773209 Z M10.3917012,7.28866013 C10.4833208,7.29036155 10.5750184,7.29167628 10.6667161,7.29268167 L10.6667161,8.94197597 C10.2179829,8.93772242 9.7719811,8.92612183 9.33331512,8.90431272 L9.33331512,7.25633316 C9.66732871,7.27187795 10.0029811,7.28208647 10.3387116,7.28804143 C10.3563488,7.28804143 10.373986,7.28835078 10.3917012,7.28866013 L10.3917012,7.28866013 Z M4.33333463,8.17757454 L4.33333463,6.58179762 C4.64463842,6.66501251 4.97935437,6.74103503 5.33334634,6.81001986 L5.33334634,8.42242429 C5.29237505,8.41383985 5.24999902,8.40517808 5.20996422,8.39667098 C5.03265607,8.35800236 4.85964015,8.31770965 4.69435025,8.27509682 C4.56831475,8.24300186 4.44867858,8.2102882 4.33333463,8.17757454 L4.33333463,8.17757454 Z M12.1083593,12.8983953 C11.857693,12.8921309 11.6126457,12.8825411 11.3719686,12.8709405 C11.3590139,12.8703218 11.3459811,12.8696258 11.3333385,12.8693164 L11.3333385,11.2199448 C11.6673521,11.2354896 12.0030046,11.2457755 12.338735,11.2516531 C12.3563722,11.2520398 12.3740094,11.2523491 12.3913344,11.2526585 C12.483032,11.2542826 12.5747297,11.2556746 12.6663493,11.2566027 L12.6663493,12.9059743 C12.5040249,12.9042729 12.3403739,12.9036542 12.1820296,12.9000193 C12.1576809,12.8994006 12.132708,12.899014 12.1083593,12.8983953 L12.1083593,12.8983953 Z M16.6667083,14.4073224 C17.0207003,14.3382603 17.3553382,14.2623151 17.66672,14.1791002 L17.66672,15.7748771 C17.3696976,15.8597934 17.0353719,15.9420029 16.6667083,16.0196495 L16.6667083,14.4073224 Z M14.9999961,16.2984503 L14.9999961,14.6646235 C15.3436867,14.6237121 15.6773881,14.5770777 16.0000078,14.5252617 L16.0000078,16.1471787 C15.6860506,16.2020108 15.3523492,16.2528987 14.9999961,16.2984503 L14.9999961,16.2984503 Z M13.5553093,16.4470925 C13.4820292,16.4527381 13.4080468,16.4583064 13.3333619,16.4636427 L13.3333619,14.8162818 C13.6713556,14.7941634 14.0053692,14.767714 14.3333737,14.7360058 L14.3333737,16.3764063 C14.1273466,16.397906 13.9167151,16.4180911 13.7003867,16.4354919 C13.6520015,16.4398228 13.6036944,16.4434577 13.5553093,16.4470925 L13.5553093,16.4470925 Z M6.99998049,14.6646235 L6.99998049,16.2984503 C6.64770541,16.252512 6.31400399,16.2020108 5.99996878,16.1471787 L5.99996878,14.5252617 C6.32266649,14.5770777 6.65636791,14.6239441 6.99998049,14.6646235 L6.99998049,14.6646235 Z M7.83969689,16.3942712 C7.80567121,16.3909457 7.77203573,16.3873108 7.73832221,16.3839853 C7.71436375,16.3816652 7.69071747,16.3787264 7.66668097,16.3764063 L7.66668097,14.7363925 C7.99468544,14.767714 8.32869902,14.7944727 8.66669268,14.8165912 L8.66669268,16.4626373 C8.38668316,16.442839 8.11002938,16.4203338 7.83969689,16.3942712 L7.83969689,16.3942712 Z M8.66669268,18.3696193 C8.99469714,18.4010183 9.32871073,18.427777 9.66670439,18.4498954 L9.66670439,20.0972563 C9.32036039,20.0731271 8.98697113,20.0437389 8.66669268,20.0104065 L8.66669268,18.3696193 Z M6.99998049,18.1591847 C7.3226782,18.211078 7.65637962,18.257635 7.9999922,18.2986237 L7.9999922,19.9323733 C7.64763908,19.8865123 7.31401569,19.8359337 6.99998049,19.7811016 L6.99998049,18.1591847 Z M6.33335805,18.040936 L6.33335805,19.6533404 C5.96469445,19.5756938 5.6303687,19.493407 5.33334634,19.408568 L5.33334634,17.8127138 C5.64465012,17.8959287 5.97936608,17.9721832 6.33335805,18.040936 L6.33335805,18.040936 Z M17.66672,18.040936 C18.020712,17.9719512 18.3553499,17.8959287 18.6667317,17.8127138 L18.6667317,19.408568 C18.3697093,19.493407 18.0353836,19.5756938 17.66672,19.6533404 L17.66672,18.040936 Z M16.0000078,18.2982371 C16.3436984,18.2573257 16.6773218,18.2106913 17.0000195,18.1588753 L17.0000195,19.7807922 C16.6860623,19.8356244 16.3523609,19.8861256 16.0000078,19.9320639 L16.0000078,18.2982371 Z M15.3333854,18.3696193 L15.3333854,20.0100199 C15.0130289,20.0434296 14.6797176,20.0728177 14.3333737,20.0969469 L14.3333737,18.4495087 C14.6713673,18.427777 15.0053809,18.4010183 15.3333854,18.3696193 L15.3333854,18.3696193 Z M12.6613547,18.5189576 C12.9970071,18.5126933 13.3326596,18.5024074 13.6666732,18.4872493 L13.6666732,20.1365436 C13.2386988,20.1573473 12.7940237,20.170572 12.3333502,20.1749029 L12.3333502,18.5235205 C12.4250479,18.5225924 12.5166675,18.5212777 12.6083652,18.5196536 C12.6260023,18.5196536 12.6437175,18.5192669 12.6613547,18.5189576 L12.6613547,18.5189576 Z M11.3917129,18.5198856 C11.4833325,18.5215871 11.5750301,18.5229018 11.6666498,18.5239072 L11.6666498,20.1752122 C11.2059763,20.1708814 10.7613793,20.1576567 10.3333268,20.1369303 L10.3333268,18.4875587 C10.6673404,18.5031035 11.0029929,18.5133893 11.3387233,18.5192669 C11.3563605,18.5192669 11.3739977,18.5196536 11.3917129,18.5198856 L11.3917129,18.5198856 Z M4.36572147,15.7844669 C4.35463971,15.7811414 4.34433835,15.7782026 4.33333463,15.7751865 L4.33333463,14.1793322 C4.64463842,14.2626244 4.97935437,14.3385696 5.33334634,14.4077091 L5.33334634,16.0199589 C5.02734931,15.9555369 4.74499858,15.8878668 4.48801102,15.8184953 C4.44735189,15.8068947 4.40528803,15.7960675 4.36572147,15.7844669 L4.36572147,15.7844669 Z M10.3863944,16.5376545 C10.233669,16.5349477 10.081646,16.5313901 9.93071559,16.5267499 L9.87468247,16.5247391 C9.69300405,16.5187842 9.51265233,16.5112051 9.33370533,16.5026207 L9.33370533,14.8535584 C9.66771891,14.8691032 10.0033714,14.8793117 10.3390238,14.8852667 C10.356661,14.885576 10.3743762,14.8859627 10.3917012,14.8862721 C10.4833208,14.8879735 10.5750184,14.8892882 10.6667161,14.8902936 L10.6667161,16.5412893 C10.6020205,16.5405933 10.5373248,16.5405933 10.4730194,16.5395879 C10.4436762,16.5388919 10.4153475,16.5379638 10.3863944,16.5376545 L10.3863944,16.5376545 Z M11.8420069,16.5330142 C11.7933096,16.534329 11.7443782,16.5349477 11.6953687,16.535953 C11.5763568,16.5382732 11.4543794,16.5388919 11.3336507,16.5398972 L11.3336507,14.8899069 C11.4253484,14.8889015 11.517046,14.8876641 11.6086656,14.8859627 C11.6263808,14.885576 11.644018,14.8852667 11.6616552,14.8849573 C11.9973856,14.878693 12.3330381,14.8684845 12.6670517,14.853249 L12.6670517,16.5026207 C12.5957226,16.5061782 12.5240033,16.5095037 12.4516597,16.5124425 C12.2510175,16.521491 12.0483461,16.5280646 11.8420069,16.5330142 L11.8420069,16.5330142 Z M19.2973774,14.997947 L19.1837504,15.0967067 C19.0087054,15.2496025 18.7170679,15.4038903 18.3334205,15.5525325 L18.3334205,13.9775593 C18.7297104,13.840827 19.0670017,13.689246 19.3333541,13.5230483 L19.3333541,14.8899069 C19.3333541,14.9239353 19.3207116,14.9602838 19.2973774,14.997947 L19.2973774,14.997947 Z M21.9964101,8.9459975 C21.963399,8.38073951 21.2850705,7.93914378 19.9284134,7.60218536 C19.9740671,7.50311634 19.9997425,7.40002578 20.0000546,7.29299102 L20.0000546,4.98199917 L19.9943577,4.98199917 C19.8750337,3.05684288 11.9143505,3 11.0000273,3 C10.0857041,3 2.12502097,3.05684288 2.00561892,4.98199917 L2,4.98199917 L2,5.02492134 L2,7.2939964 C2.00163885,7.92158823 2.81903565,8.41283447 4.03498558,8.77848501 C4.0182849,8.83331712 4.00829571,8.88915462 4.00501801,8.9459975 L4.00002341,8.9459975 L4.00002341,8.98891968 L4.00002341,11.2539732 C2.68995657,11.5883022 2.03566453,12.0236336 2.00335574,12.5796111 L2,12.5796111 L2,12.6226106 L2,14.891531 C2.00101453,15.3286411 2.39870921,15.6992413 3.04933334,16.0081263 C3.02467252,16.0751777 3.00929853,16.1435438 3.0050063,16.213534 L3.00001171,16.213534 L3.00001171,16.2565335 L3.00001171,18.5255313 C3.00266509,19.6242616 5.49902644,20.3063762 8.2726659,20.6247737 C8.29303449,20.6287179 8.31168618,20.636993 8.33330342,20.636993 C8.3396247,20.636993 8.3450095,20.6336675 8.35133079,20.6334355 C8.88598665,20.6931398 9.42930501,20.7397742 9.96700445,20.7731066 C9.97839837,20.7744213 9.98830952,20.7796802 10.0000156,20.7796802 C10.0063369,20.7796802 10.0113315,20.7764321 10.0173406,20.7760454 C10.7000394,20.8171115 11.3717345,20.8378378 12.000039,20.8378378 C12.6283436,20.8378378 13.3000386,20.8171115 13.9827374,20.775736 C13.9886685,20.7760454 13.9940533,20.7793709 14.0000624,20.7793709 C14.0116905,20.7793709 14.0216797,20.7738026 14.0330736,20.7727199 C14.570695,20.7394648 15.1140134,20.6931398 15.6486692,20.6330488 C15.6549905,20.6330488 15.6603753,20.6363743 15.6666966,20.6363743 C15.6883138,20.6363743 15.7070436,20.6280992 15.7273341,20.6240777 C18.5010516,20.3056802 20.9970228,19.6232562 20.9999883,18.5242165 L20.9999883,16.2132247 L20.9946815,16.2132247 C20.9713474,15.8082868 20.6230524,15.470323 19.9350468,15.1878873 C19.9770327,15.0923758 20.0000546,14.9933068 20.0000546,14.8906029 L20.0000546,12.7315788 C21.1967285,12.3668563 21.9983611,11.8789356 22,11.256912 L22,8.9459975 L21.9964101,8.9459975 Z" id="path-1"></path>
    </defs>
    <g id="1.-atom-/-Icons-/-Dienstleistungen-/-Sparen" stroke="none" stroke-width="1" fill="none" fill-rule="evenodd">
        <mask id="mask-2" fill="white">
            <use xlink:href="#path-1"></use>
        </mask>
        <use id="Mask" fill="#4D7CFF" xlink:href="#path-1"></use>
        <g id="Group" mask="url(#mask-2)" fill="#2E4A8C">
            <g id="4.-color-/-black">
                <rect id="Rectangle" x="0" y="0" width="24" height="24"></rect>
            </g>
        </g>
    </g>
</svg>