<?xml version="1.0" encoding="UTF-8"?>
<svg width="24px" height="24px" viewBox="0 0 24 24" version="1.1" xmlns="http://www.w3.org/2000/svg" xmlns:xlink="http://www.w3.org/1999/xlink">
    <title>1. atom / Icons / select</title>
    <defs>
        <filter id="filter-1">
            <feColorMatrix in="SourceGraphic" type="matrix" values="0 0 0 0 0.854968 0 0 0 0 0.900611 0 0 0 0 0.983639 0 0 0 1.000000 0"></feColorMatrix>
        </filter>
        <polygon id="path-2" points="10.0069726 19.9793217 1.36 14.9898734 1.36 5.01097696 10.0069726 0.0216049598 18.6538689 5.01097696 18.6538689 14.9898734"></polygon>
        <path d="M13.4104804,10.9924917 C13.7518372,10.6390876 14.3027467,10.6395509 14.6409287,10.9896682 L14.6409287,10.9896682 L16.3500137,12.9341297 C16.7690978,13.4113057 17,14.0291728 17,14.6738854 C17,15.3642377 16.7404615,16.0136489 16.2686429,16.5016558 L16.2686429,16.5016558 L15.5536495,17.241883 C15.0813836,17.7308164 14.453663,18 13.7859281,18 L13.7859281,18 L9.50001598,18 C9.12409952,18 8.81819731,17.6833018 8.81819731,17.2941183 C8.81819731,16.7750526 9.19228139,16.3289354 9.68819793,16.2555237 L9.68819793,16.2555237 L11.5236538,15.9571783 L8.42911323,12.7534239 C8.09048373,12.4028434 8.09048373,11.832491 8.42911323,11.4823736 C8.77047001,11.1289696 9.32137949,11.1294328 9.65956155,11.4795501 L9.65956155,11.4795501 L10.4650238,12.3134391 C10.5045693,12.1741377 10.5772895,12.043329 10.6832057,11.9336747 C10.9959261,11.6094323 11.4863881,11.5830941 11.8263813,11.8517924 C11.8654793,11.7092043 11.9391157,11.5750868 12.0468431,11.4630942 C12.3600322,11.1388519 12.8504942,11.1120284 13.1904874,11.3816752 C13.2286692,11.2386018 13.3023056,11.1044843 13.4104804,10.9924917 Z M14.3122921,11.3143076 C14.1582011,11.1561901 13.8963827,11.1557269 13.7345573,11.322315 C13.653634,11.4060722 13.6109138,11.5133663 13.6109138,11.6277191 C13.6109138,11.7420719 13.6541027,11.8498512 13.7322775,11.930785 L13.7322775,11.930785 L13.7518159,11.9510129 C13.8404523,12.0427775 13.8404523,12.1919612 13.7518159,12.2837258 C13.6650118,12.3740787 13.5240884,12.3759537 13.4350046,12.2884244 C13.4350046,12.2884244 13.4350046,12.2879611 13.4345571,12.2879611 L13.4345571,12.2879611 L13.4336622,12.2874979 L13.4327674,12.2865714 L12.955963,11.7929395 C12.7950538,11.6263514 12.5318718,11.6263514 12.3709626,11.7929395 C12.2068787,11.9628144 12.2068787,12.2343582 12.3682353,12.4014096 L12.3682353,12.4014096 L12.8423337,12.89224 C12.8868863,12.9383649 12.9091519,12.9985855 12.9091519,13.0588281 C12.9091519,13.1190707 12.886865,13.1792912 12.8427811,13.2254162 C12.7541447,13.3171808 12.6100466,13.3171808 12.5214102,13.2254162 L12.5214102,13.2254162 L11.5923257,12.263542 C11.4314165,12.096954 11.1682345,12.096954 11.0073253,12.263542 C10.8432414,12.4334169 10.8432414,12.7049607 11.004598,12.8720121 L11.004598,12.8720121 L11.933235,13.8334229 C11.9777876,13.8795479 12.0000533,13.9397684 12.0000533,14.000011 C12.0000533,14.0602536 11.9777663,14.1204742 11.9336825,14.1665991 C11.8450461,14.2583637 11.7009479,14.2583637 11.6123115,14.1665991 L11.6123115,14.1665991 L9.33821189,11.812241 C9.25728854,11.7284837 9.15139357,11.686594 9.04547731,11.686594 C8.93956104,11.686594 8.83364477,11.7284837 8.75274272,11.8117777 C8.58910624,11.9816526 8.58910624,12.2536597 8.75046289,12.420711 L8.75046289,12.420711 L12.1608986,15.9515092 C12.2213673,16.0140901 12.2427168,16.1068032 12.2163602,16.1905605 C12.1895349,16.2748031 12.1199894,16.3364354 12.0354439,16.3500898 L12.0354439,16.3500898 L9.75588974,16.7209203 C9.47907136,16.7618614 9.27271468,17.0079715 9.27271468,17.2940962 C9.27271468,17.4239785 9.37454004,17.5293975 9.49999467,17.5293975 L9.49999467,17.5293975 L13.7859068,17.5293975 C14.3322779,17.5293975 14.8459218,17.3091624 15.2322786,16.9091701 L15.2322786,16.9091701 L15.947272,16.1689429 C16.3331813,15.7694138 16.5454613,15.2385908 16.5454613,14.6738854 C16.5454613,14.1463491 16.3563632,13.6409378 16.0141115,13.2507838 L16.0141115,13.2507838 Z M9.045456,10 C9.84546367,10 10.5763733,10.4903672 10.9072684,11.2484841 C10.9590866,11.3670723 10.9081846,11.5063516 10.7936604,11.5599765 C10.6795836,11.6141088 10.5445835,11.560925 10.4932127,11.4423369 C10.2354853,10.8522198 9.66729593,10.4705804 9.04547731,10.4705804 C8.16818975,10.4705804 7.45455998,11.209418 7.45455998,12.1176451 C7.45455998,12.7614092 7.82318951,13.3496513 8.39318991,13.6164746 C8.5072667,13.6701216 8.55819003,13.809423 8.50681925,13.9280111 C8.46863741,14.0145919 8.38590297,14.0663639 8.29954638,14.0663639 C8.26818272,14.0663639 8.23635031,14.0597683 8.20590285,14.0456507 C7.4736296,13.7025922 7,12.945887 7,12.1176451 C7,10.9501168 7.91772792,10 9.045456,10 Z" id="path-4"></path>
    </defs>
    <g id="1.-atom-/-Icons-/-select" stroke="none" stroke-width="1" fill="none" fill-rule="evenodd">
        <g id="1.-atom-/-Hexagon" transform="translate(2.000000, 4.000000)" filter="url(#filter-1)">
            <g>
                <mask id="mask-3" fill="white">
                    <use xlink:href="#path-2"></use>
                </mask>
                <use id="Mask" fill="#A2DAF2" xlink:href="#path-2"></use>
                <g id="Group" mask="url(#mask-3)" fill="#DAE6FB">
                    <g id="4.-color-/-lightblue">
                        <rect id="Rectangle" x="0" y="0" width="20" height="20"></rect>
                    </g>
                </g>
            </g>
        </g>
        <mask id="mask-5" fill="white">
            <use xlink:href="#path-4"></use>
        </mask>
        <use id="Mask" fill="#000000" fill-rule="nonzero" xlink:href="#path-4"></use>
        <g id="Group" mask="url(#mask-5)" fill="#4D7CFF">
            <g id="4.-color-/-black">
                <rect id="Rectangle" x="0" y="0" width="24" height="24"></rect>
            </g>
        </g>
    </g>
</svg>