<?xml version="1.0" encoding="UTF-8"?>
<svg width="24px" height="24px" viewBox="0 0 24 24" version="1.1" xmlns="http://www.w3.org/2000/svg" xmlns:xlink="http://www.w3.org/1999/xlink">
    <title>1. atom / Icons / sustainability</title>
    <defs>
        <filter id="filter-1">
            <feColorMatrix in="SourceGraphic" type="matrix" values="0 0 0 0 0.854968 0 0 0 0 0.900611 0 0 0 0 0.983639 0 0 0 1.000000 0"></feColorMatrix>
        </filter>
        <polygon id="path-2" points="10.0069726 19.9793217 1.36 14.9898734 1.36 5.01097696 10.0069726 0.0216049598 18.6538689 5.01097696 18.6538689 14.9898734"></polygon>
        <path d="M7.20833333,14.1666667 C8.62541667,14.1666667 9.37416667,14.6441667 9.40541667,14.6645833 C9.48,14.7133333 9.51541667,14.8041667 9.49375,14.8904167 L9.47,14.98 L13.2858333,15.9016667 C13.7328449,16.0060752 14.05201,16.3884931 14.0811566,16.8442231 L14.28125,16.7804167 L14.28125,16.7804167 C14.7825,16.6225 15.30125,16.4583333 15.75,16.4583333 C16.7220833,16.4583333 16.97875,17.1945833 16.9891667,17.2258333 C17.02125,17.3220833 16.9795833,17.4275 16.8895833,17.4758333 C16.76,17.5441667 13.70375,19.1666667 12.4166667,19.1666667 C11.5018935,19.1666667 9.79273992,18.4512555 8.71654201,17.9543236 L8.66041667,18.17625 C8.63666667,18.26875 8.55375,18.3333333 8.45833333,18.3333333 L7.20833333,18.3333333 C7.09333333,18.3333333 7,18.24 7,18.125 L7,14.375 C7,14.26 7.09333333,14.1666667 7.20833333,14.1666667 Z M9.368,15.384 L8.821,17.543 C9.72626139,17.9633789 11.5389323,18.75 12.4166667,18.75 C13.43,18.75 15.81875,17.5595833 16.5058333,17.2058333 C16.3975,17.0641667 16.17375,16.875 15.75,16.875 C15.3654167,16.875 14.8779167,17.02875 14.40625,17.1779167 C13.905,17.3358333 13.38625,17.5 12.9375,17.5 C12.0775,17.5 10.9354167,17.0883333 10.8870833,17.0708333 C10.7791667,17.0316667 10.7233333,16.9120833 10.7625,16.80375 C10.8016667,16.6958333 10.92125,16.6404167 11.0295833,16.6791667 C11.0404167,16.6833333 12.15125,17.0833333 12.9375,17.0833333 C13.1547391,17.0833333 13.4048166,17.0342753 13.6663292,16.9646966 L13.6666667,16.9125 C13.6666667,16.6216667 13.4708333,16.3725 13.19,16.3075 L9.368,15.384 Z M7.41666667,14.5870833 L7.41666667,17.9166667 L8.29625,17.9166667 L8.36837624,17.6297532 C8.36991945,17.6185722 8.37238922,17.6074195 8.3758219,17.5964016 L9.01121253,15.0965899 C9.01193771,15.0925898 9.01278274,15.0885863 9.01375,15.0845833 L9.018,15.073 L9.05,14.9458333 C8.81541667,14.83375 8.26291667,14.6183333 7.41666667,14.5870833 Z M11.5833333,10 C12.4981065,10 14.2072601,10.7154112 15.283458,11.2123431 L15.3395833,10.9904167 C15.3633333,10.8979167 15.44625,10.8333333 15.5416667,10.8333333 L16.7916667,10.8333333 C16.9066667,10.8333333 17,10.9266667 17,11.0416667 L17,14.7916667 C17,14.9066667 16.9066667,15 16.7916667,15 C15.3745833,15 14.6258333,14.5225 14.5945833,14.5020833 C14.52,14.4533333 14.4845833,14.3625 14.50625,14.27625 L14.529,14.185 L10.71375,13.265 C10.2673214,13.1606349 9.94825491,12.7784921 9.91887994,12.323013 L9.71875,12.38625 L9.71875,12.38625 C9.2175,12.5441667 8.69875,12.7083333 8.25,12.7083333 C7.27791667,12.7083333 7.02125,11.9720833 7.01083333,11.9408333 C6.97875,11.8445833 7.02041667,11.7391667 7.11041667,11.6908333 C7.24,11.6225 10.29625,10 11.5833333,10 Z M16.5833333,11.25 L15.70375,11.25 L15.6316238,11.5369135 C15.6301492,11.5475968 15.6278288,11.5582544 15.6246307,11.5687931 L14.9878184,14.0750784 C14.9873369,14.077413 14.9868142,14.0797483 14.98625,14.0820833 L14.983,14.089 L14.9504167,14.2208333 C15.185,14.3333333 15.7375,14.5483333 16.5833333,14.5795833 L16.5833333,11.25 Z M11.5833333,10.4166667 C10.57,10.4166667 8.18125,11.6070833 7.49416667,11.9608333 C7.6025,12.1025 7.82625,12.2916667 8.25,12.2916667 C8.63458333,12.2916667 9.12208333,12.1379167 9.59375,11.98875 C10.095,11.8308333 10.61375,11.6666667 11.0625,11.6666667 C11.9225,11.6666667 13.0645833,12.0783333 13.1129167,12.0958333 C13.2208333,12.135 13.2766667,12.2545833 13.2375,12.3629167 C13.1983333,12.47125 13.0791667,12.5266667 12.9704167,12.4875 C12.9595833,12.4833333 11.84875,12.0833333 11.0625,12.0833333 C10.8452609,12.0833333 10.5951834,12.1323914 10.3336708,12.20197 L10.3333333,12.2541667 C10.3333333,12.545 10.5291667,12.7941667 10.81,12.8591667 L14.631,13.782 L15.179,11.623 L15.1698064,11.6188456 C14.2737386,11.2032878 12.4610677,10.4166667 11.5833333,10.4166667 Z" id="path-4"></path>
    </defs>
    <g id="1.-atom-/-Icons-/-sustainability" stroke="none" stroke-width="1" fill="none" fill-rule="evenodd">
        <g id="1.-atom-/-Hexagon" transform="translate(2.000000, 4.000000)" filter="url(#filter-1)">
            <g>
                <mask id="mask-3" fill="white">
                    <use xlink:href="#path-2"></use>
                </mask>
                <use id="Mask" fill="#A2DAF2" xlink:href="#path-2"></use>
                <g id="Group" mask="url(#mask-3)" fill="#DAE6FB">
                    <g id="4.-color-/-lightblue">
                        <rect id="Rectangle" x="0" y="0" width="20" height="20"></rect>
                    </g>
                </g>
            </g>
        </g>
        <mask id="mask-5" fill="white">
            <use xlink:href="#path-4"></use>
        </mask>
        <use id="Mask" fill="#000000" fill-rule="nonzero" xlink:href="#path-4"></use>
        <g id="Group" mask="url(#mask-5)" fill="#4D7CFF">
            <g id="4.-color-/-black">
                <rect id="Rectangle" x="0" y="0" width="24" height="24"></rect>
            </g>
        </g>
    </g>
</svg>