<?xml version="1.0" encoding="UTF-8"?>
<svg width="24px" height="24px" viewBox="0 0 24 24" version="1.1" xmlns="http://www.w3.org/2000/svg" xmlns:xlink="http://www.w3.org/1999/xlink">
    <title>1. atom / Icons / sympathetic</title>
    <defs>
        <filter id="filter-1">
            <feColorMatrix in="SourceGraphic" type="matrix" values="0 0 0 0 0.854968 0 0 0 0 0.900611 0 0 0 0 0.983639 0 0 0 1.000000 0"></feColorMatrix>
        </filter>
        <polygon id="path-2" points="10.0069726 19.9793217 1.36 14.9898734 1.36 5.01097696 10.0069726 0.0216049598 18.6538689 5.01097696 18.6538689 14.9898734"></polygon>
        <path d="M13.7817656,12.3032656 C14.6649609,12.3032656 15.5044219,12.7305547 16.0273594,13.4462422 C16.1037422,13.55075 16.0809141,13.6973984 15.9764063,13.7737578 C15.871875,13.8500937 15.72525,13.8273125 15.6488906,13.7227812 C15.2138906,13.1274687 14.5158984,12.7720391 13.7817891,12.7720391 C13.2654375,12.7720391 12.7771641,12.9384922 12.3697734,13.2534219 C12.2240625,13.3660391 12.1928203,13.5736719 12.3001172,13.7162891 C12.3535781,13.7873516 12.4314609,13.8328906 12.5194453,13.8445156 C12.6074063,13.8561641 12.6944531,13.8324687 12.7644141,13.7778594 C13.0466719,13.5574766 13.3852031,13.43675 13.7434688,13.4287344 C14.1973125,13.4183047 14.6450859,13.5952578 14.9705859,13.9135391 C15.2688984,14.2052187 15.4331719,14.5855391 15.4331719,14.9844687 C15.4331719,15.1878828 15.3981797,15.4038359 15.3291563,15.626375 C15.1989375,16.0462578 14.9549063,16.4422344 14.6234297,16.7715078 C14.0356641,17.3553828 13.2990703,17.7593516 12.4933359,17.9396797 C12.4077891,17.9588047 12.3348281,18.0100859 12.2878828,18.084125 C12.2409375,18.1581641 12.2256328,18.2460312 12.2447813,18.3315547 C12.2780625,18.4802187 12.4125,18.588125 12.5644688,18.588125 C12.5885391,18.588125 12.6128203,18.5854297 12.6367031,18.5800859 C13.4875547,18.3896562 14.3852578,17.8839453 15.0995859,17.1926328 C15.5050078,16.8002891 16.0336406,16.5842187 16.5881484,16.5842187 L16.5881484,16.5842187 L17.765625,16.5842187 C17.8950703,16.5842187 18,16.6891719 18,16.8185937 C18,16.9480156 17.8950703,17.0529687 17.765625,17.0529687 L17.765625,17.0529687 L16.5881719,17.0529687 C16.1559844,17.0529687 15.7430859,17.2221875 15.4255781,17.5294531 C14.6509922,18.279125 13.6717734,18.8287812 12.7390313,19.0375391 C12.6815859,19.0503828 12.622875,19.056875 12.5644687,19.056875 C12.348,19.056875 12.1462734,18.966875 12,18.8198281 C11.8537031,18.966875 11.652,19.056875 11.4355313,19.056875 C11.377125,19.056875 11.3184141,19.0503828 11.2610156,19.0375391 C10.3282266,18.8287812 9.34900781,18.2791016 8.57442188,17.5294531 C8.25691406,17.2221875 7.84403906,17.0529687 7.41185156,17.0529687 L7.41185156,17.0529687 L6.234375,17.0529687 C6.10492969,17.0529687 6,16.9480156 6,16.8185937 C6,16.6891719 6.10492969,16.5842187 6.234375,16.5842187 L6.234375,16.5842187 L7.41175781,16.5842187 C7.96626563,16.5842187 8.49492187,16.8002891 8.90032031,17.1926328 C9.61464844,17.8839453 10.5123516,18.3896562 11.3632734,18.5800859 C11.3871094,18.5854297 11.4113906,18.588125 11.4354609,18.588125 C11.5874297,18.588125 11.7218906,18.4802187 11.7551484,18.3315312 C11.7742969,18.2460078 11.7589922,18.1581406 11.7120469,18.084125 C11.6651016,18.0101094 11.5921406,17.9588047 11.5066172,17.9396797 C10.7008594,17.7593281 9.96428906,17.3553828 9.37652344,16.7715078 C9.04507031,16.4422578 8.80103906,16.0462578 8.67079688,15.6263516 C8.60177344,15.4038359 8.56678125,15.1878828 8.56678125,14.9844687 C8.56678125,14.5855625 8.73105469,14.2052187 9.02936719,13.9135391 C9.35484375,13.5952344 9.80245312,13.4181875 10.2564844,13.4287344 C10.6147266,13.4367266 10.9532812,13.5574766 11.2355156,13.7778594 C11.3054766,13.8324922 11.3925,13.8562344 11.4804844,13.8445156 C11.5684687,13.8328906 11.6463516,13.7873281 11.6998125,13.7162891 C11.8071094,13.5736719 11.7758672,13.3660391 11.6301797,13.2534219 C11.2227656,12.9385156 10.7345156,12.7720391 10.2181641,12.7720391 C9.48405469,12.7720391 8.7860625,13.1274687 8.3510625,13.7227812 C8.27470312,13.8272656 8.12807812,13.8500937 8.02354687,13.7737578 C7.91903906,13.6973984 7.89623437,13.55075 7.97259375,13.4462422 C8.49553125,12.7305312 9.33501563,12.3032656 10.2181875,12.3032656 C10.8392344,12.3032656 11.426625,12.5035625 11.9168672,12.8825234 C11.9466563,12.9055625 11.9742891,12.9304062 11.9999766,12.9566094 C12.0256641,12.9304062 12.0532734,12.9055625 12.0830859,12.8825234 C12.5733047,12.5035625 13.1607187,12.3032656 13.7817656,12.3032656 Z M13.7539687,13.8973203 C13.4973984,13.9030625 13.2549844,13.9895234 13.0529062,14.1473047 C12.8829844,14.2799609 12.6717422,14.3373594 12.4579922,14.3092109 C12.2821875,14.2859609 12.1230938,14.2069531 11.9999766,14.0836953 C11.8768594,14.2069297 11.7177891,14.2859609 11.5419844,14.3092109 C11.3282344,14.3374062 11.1169922,14.2799609 10.9470703,14.1473047 C10.7449922,13.9895234 10.5025781,13.9030625 10.2460078,13.8973203 C9.91699219,13.8902422 9.59296875,14.018 9.35709375,14.2486484 C9.14976562,14.4514297 9.03555469,14.7127109 9.03555469,14.9844453 C9.03555469,15.1407266 9.06349219,15.3099687 9.11854687,15.4874609 C9.22617187,15.8344766 9.42963281,16.1634687 9.70692187,16.4389297 C10.2319219,16.9604609 10.8896484,17.3212344 11.6090391,17.4822266 C11.7595781,17.5159297 11.8939453,17.5908125 11.9999531,17.6978516 C12.1060078,17.5908125 12.240375,17.5159297 12.3909375,17.4822266 C13.1103281,17.3212344 13.7680547,16.9604609 14.2930547,16.4389297 C14.5703672,16.1634687 14.7738281,15.8344766 14.8814297,15.4874844 C14.9365078,15.3099687 14.9644219,15.1407266 14.9644219,14.9844453 C14.9644219,14.7127109 14.8502344,14.4514062 14.6428828,14.2486484 C14.4070078,14.018 14.0831016,13.8910156 13.7539687,13.8973203 Z M7.22685938,14.088125 C7.35630469,14.088125 7.46123438,14.1930781 7.46123438,14.3225 C7.46123438,14.4519219 7.35630469,14.556875 7.22685938,14.556875 L7.22685938,14.556875 L6.234375,14.556875 C6.10492969,14.556875 6,14.4519219 6,14.3225 C6,14.1930781 6.10492969,14.088125 6.234375,14.088125 L6.234375,14.088125 Z M17.765625,14.088125 C17.8950703,14.088125 18,14.1930781 18,14.3225 C18,14.4519219 17.8950703,14.556875 17.765625,14.556875 L17.765625,14.556875 L16.7731406,14.556875 C16.6436953,14.556875 16.5387656,14.4519219 16.5387656,14.3225 C16.5387656,14.1930547 16.6436953,14.088125 16.7731406,14.088125 L16.7731406,14.088125 Z M9.66639844,11.3647344 C10.3693828,11.287625 11.0584687,11.4429687 11.6590547,11.8141719 C11.7691641,11.8822578 11.8032656,12.0266797 11.7352031,12.1367891 C11.6671172,12.2468984 11.5226953,12.2808828 11.4126094,12.2129375 C10.9017891,11.8972109 10.3155469,11.765 9.7175625,11.8306953 C8.84592187,11.9263906 8.07567187,12.4460469 7.65710156,13.2208203 C7.61470312,13.2992891 7.53403125,13.3438437 7.4506875,13.3438437 C7.41307031,13.3438437 7.37491406,13.33475 7.33947656,13.315625 C7.22559375,13.2541016 7.18314844,13.1118828 7.24467187,12.9980234 C7.7364375,12.0878047 8.64173437,11.4772344 9.66639844,11.3647344 Z M14.0864318,11.3471174 L14.3336016,11.3647344 C15.3582656,11.4772344 16.2635859,12.0878047 16.7553281,12.9980234 C16.8168516,13.1119062 16.7744063,13.2541016 16.6605234,13.315625 C16.6250859,13.33475 16.5869297,13.3438437 16.5493125,13.3438437 C16.4659688,13.3438437 16.3852969,13.2993125 16.3428984,13.2208203 C15.9243281,12.4460469 15.1540547,11.9263672 14.2824375,11.8306953 C13.9306172,11.7920703 13.5833203,11.8213906 13.2502031,11.9177656 C13.1259141,11.9536719 12.9959063,11.8821172 12.9599297,11.7577578 C12.9239531,11.6334219 12.9956016,11.5034375 13.1199375,11.4674609 C13.5122109,11.3539766 13.9205625,11.3194062 14.3336016,11.3647344 Z M12.4652344,11.7785937 C12.5946761,11.7785937 12.6996094,11.883527 12.6996094,12.0129687 C12.6996094,12.1424105 12.5946761,12.2473437 12.4652344,12.2473437 C12.3357926,12.2473437 12.2308594,12.1424105 12.2308594,12.0129687 C12.2308594,11.883527 12.3357926,11.7785937 12.4652344,11.7785937 Z M14.5539375,8.78220312 C14.6454375,8.69063281 14.7938672,8.69063281 14.8853906,8.78213281 C14.9769141,8.87365625 14.9769609,9.0220625 14.8854375,9.11358594 L14.8854375,9.11358594 L13.6243359,10.3751562 C13.5785859,10.4209531 13.5185859,10.4438516 13.4585859,10.4438516 C13.3986094,10.4438516 13.3386562,10.421 13.2928828,10.3752266 C13.2013594,10.2837031 13.2013125,10.1352969 13.2928359,10.0437734 L13.2928359,10.0437734 Z M9.77946094,9.44660937 C9.8709375,9.3550625 10.0193438,9.35501562 10.1109141,9.44646875 L10.1109141,9.44646875 L10.6716563,10.0067422 C10.7632031,10.0982656 10.7632734,10.2466484 10.6717734,10.3382187 C10.626,10.3840156 10.566,10.4069375 10.5059766,10.4069375 C10.4460234,10.4069375 10.3860938,10.3840625 10.3403203,10.3383594 L10.3403203,10.3383594 L9.77957813,9.77808594 C9.68803125,9.6865625 9.68796094,9.53817969 9.77946094,9.44660937 Z M11.9996953,8.005625 C12.1291406,8.005625 12.2340703,8.11057812 12.2340703,8.24 L12.2340703,8.24 L12.2340703,9.63436719 C12.2340703,9.76378906 12.1291406,9.86874219 11.9996953,9.86874219 C11.87025,9.86874219 11.7653203,9.7638125 11.7653203,9.63436719 L11.7653203,9.63436719 L11.7653203,8.24 C11.7653203,8.11057812 11.87025,8.005625 11.9996953,8.005625 Z M9.09377344,8.77660156 C9.18084375,8.6808125 9.32917969,8.67359375 9.42496875,8.76071094 C9.52075781,8.84778125 9.52792969,8.99588281 9.44085937,9.09164844 L9.44085937,9.09164844 L9.38925694,9.13439844 C9.35201562,9.1571276 9.309625,9.16861719 9.26714062,9.16861719 C9.21089062,9.16861719 9.15447656,9.14850781 9.10954687,9.10767969 C9.01375781,9.02060937 9.00670312,8.87236719 9.09377344,8.77660156 Z" id="path-4"></path>
    </defs>
    <g id="1.-atom-/-Icons-/-sympathetic" stroke="none" stroke-width="1" fill="none" fill-rule="evenodd">
        <g id="1.-atom-/-Hexagon" transform="translate(2.000000, 4.000000)" filter="url(#filter-1)">
            <g>
                <mask id="mask-3" fill="white">
                    <use xlink:href="#path-2"></use>
                </mask>
                <use id="Mask" fill="#A2DAF2" xlink:href="#path-2"></use>
                <g id="Group" mask="url(#mask-3)" fill="#DAE6FB">
                    <g id="4.-color-/-lightblue">
                        <rect id="Rectangle" x="0" y="0" width="20" height="20"></rect>
                    </g>
                </g>
            </g>
        </g>
        <mask id="mask-5" fill="white">
            <use xlink:href="#path-4"></use>
        </mask>
        <use id="Mask" fill="#000000" fill-rule="nonzero" xlink:href="#path-4"></use>
        <g id="Group" mask="url(#mask-5)" fill="#4D7CFF">
            <g id="4.-color-/-black">
                <rect id="Rectangle" x="0" y="0" width="24" height="24"></rect>
            </g>
        </g>
    </g>
</svg>