<?xml version="1.0" encoding="UTF-8"?>
<svg width="24px" height="24px" viewBox="0 0 24 24" version="1.1" xmlns="http://www.w3.org/2000/svg" xmlns:xlink="http://www.w3.org/1999/xlink">
    <title>1. atom / Icons / Dienstleistungen / Steuern</title>
    <defs>
        <path d="M17.1901966,2 C18.1882739,2 19,2.81882841 19,3.82574364 L19,3.82574364 L19,20.0069517 C19,21.0139945 18.1882739,21.8333333 17.1901966,21.8333333 L17.1901966,21.8333333 L6.8099334,21.8333333 C5.81159609,21.8333333 5,21.0139945 5,20.0069517 L5,20.0069517 L5,3.82574364 C5,2.81882841 5.81159609,2 6.8099334,2 L6.8099334,2 Z M17.5588153,3.16666667 L6.44132394,3.16666667 C6.29187807,3.16666667 6.16666667,3.31021834 6.16666667,3.48091046 L6.16666667,3.48091046 L6.16666667,20.3517577 C6.16666667,20.5224498 6.29187807,20.6666667 6.44132394,20.6666667 L6.44132394,20.6666667 L17.5588153,20.6666667 C17.7082612,20.6666667 17.8333333,20.5224498 17.8333333,20.3517577 L17.8333333,20.3517577 L17.8333333,3.48091046 C17.8333333,3.31021834 17.7082612,3.16666667 17.5588153,3.16666667 L17.5588153,3.16666667 Z M9.71969697,17.1666667 L9.71969697,18.9166667 L7.96969697,18.9166667 L7.96969697,17.1666667 L9.71969697,17.1666667 Z M12.6363636,17.1666667 L12.6363636,18.9166667 L10.8863636,18.9166667 L10.8863636,17.1666667 L12.6363636,17.1666667 Z M16.1363636,17.1666667 L16.1363636,18.9166667 L14.3863636,18.9166667 L14.3863636,17.1666667 L16.1363636,17.1666667 Z M9.71969697,14.25 L9.71969697,16 L7.96969697,16 L7.96969697,14.25 L9.71969697,14.25 Z M12.6363636,14.25 L12.6363636,16 L10.8863636,16 L10.8863636,14.25 L12.6363636,14.25 Z M16.1363636,14.25 L16.1363636,16 L14.3863636,16 L14.3863636,14.25 L16.1363636,14.25 Z M9.71969697,11.3333333 L9.71969697,13.0833333 L7.96969697,13.0833333 L7.96969697,11.3333333 L9.71969697,11.3333333 Z M12.6363636,11.3333333 L12.6363636,13.0833333 L10.8863636,13.0833333 L10.8863636,11.3333333 L12.6363636,11.3333333 Z M16.1363636,11.3333333 L16.1363636,13.0833333 L14.3863636,13.0833333 L14.3863636,11.3333333 L16.1363636,11.3333333 Z M16.1363636,4.33333333 L16.1363636,9 L7.96969697,9 L7.96969697,4.33333333 L16.1363636,4.33333333 Z M14.969697,5.5 L9.13636364,5.5 L9.13636364,7.83333333 L14.969697,7.83333333 L14.969697,5.5 Z" id="path-1"></path>
    </defs>
    <g id="1.-atom-/-Icons-/-Dienstleistungen-/-Steuern" stroke="none" stroke-width="1" fill="none" fill-rule="evenodd">
        <mask id="mask-2" fill="white">
            <use xlink:href="#path-1"></use>
        </mask>
        <use id="Mask" fill="#4D7CFF" xlink:href="#path-1"></use>
        <g id="Group" mask="url(#mask-2)" fill="#2E4A8C">
            <g id="4.-color-/-black">
                <rect id="Rectangle" x="0" y="0" width="24" height="24"></rect>
            </g>
        </g>
    </g>
</svg>